<?xml version="1.0" encoding="UTF-8" standalone="no"?>
<!-- Created with Inkscape (http://www.inkscape.org/) -->

<svg
   xmlns:dc="http://purl.org/dc/elements/1.1/"
   xmlns:cc="http://creativecommons.org/ns#"
   xmlns:rdf="http://www.w3.org/1999/02/22-rdf-syntax-ns#"
   xmlns:svg="http://www.w3.org/2000/svg"
   xmlns="http://www.w3.org/2000/svg"
   xmlns:xlink="http://www.w3.org/1999/xlink"
   xmlns:sodipodi="http://sodipodi.sourceforge.net/DTD/sodipodi-0.dtd"
   xmlns:inkscape="http://www.inkscape.org/namespaces/inkscape"
   width="170.71616mm"
   height="82.784477mm"
   viewBox="0 0 170.71616 82.784477"
   version="1.1"
   id="svg8"
   inkscape:version="0.92.2 5c3e80d, 2017-08-06"
   sodipodi:docname="cylinder.svg">
  <defs
     id="defs2">
    <linearGradient
       inkscape:collect="always"
       id="linearGradient836">
      <stop
         style="stop-color:#e6e6e6;stop-opacity:1;"
         offset="0"
         id="stop832" />
      <stop
         style="stop-color:#ffffff;stop-opacity:1"
         offset="1"
         id="stop834" />
    </linearGradient>
    <linearGradient
       inkscape:collect="always"
       id="linearGradient828">
      <stop
         style="stop-color:#cccccc;stop-opacity:1"
         offset="0"
         id="stop824" />
      <stop
         style="stop-color:#ffffff;stop-opacity:1"
         offset="1"
         id="stop826" />
    </linearGradient>
    <linearGradient
       inkscape:collect="always"
       xlink:href="#linearGradient828"
       id="linearGradient830"
       x1="104.63723"
       y1="178.86685"
       x2="104.63723"
       y2="129.68927"
       gradientUnits="userSpaceOnUse" />
    <linearGradient
       inkscape:collect="always"
       xlink:href="#linearGradient836"
       id="linearGradient838"
       x1="17.674326"
       y1="153.47626"
       x2="55.022987"
       y2="134.23285"
       gradientUnits="userSpaceOnUse" />
  </defs>
  <sodipodi:namedview
     id="base"
     pagecolor="#ffffff"
     bordercolor="#666666"
     borderopacity="1.0"
     inkscape:pageopacity="0.0"
     inkscape:pageshadow="2"
     inkscape:zoom="0.98994949"
     inkscape:cx="-65.015104"
     inkscape:cy="111.69483"
     inkscape:document-units="mm"
     inkscape:current-layer="layer1"
     showgrid="false"
     fit-margin-top="0"
     fit-margin-left="0"
     fit-margin-right="0"
     fit-margin-bottom="0"
     inkscape:window-width="1920"
     inkscape:window-height="967"
     inkscape:window-x="0"
     inkscape:window-y="1"
     inkscape:window-maximized="1" />
  <metadata
     id="metadata5">
    <rdf:RDF>
      <cc:Work
         rdf:about="">
        <dc:format>image/svg+xml</dc:format>
        <dc:type
           rdf:resource="http://purl.org/dc/dcmitype/StillImage" />
        <dc:title />
      </cc:Work>
    </rdf:RDF>
  </metadata>
  <g
     inkscape:label="Layer 1"
     inkscape:groupmode="layer"
     id="layer1"
     transform="translate(-17.407057,-96.04784)">
    <path
       style="fill:none;fill-opacity:1;stroke:#808080;stroke-width:0.2;stroke-miterlimit:8.5;stroke-dasharray:none;stroke-opacity:1"
       d="m 34.210499,96.54784 c 9.004143,0 16.303442,18.30808 16.303442,40.89224 0,22.58416 -7.299299,40.89224 -16.303442,40.89224"
       id="path903"
       inkscape:connector-curvature="0"
       sodipodi:nodetypes="csc" />
    <path
       sodipodi:nodetypes="csc"
       inkscape:connector-curvature="0"
       id="path905"
       d="m 171.31976,96.54784 c 9.00414,0 16.30344,18.30808 16.30344,40.89224 0,22.58416 -7.2993,40.89224 -16.30344,40.89224"
       style="fill:none;fill-opacity:1;stroke:#808080;stroke-width:0.2;stroke-miterlimit:8.5;stroke-dasharray:none;stroke-opacity:1" />
    <ellipse
       style="fill:url(#linearGradient838);fill-opacity:1;stroke:#000000;stroke-width:1;stroke-miterlimit:8.5;stroke-dasharray:none;stroke-opacity:1"
       id="path815"
       cx="34.210499"
       cy="137.44008"
       rx="16.303442"
       ry="40.892239" />
    <path
       id="ellipse819"
       style="fill:url(#linearGradient830);fill-opacity:1;stroke:#000000;stroke-width:1;stroke-miterlimit:8.5;stroke-dasharray:none;stroke-opacity:1"
       d="m 171.31976,178.33232 c 9.00415,1e-5 16.30345,-18.30807 16.30345,-40.89224 0,-22.58417 -7.2993,-40.892251 -16.30345,-40.89224 H 34.210499 c 9.004143,0 16.303442,18.30808 16.303442,40.89224 0,22.58416 -7.299299,40.89224 -16.303442,40.89224 -9.004143,0 137.109261,0 137.109261,0 z"
       inkscape:connector-curvature="0"
       sodipodi:nodetypes="csccscc" />
    <path
       style="fill:none;fill-opacity:1;stroke:#808080;stroke-width:0.2;stroke-miterlimit:8.5;stroke-dasharray:none;stroke-opacity:1"
       d="m 36.952686,96.54784 c 9.004143,0 16.303442,18.30808 16.303442,40.89224 0,22.58416 -7.299299,40.89224 -16.303442,40.89224"
       id="ellipse840"
       inkscape:connector-curvature="0"
       sodipodi:nodetypes="csc" />
    <path
       sodipodi:nodetypes="csc"
       inkscape:connector-curvature="0"
       id="path845"
       d="m 39.694872,96.54784 c 9.004143,0 16.303442,18.30808 16.303442,40.89224 0,22.58416 -7.299299,40.89224 -16.303442,40.89224"
       style="fill:none;fill-opacity:1;stroke:#808080;stroke-width:0.2;stroke-miterlimit:8.5;stroke-dasharray:none;stroke-opacity:1" />
    <path
       style="fill:none;fill-opacity:1;stroke:#808080;stroke-width:0.2;stroke-miterlimit:8.5;stroke-dasharray:none;stroke-opacity:1"
       d="m 42.437057,96.54784 c 9.004143,0 16.303442,18.30808 16.303442,40.89224 0,22.58416 -7.299299,40.89224 -16.303442,40.89224"
       id="path847"
       inkscape:connector-curvature="0"
       sodipodi:nodetypes="csc" />
    <path
       sodipodi:nodetypes="csc"
       inkscape:connector-curvature="0"
       id="path849"
       d="m 45.179243,96.54784 c 9.004143,0 16.303442,18.30808 16.303442,40.89224 0,22.58416 -7.299299,40.89224 -16.303442,40.89224"
       style="fill:none;fill-opacity:1;stroke:#808080;stroke-width:0.2;stroke-miterlimit:8.5;stroke-dasharray:none;stroke-opacity:1" />
    <path
       style="fill:none;fill-opacity:1;stroke:#808080;stroke-width:0.2;stroke-miterlimit:8.5;stroke-dasharray:none;stroke-opacity:1"
       d="m 47.921429,96.54784 c 9.004143,0 16.303442,18.30808 16.303442,40.89224 0,22.58416 -7.299299,40.89224 -16.303442,40.89224"
       id="path851"
       inkscape:connector-curvature="0"
       sodipodi:nodetypes="csc" />
    <path
       sodipodi:nodetypes="csc"
       inkscape:connector-curvature="0"
       id="path853"
       d="m 50.663614,96.54784 c 9.004143,0 16.303442,18.30808 16.303442,40.89224 0,22.58416 -7.299299,40.89224 -16.303442,40.89224"
       style="fill:none;fill-opacity:1;stroke:#808080;stroke-width:0.2;stroke-miterlimit:8.5;stroke-dasharray:none;stroke-opacity:1" />
    <path
       style="fill:none;fill-opacity:1;stroke:#808080;stroke-width:0.2;stroke-miterlimit:8.5;stroke-dasharray:none;stroke-opacity:1"
       d="m 53.4058,96.54784 c 9.004143,0 16.303442,18.30808 16.303442,40.89224 0,22.58416 -7.299299,40.89224 -16.303442,40.89224"
       id="path855"
       inkscape:connector-curvature="0"
       sodipodi:nodetypes="csc" />
    <path
       sodipodi:nodetypes="csc"
       inkscape:connector-curvature="0"
       id="path857"
       d="m 56.147985,96.54784 c 9.004143,0 16.303442,18.30808 16.303442,40.89224 0,22.58416 -7.299299,40.89224 -16.303442,40.89224"
       style="fill:none;fill-opacity:1;stroke:#808080;stroke-width:0.2;stroke-miterlimit:8.5;stroke-dasharray:none;stroke-opacity:1" />
    <path
       style="fill:none;fill-opacity:1;stroke:#808080;stroke-width:0.2;stroke-miterlimit:8.5;stroke-dasharray:none;stroke-opacity:1"
       d="m 58.890171,96.54784 c 9.004143,0 16.303442,18.30808 16.303442,40.89224 0,22.58416 -7.299299,40.89224 -16.303442,40.89224"
       id="path859"
       inkscape:connector-curvature="0"
       sodipodi:nodetypes="csc" />
    <path
       sodipodi:nodetypes="csc"
       inkscape:connector-curvature="0"
       id="path861"
       d="m 61.632357,96.54784 c 9.004143,0 16.303442,18.30808 16.303442,40.89224 0,22.58416 -7.299299,40.89224 -16.303442,40.89224"
       style="fill:none;fill-opacity:1;stroke:#808080;stroke-width:0.2;stroke-miterlimit:8.5;stroke-dasharray:none;stroke-opacity:1" />
    <path
       style="fill:none;fill-opacity:1;stroke:#808080;stroke-width:0.2;stroke-miterlimit:8.5;stroke-dasharray:none;stroke-opacity:1"
       d="m 64.374543,96.54784 c 9.004143,0 16.303442,18.30808 16.303442,40.89224 0,22.58416 -7.299299,40.89224 -16.303442,40.89224"
       id="path863"
       inkscape:connector-curvature="0"
       sodipodi:nodetypes="csc" />
    <path
       sodipodi:nodetypes="csc"
       inkscape:connector-curvature="0"
       id="path865"
       d="m 67.116729,96.54784 c 9.004143,0 16.303445,18.30808 16.303445,40.89224 0,22.58416 -7.299302,40.89224 -16.303445,40.89224"
       style="fill:none;fill-opacity:1;stroke:#808080;stroke-width:0.2;stroke-miterlimit:8.5;stroke-dasharray:none;stroke-opacity:1" />
    <path
       style="fill:none;fill-opacity:1;stroke:#808080;stroke-width:0.2;stroke-miterlimit:8.5;stroke-dasharray:none;stroke-opacity:1"
       d="m 69.858905,96.54784 c 9.004143,0 16.303443,18.30808 16.303443,40.89224 0,22.58416 -7.2993,40.89224 -16.303443,40.89224"
       id="path867"
       inkscape:connector-curvature="0"
       sodipodi:nodetypes="csc" />
    <path
       sodipodi:nodetypes="csc"
       inkscape:connector-curvature="0"
       id="path869"
       d="m 72.601099,96.54784 c 9.004144,0 16.303444,18.30808 16.303444,40.89224 0,22.58416 -7.2993,40.89224 -16.303444,40.89224"
       style="fill:none;fill-opacity:1;stroke:#808080;stroke-width:0.2;stroke-miterlimit:8.5;stroke-dasharray:none;stroke-opacity:1" />
    <path
       style="fill:none;fill-opacity:1;stroke:#808080;stroke-width:0.2;stroke-miterlimit:8.5;stroke-dasharray:none;stroke-opacity:1"
       d="m 75.343278,96.54784 c 9.00414,0 16.30344,18.30808 16.30344,40.89224 0,22.58416 -7.2993,40.89224 -16.30344,40.89224"
       id="path871"
       inkscape:connector-curvature="0"
       sodipodi:nodetypes="csc" />
    <path
       sodipodi:nodetypes="csc"
       inkscape:connector-curvature="0"
       id="path873"
       d="m 78.085471,96.54784 c 9.00414,0 16.30344,18.30808 16.30344,40.89224 0,22.58416 -7.2993,40.89224 -16.30344,40.89224"
       style="fill:none;fill-opacity:1;stroke:#808080;stroke-width:0.2;stroke-miterlimit:8.5;stroke-dasharray:none;stroke-opacity:1" />
    <path
       style="fill:none;fill-opacity:1;stroke:#808080;stroke-width:0.2;stroke-miterlimit:8.5;stroke-dasharray:none;stroke-opacity:1"
       d="m 132.92917,96.54784 c 9.00414,0 16.30344,18.30808 16.30344,40.89224 0,22.58416 -7.2993,40.89224 -16.30344,40.89224"
       id="path875"
       inkscape:connector-curvature="0"
       sodipodi:nodetypes="csc" />
    <path
       sodipodi:nodetypes="csc"
       inkscape:connector-curvature="0"
       id="path877"
       d="m 135.67136,96.54784 c 9.00414,0 16.30344,18.30808 16.30344,40.89224 0,22.58416 -7.2993,40.89224 -16.30344,40.89224"
       style="fill:none;fill-opacity:1;stroke:#808080;stroke-width:0.2;stroke-miterlimit:8.5;stroke-dasharray:none;stroke-opacity:1" />
    <path
       style="fill:none;fill-opacity:1;stroke:#808080;stroke-width:0.2;stroke-miterlimit:8.5;stroke-dasharray:none;stroke-opacity:1"
       d="m 138.41355,96.54784 c 9.00415,0 16.30345,18.30808 16.30345,40.89224 0,22.58416 -7.2993,40.89224 -16.30345,40.89224"
       id="path879"
       inkscape:connector-curvature="0"
       sodipodi:nodetypes="csc" />
    <path
       sodipodi:nodetypes="csc"
       inkscape:connector-curvature="0"
       id="path881"
       d="m 141.15573,96.54784 c 9.00414,0 16.30344,18.30808 16.30344,40.89224 0,22.58416 -7.2993,40.89224 -16.30344,40.89224"
       style="fill:none;fill-opacity:1;stroke:#808080;stroke-width:0.2;stroke-miterlimit:8.5;stroke-dasharray:none;stroke-opacity:1" />
    <path
       style="fill:none;fill-opacity:1;stroke:#808080;stroke-width:0.2;stroke-miterlimit:8.5;stroke-dasharray:none;stroke-opacity:1"
       d="m 143.89791,96.54784 c 9.00414,0 16.30344,18.30808 16.30344,40.89224 0,22.58416 -7.2993,40.89224 -16.30344,40.89224"
       id="path883"
       inkscape:connector-curvature="0"
       sodipodi:nodetypes="csc" />
    <path
       sodipodi:nodetypes="csc"
       inkscape:connector-curvature="0"
       id="path885"
       d="m 146.64011,96.54784 c 9.00414,0 16.30344,18.30808 16.30344,40.89224 0,22.58416 -7.2993,40.89224 -16.30344,40.89224"
       style="fill:none;fill-opacity:1;stroke:#808080;stroke-width:0.2;stroke-miterlimit:8.5;stroke-dasharray:none;stroke-opacity:1" />
    <path
       style="fill:none;fill-opacity:1;stroke:#808080;stroke-width:0.2;stroke-miterlimit:8.5;stroke-dasharray:none;stroke-opacity:1"
       d="m 149.3823,96.54784 c 9.00414,0 16.30344,18.30808 16.30344,40.89224 0,22.58416 -7.2993,40.89224 -16.30344,40.89224"
       id="path887"
       inkscape:connector-curvature="0"
       sodipodi:nodetypes="csc" />
    <path
       sodipodi:nodetypes="csc"
       inkscape:connector-curvature="0"
       id="path889"
       d="m 152.12448,96.54784 c 9.00414,0 16.30344,18.30808 16.30344,40.89224 0,22.58416 -7.2993,40.89224 -16.30344,40.89224"
       style="fill:none;fill-opacity:1;stroke:#808080;stroke-width:0.2;stroke-miterlimit:8.5;stroke-dasharray:none;stroke-opacity:1" />
    <path
       style="fill:none;fill-opacity:1;stroke:#808080;stroke-width:0.2;stroke-miterlimit:8.5;stroke-dasharray:none;stroke-opacity:1"
       d="m 154.86665,96.54784 c 9.00414,0 16.30344,18.30808 16.30344,40.89224 0,22.58416 -7.2993,40.89224 -16.30344,40.89224"
       id="path891"
       inkscape:connector-curvature="0"
       sodipodi:nodetypes="csc" />
    <path
       sodipodi:nodetypes="csc"
       inkscape:connector-curvature="0"
       id="path893"
       d="m 157.60885,96.54784 c 9.00414,0 16.30344,18.30808 16.30344,40.89224 0,22.58416 -7.2993,40.89224 -16.30344,40.89224"
       style="fill:none;fill-opacity:1;stroke:#808080;stroke-width:0.2;stroke-miterlimit:8.5;stroke-dasharray:none;stroke-opacity:1" />
    <path
       style="fill:none;fill-opacity:1;stroke:#808080;stroke-width:0.2;stroke-miterlimit:8.5;stroke-dasharray:none;stroke-opacity:1"
       d="m 160.35104,96.54784 c 9.00415,0 16.30345,18.30808 16.30345,40.89224 0,22.58416 -7.2993,40.89224 -16.30345,40.89224"
       id="path895"
       inkscape:connector-curvature="0"
       sodipodi:nodetypes="csc" />
    <path
       sodipodi:nodetypes="csc"
       inkscape:connector-curvature="0"
       id="path897"
       d="m 163.09322,96.54784 c 9.00414,0 16.30344,18.30808 16.30344,40.89224 0,22.58416 -7.2993,40.89224 -16.30344,40.89224"
       style="fill:none;fill-opacity:1;stroke:#808080;stroke-width:0.2;stroke-miterlimit:8.5;stroke-dasharray:none;stroke-opacity:1" />
    <path
       style="fill:none;fill-opacity:1;stroke:#808080;stroke-width:0.2;stroke-miterlimit:8.5;stroke-dasharray:none;stroke-opacity:1"
       d="m 165.8354,96.54784 c 9.00414,0 16.30344,18.30808 16.30344,40.89224 0,22.58416 -7.2993,40.89224 -16.30344,40.89224"
       id="path899"
       inkscape:connector-curvature="0"
       sodipodi:nodetypes="csc" />
    <path
       sodipodi:nodetypes="csc"
       inkscape:connector-curvature="0"
       id="path901"
       d="m 168.57758,96.54784 c 9.00414,0 16.30344,18.30808 16.30344,40.89224 0,22.58416 -7.2993,40.89224 -16.30344,40.89224"
       style="fill:none;fill-opacity:1;stroke:#808080;stroke-width:0.2;stroke-miterlimit:8.5;stroke-dasharray:none;stroke-opacity:1" />
    <path
       style="fill:none;fill-opacity:1;stroke:#808080;stroke-width:0.2;stroke-miterlimit:8.5;stroke-dasharray:none;stroke-opacity:1"
       d="m 80.827648,96.54784 c 9.00414,0 16.30344,18.30808 16.30344,40.89224 0,22.58416 -7.2993,40.89224 -16.30344,40.89224"
       id="path907"
       inkscape:connector-curvature="0"
       sodipodi:nodetypes="csc" />
    <path
       sodipodi:nodetypes="csc"
       inkscape:connector-curvature="0"
       id="path909"
       d="m 127.44481,96.54784 c 9.00414,0 16.30344,18.30808 16.30344,40.89224 0,22.58416 -7.2993,40.89224 -16.30344,40.89224"
       style="fill:none;fill-opacity:1;stroke:#808080;stroke-width:0.2;stroke-miterlimit:8.5;stroke-dasharray:none;stroke-opacity:1" />
    <path
       style="fill:none;fill-opacity:1;stroke:#808080;stroke-width:0.2;stroke-miterlimit:8.5;stroke-dasharray:none;stroke-opacity:1"
       d="m 130.18699,96.54784 c 9.00414,0 16.30344,18.30808 16.30344,40.89224 0,22.58416 -7.2993,40.89224 -16.30344,40.89224"
       id="path911"
       inkscape:connector-curvature="0"
       sodipodi:nodetypes="csc" />
    <path
       sodipodi:nodetypes="csc"
       inkscape:connector-curvature="0"
       id="path913"
       d="m 124.70262,96.54784 c 9.00414,0 16.30344,18.30808 16.30344,40.89224 0,22.58416 -7.2993,40.89224 -16.30344,40.89224"
       style="fill:none;fill-opacity:1;stroke:#808080;stroke-width:0.2;stroke-miterlimit:8.5;stroke-dasharray:none;stroke-opacity:1" />
    <path
       style="fill:none;fill-opacity:1;stroke:#808080;stroke-width:0.2;stroke-miterlimit:8.5;stroke-dasharray:none;stroke-opacity:1"
       d="m 121.96043,96.54784 c 9.00414,0 16.30344,18.30808 16.30344,40.89224 0,22.58416 -7.2993,40.89224 -16.30344,40.89224"
       id="path915"
       inkscape:connector-curvature="0"
       sodipodi:nodetypes="csc" />
    <path
       sodipodi:nodetypes="csc"
       inkscape:connector-curvature="0"
       id="path917"
       d="m 119.21825,96.54784 c 9.00414,0 16.30344,18.30808 16.30344,40.89224 0,22.58416 -7.2993,40.89224 -16.30344,40.89224"
       style="fill:none;fill-opacity:1;stroke:#808080;stroke-width:0.2;stroke-miterlimit:8.5;stroke-dasharray:none;stroke-opacity:1" />
    <path
       style="fill:none;fill-opacity:1;stroke:#808080;stroke-width:0.2;stroke-miterlimit:8.5;stroke-dasharray:none;stroke-opacity:1"
       d="m 116.47606,96.54784 c 9.00414,0 16.30344,18.30808 16.30344,40.89224 0,22.58416 -7.2993,40.89224 -16.30344,40.89224"
       id="path919"
       inkscape:connector-curvature="0"
       sodipodi:nodetypes="csc" />
    <path
       sodipodi:nodetypes="csc"
       inkscape:connector-curvature="0"
       id="path921"
       d="m 113.73388,96.54784 c 9.00414,0 16.30344,18.30808 16.30344,40.89224 0,22.58416 -7.2993,40.89224 -16.30344,40.89224"
       style="fill:none;fill-opacity:1;stroke:#808080;stroke-width:0.2;stroke-miterlimit:8.5;stroke-dasharray:none;stroke-opacity:1" />
    <path
       style="fill:none;fill-opacity:1;stroke:#808080;stroke-width:0.2;stroke-miterlimit:8.5;stroke-dasharray:none;stroke-opacity:1"
       d="m 110.99169,96.54784 c 9.00414,0 16.30344,18.30808 16.30344,40.89224 0,22.58416 -7.2993,40.89224 -16.30344,40.89224"
       id="path923"
       inkscape:connector-curvature="0"
       sodipodi:nodetypes="csc" />
    <path
       sodipodi:nodetypes="csc"
       inkscape:connector-curvature="0"
       id="path925"
       d="m 108.2495,96.54784 c 9.00414,0 16.30344,18.30808 16.30344,40.89224 0,22.58416 -7.2993,40.89224 -16.30344,40.89224"
       style="fill:none;fill-opacity:1;stroke:#808080;stroke-width:0.2;stroke-miterlimit:8.5;stroke-dasharray:none;stroke-opacity:1" />
    <path
       style="fill:none;fill-opacity:1;stroke:#808080;stroke-width:0.2;stroke-miterlimit:8.5;stroke-dasharray:none;stroke-opacity:1"
       d="m 105.50732,96.54784 c 9.00414,0 16.30344,18.30808 16.30344,40.89224 0,22.58416 -7.2993,40.89224 -16.30344,40.89224"
       id="path927"
       inkscape:connector-curvature="0"
       sodipodi:nodetypes="csc" />
    <path
       sodipodi:nodetypes="csc"
       inkscape:connector-curvature="0"
       id="path929"
       d="m 102.76513,96.54784 c 9.00414,0 16.30344,18.30808 16.30344,40.89224 0,22.58416 -7.2993,40.89224 -16.30344,40.89224"
       style="fill:none;fill-opacity:1;stroke:#808080;stroke-width:0.2;stroke-miterlimit:8.5;stroke-dasharray:none;stroke-opacity:1" />
    <path
       style="fill:none;fill-opacity:1;stroke:#808080;stroke-width:0.2;stroke-miterlimit:8.5;stroke-dasharray:none;stroke-opacity:1"
       d="m 100.02295,96.54784 c 9.00414,0 16.30344,18.30808 16.30344,40.89224 0,22.58416 -7.2993,40.89224 -16.30344,40.89224"
       id="path931"
       inkscape:connector-curvature="0"
       sodipodi:nodetypes="csc" />
    <path
       sodipodi:nodetypes="csc"
       inkscape:connector-curvature="0"
       id="path933"
       d="m 97.280762,96.54784 c 9.004138,0 16.303438,18.30808 16.303438,40.89224 0,22.58416 -7.2993,40.89224 -16.303438,40.89224"
       style="fill:none;fill-opacity:1;stroke:#808080;stroke-width:0.2;stroke-miterlimit:8.5;stroke-dasharray:none;stroke-opacity:1" />
    <path
       style="fill:none;fill-opacity:1;stroke:#808080;stroke-width:0.2;stroke-miterlimit:8.5;stroke-dasharray:none;stroke-opacity:1"
       d="m 94.538585,96.54784 c 9.004135,0 16.303435,18.30808 16.303435,40.89224 0,22.58416 -7.2993,40.89224 -16.303435,40.89224"
       id="path935"
       inkscape:connector-curvature="0"
       sodipodi:nodetypes="csc" />
    <path
       sodipodi:nodetypes="csc"
       inkscape:connector-curvature="0"
       id="path937"
       d="m 91.796391,96.54784 c 9.004139,0 16.303439,18.30808 16.303439,40.89224 0,22.58416 -7.2993,40.89224 -16.303439,40.89224"
       style="fill:none;fill-opacity:1;stroke:#808080;stroke-width:0.2;stroke-miterlimit:8.5;stroke-dasharray:none;stroke-opacity:1" />
    <path
       style="fill:none;fill-opacity:1;stroke:#808080;stroke-width:0.2;stroke-miterlimit:8.5;stroke-dasharray:none;stroke-opacity:1"
       d="m 89.054213,96.54784 c 9.00414,0 16.303437,18.30808 16.303437,40.89224 0,22.58416 -7.299297,40.89224 -16.303437,40.89224"
       id="path939"
       inkscape:connector-curvature="0"
       sodipodi:nodetypes="csc" />
    <path
       sodipodi:nodetypes="csc"
       inkscape:connector-curvature="0"
       id="path941"
       d="m 86.31202,96.54784 c 9.00414,0 16.30344,18.30808 16.30344,40.89224 0,22.58416 -7.2993,40.89224 -16.30344,40.89224"
       style="fill:none;fill-opacity:1;stroke:#808080;stroke-width:0.2;stroke-miterlimit:8.5;stroke-dasharray:none;stroke-opacity:1" />
    <path
       style="fill:none;fill-opacity:1;stroke:#808080;stroke-width:0.2;stroke-miterlimit:8.5;stroke-dasharray:none;stroke-opacity:1"
       d="m 83.569842,96.54784 c 9.00414,0 16.30344,18.30808 16.30344,40.89224 0,22.58416 -7.2993,40.89224 -16.30344,40.89224"
       id="path943"
       inkscape:connector-curvature="0"
       sodipodi:nodetypes="csc" />
  </g>
</svg>
