<?xml version="1.0" encoding="UTF-8" standalone="no"?>
<svg
   xmlns:dc="http://purl.org/dc/elements/1.1/"
   xmlns:cc="http://creativecommons.org/ns#"
   xmlns:rdf="http://www.w3.org/1999/02/22-rdf-syntax-ns#"
   xmlns:svg="http://www.w3.org/2000/svg"
   xmlns="http://www.w3.org/2000/svg"
   xmlns:sodipodi="http://sodipodi.sourceforge.net/DTD/sodipodi-0.dtd"
   xmlns:inkscape="http://www.inkscape.org/namespaces/inkscape"
   version="1.1"
   width="2110"
   height="610"
   viewBox="0 0 2110 610"
   id="Layer_1"
   xml:space="preserve"
   sodipodi:docname="Track_gauge.svg"
   inkscape:version="0.92.2 5c3e80d, 2017-08-06"><metadata
     id="metadata113"><rdf:RDF><cc:Work
         rdf:about=""><dc:format>image/svg+xml</dc:format><dc:type
           rdf:resource="http://purl.org/dc/dcmitype/StillImage" /><dc:title></dc:title></cc:Work></rdf:RDF></metadata><sodipodi:namedview
     pagecolor="#ffffff"
     bordercolor="#666666"
     borderopacity="1"
     objecttolerance="10"
     gridtolerance="10"
     guidetolerance="10"
     inkscape:pageopacity="0"
     inkscape:pageshadow="2"
     inkscape:window-width="1805"
     inkscape:window-height="863"
     id="namedview111"
     showgrid="false"
     inkscape:pagecheckerboard="true"
     inkscape:zoom="0.54597156"
     inkscape:cx="1012.3038"
     inkscape:cy="163.9325"
     inkscape:window-x="0"
     inkscape:window-y="0"
     inkscape:window-maximized="0"
     inkscape:current-layer="Layer_1" /><defs
     id="defs112" /><polygon
     id="polygon3"
     points="0,450 -4,450 -4,-5 0,-5 "
     style="fill:#ffffff;stroke:none;stroke-linecap:butt"
     transform="translate(320,20)" /><path
     inkscape:connector-curvature="0"
     id="path5"
     d="m 269,443.9 h 36.4 c 8.2,0 14.6,6.6 14.6,14.7 v 17.2 c 0,8.1 -11,13.3 -16.7,14.7 -5.6,1.4 -7,4.1 -6.9,7.5 l 2.5,67 c 0.2,4.3 4.5,8.5 8.7,9.3 l 40.6,9.2 c 3,0.6 5.8,3.8 5.8,6.7 v 9.5 H 220.4 v -10.3 c 0,-2.6 2.6,-5.3 5.2,-5.8 l 41.7,-9.3 c 4.2,-0.9 8,-5.6 8.2,-9.8 L 278,498 c 0,-3.4 -1.4,-6.1 -7,-7.5 -5.6,-1.4 -17,-6.6 -17,-14.6 v -17.3 c 0,-8.1 6.8,-14.7 15,-14.7 z"
     style="fill:#ffffff;stroke-linecap:butt" /><polygon
     transform="translate(920,15)"
     points="0,400 4,400 4,450 0,450 "
     style="fill:#ffffff;stroke:none;stroke-linecap:butt"
     id="polygon7" /><path
     style="fill:#e5c4a1;stroke:none;stroke-linecap:butt"
     d="m 935,443.9 h 36.4 c 8.2,0 14.6,6.6 14.6,14.7 v 17.2 c 0,8.1 -11,13.3 -16.7,14.7 -5.6,1.4 -7,4.1 -6.9,7.5 l 2.5,67 c 0.2,4.3 4.5,8.5 8.7,9.3 l 40.6,9.2 c 3,0.6 5.8,3.8 5.8,6.7 v 9.5 H 886.4 v -10.3 c 0,-2.6 2.6,-5.3 5.2,-5.8 l 41.7,-9.3 c 4.2,-0.9 8,-5.6 8.2,-9.8 L 944,498 c 0,-3.4 -1.4,-6.1 -7,-7.5 -5.6,-1.4 -17,-6.6 -17,-14.6 v -17.3 c 0,-8.1 6.8,-14.7 15,-14.7 z"
     id="path9"
     inkscape:connector-curvature="0" /><polyline
     style="fill:none;stroke:#e5c4a1;stroke-width:10;stroke-linecap:butt"
     points="0,400 600,400"
     id="polyline11"
     transform="translate(320,20)" /><polygon
     transform="translate(1082,15)"
     points="0,360 4,360 4,450 0,450 "
     style="fill:#ffffff;stroke:none;stroke-linecap:butt"
     id="polygon14" /><path
     style="fill:#e65000;stroke-linecap:butt"
     d="m 1097,443.9 h 36.4 c 8.2,0 14.6,6.6 14.6,14.7 v 17.2 c 0,8.1 -11,13.3 -16.7,14.7 -5.6,1.4 -7,4.1 -6.9,7.5 l 2.5,67 c 0.2,4.3 4.5,8.5 8.7,9.3 l 40.6,9.2 c 3,0.6 5.8,3.8 5.8,6.7 v 9.5 h -133.6 v -10.3 c 0,-2.6 2.6,-5.3 5.2,-5.8 l 41.7,-9.3 c 4.2,-0.9 8,-5.6 8.2,-9.8 L 1106,498 c 0,-3.4 -1.4,-6.1 -7,-7.5 -5.6,-1.4 -17,-6.6 -17,-14.6 v -17.3 c 0,-8.1 6.8,-14.7 15,-14.7 z"
     id="path16"
     inkscape:connector-curvature="0" /><polyline
     style="fill:none;stroke:#e65000;stroke-width:10;stroke-linecap:butt"
     points="0,360 762,360"
     id="polyline18"
     transform="translate(320,20)" /><polygon
     transform="translate(1234,15)"
     points="0,320 4,320 4,450 0,450 "
     style="fill:#ffffff;stroke:none;stroke-linecap:butt"
     id="polygon21" /><path
     style="fill:#e1392f;stroke-linecap:butt"
     d="m 1249,443.9 h 36.4 c 8.2,0 14.6,6.6 14.6,14.7 v 17.2 c 0,8.1 -11,13.3 -16.7,14.7 -5.6,1.4 -7,4.1 -6.9,7.5 l 2.5,67 c 0.2,4.3 4.5,8.5 8.7,9.3 l 40.6,9.2 c 3,0.6 5.8,3.8 5.8,6.7 v 9.5 h -133.6 v -10.3 c 0,-2.6 2.6,-5.3 5.2,-5.8 l 41.7,-9.3 c 4.2,-0.9 8,-5.6 8.2,-9.8 L 1258,498 c 0,-3.4 -1.4,-6.1 -7,-7.5 -5.6,-1.4 -17,-6.6 -17,-14.6 v -17.3 c 0,-8.1 6.8,-14.7 15,-14.7 z"
     id="path23"
     inkscape:connector-curvature="0" /><polyline
     style="fill:none;stroke:#e1392f;stroke-width:10;stroke-linecap:butt"
     points="0,320 914,320"
     id="polyline25"
     transform="translate(320,20)" /><polygon
     transform="translate(1320,15)"
     points="0,280 4,280 4,450 0,450 "
     style="fill:#ffffff;stroke:none;stroke-linecap:butt"
     id="polygon28" /><path
     style="fill:#c55e8d;stroke-linecap:butt"
     d="m 1335,443.9 h 36.4 c 8.2,0 14.6,6.6 14.6,14.7 v 17.2 c 0,8.1 -11,13.3 -16.7,14.7 -5.6,1.4 -7,4.1 -6.9,7.5 l 2.5,67 c 0.2,4.3 4.5,8.5 8.7,9.3 l 40.6,9.2 c 3,0.6 5.8,3.8 5.8,6.7 v 9.5 h -133.6 v -10.3 c 0,-2.6 2.6,-5.3 5.2,-5.8 l 41.7,-9.3 c 4.2,-0.9 8,-5.6 8.2,-9.8 L 1344,498 c 0,-3.4 -1.4,-6.1 -7,-7.5 -5.6,-1.4 -17,-6.6 -17,-14.6 v -17.3 c 0,-8.1 6.8,-14.7 15,-14.7 z"
     id="path30"
     inkscape:connector-curvature="0" /><polyline
     style="fill:none;stroke:#c55e8d;stroke-width:10;stroke-linecap:butt"
     points="0,280 1000,280"
     id="polyline32"
     transform="translate(320,20)" /><polygon
     transform="translate(1387,15)"
     points="0,240 4,240 4,450 0,450 "
     style="fill:#ffffff;stroke:none;stroke-linecap:butt"
     id="polygon35" /><path
     style="fill:#6a51b7;stroke-linecap:butt"
     d="m 1402,443.9 h 36.4 c 8.2,0 14.6,6.6 14.6,14.7 v 17.2 c 0,8.1 -11,13.3 -16.7,14.7 -5.6,1.4 -7,4.1 -6.9,7.5 l 2.5,67 c 0.2,4.3 4.5,8.5 8.7,9.3 l 40.6,9.2 c 3,0.6 5.8,3.8 5.8,6.7 v 9.5 h -133.6 v -10.3 c 0,-2.6 2.6,-5.3 5.2,-5.8 l 41.7,-9.3 c 4.2,-0.9 8,-5.6 8.2,-9.8 L 1411,498 c 0,-3.4 -1.4,-6.1 -7,-7.5 -5.6,-1.4 -17,-6.6 -17,-14.6 v -17.3 c 0,-8.1 6.8,-14.7 15,-14.7 z"
     id="path37"
     inkscape:connector-curvature="0" /><polyline
     style="fill:none;stroke:#6a51b7;stroke-width:10;stroke-linecap:butt"
     points="0,240 1067,240"
     id="polyline39"
     transform="translate(320,20)" /><polygon
     transform="translate(1692,15)"
     points="0,200 4,200 4,450 0,450 "
     style="fill:#ffffff;stroke:none;stroke-linecap:butt"
     id="polygon42" /><path
     style="fill:#3e3d97;stroke-linecap:butt"
     d="m 1707,443.9 h 36.4 c 8.2,0 14.6,6.6 14.6,14.7 v 17.2 c 0,8.1 -11,13.3 -16.7,14.7 -5.6,1.4 -7,4.1 -6.9,7.5 l 2.5,67 c 0.2,4.3 4.5,8.5 8.7,9.3 l 40.6,9.2 c 3,0.6 5.8,3.8 5.8,6.7 v 9.5 h -133.6 v -10.3 c 0,-2.6 2.6,-5.3 5.2,-5.8 l 41.7,-9.3 c 4.2,-0.9 8,-5.6 8.2,-9.8 L 1716,498 c 0,-3.4 -1.4,-6.1 -7,-7.5 -5.6,-1.4 -17,-6.6 -17,-14.6 v -17.3 c 0,-8.1 6.8,-14.7 15,-14.7 z"
     id="path44"
     inkscape:connector-curvature="0" /><polyline
     style="fill:none;stroke:#3e3d97;stroke-width:10;stroke-linecap:butt"
     points="0,200 1372,200"
     id="polyline46"
     transform="translate(320,20)" /><polygon
     transform="translate(1755,13)"
     points="0,160 4,160 4,450 0,450 "
     style="fill:#ffffff;stroke:none;stroke-linecap:butt"
     id="polygon49" /><path
     style="fill:#568dd0;stroke-linecap:butt"
     d="m 1770,443.9 h 36.4 c 8.2,0 14.6,6.6 14.6,14.7 v 17.2 c 0,8.1 -11,13.3 -16.7,14.7 -5.6,1.4 -7,4.1 -6.9,7.5 l 2.5,67 c 0.2,4.3 4.5,8.5 8.7,9.3 l 40.6,9.2 c 3,0.6 5.8,3.8 5.8,6.7 v 9.5 h -133.6 v -10.3 c 0,-2.6 2.6,-5.3 5.2,-5.8 l 41.7,-9.3 c 4.2,-0.9 8,-5.6 8.2,-9.8 L 1779,498 c 0,-3.4 -1.4,-6.1 -7,-7.5 -5.6,-1.4 -17,-6.6 -17,-14.6 v -17.3 c 0,-8.1 6.8,-14.7 15,-14.7 z"
     id="path51"
     inkscape:connector-curvature="0" /><polyline
     style="fill:none;stroke:#568dd0;stroke-width:14;stroke-linecap:butt"
     points="0,160 1435,160"
     id="polyline53"
     transform="translate(320,20)" /><polygon
     transform="translate(1840,15)"
     points="0,120 4,120 4,450 0,450 "
     style="fill:#ffffff;stroke:none;stroke-linecap:butt"
     id="polygon56" /><path
     style="fill:#305c31;stroke-linecap:butt"
     d="m 1855,443.9 h 36.4 c 8.2,0 14.6,6.6 14.6,14.7 v 17.2 c 0,8.1 -11,13.3 -16.7,14.7 -5.6,1.4 -7,4.1 -6.9,7.5 l 2.5,67 c 0.2,4.3 4.5,8.5 8.7,9.3 l 40.6,9.2 c 3,0.6 5.8,3.8 5.8,6.7 v 9.5 h -133.6 v -10.3 c 0,-2.6 2.6,-5.3 5.2,-5.8 l 41.7,-9.3 c 4.2,-0.9 8,-5.6 8.2,-9.8 L 1864,498 c 0,-3.4 -1.4,-6.1 -7,-7.5 -5.6,-1.4 -17,-6.6 -17,-14.6 v -17.3 c 0,-8.1 6.8,-14.7 15,-14.7 z"
     id="path58"
     inkscape:connector-curvature="0" /><polyline
     style="fill:none;stroke:#305c31;stroke-width:10;stroke-linecap:butt"
     points="0,120 1520,120"
     id="polyline60"
     transform="translate(320,20)" /><polygon
     transform="translate(1920,15)"
     points="0,80 4,80 4,450 0,450 "
     style="fill:#ffffff;stroke:none;stroke-linecap:butt"
     id="polygon63" /><path
     style="fill:#5abf56;stroke-linecap:butt"
     d="m 1935,443.9 h 36.4 c 8.2,0 14.6,6.6 14.6,14.7 v 17.2 c 0,8.1 -11,13.3 -16.7,14.7 -5.6,1.4 -7,4.1 -6.9,7.5 l 2.5,67 c 0.2,4.3 4.5,8.5 8.7,9.3 l 40.6,9.2 c 3,0.6 5.8,3.8 5.8,6.7 v 9.5 h -133.6 v -10.3 c 0,-2.6 2.6,-5.3 5.2,-5.8 l 41.7,-9.3 c 4.2,-0.9 8,-5.6 8.2,-9.8 L 1944,498 c 0,-3.4 -1.4,-6.1 -7,-7.5 -5.6,-1.4 -17,-6.6 -17,-14.6 v -17.3 c 0,-8.1 6.8,-14.7 15,-14.7 z"
     id="path65"
     inkscape:connector-curvature="0" /><polyline
     style="fill:none;stroke:#5abf56;stroke-width:10;stroke-linecap:butt"
     points="0,80 1600,80"
     id="polyline67"
     transform="translate(320,20)" /><polygon
     transform="translate(1988,15)"
     points="0,40 4,40 4,450 0,450 "
     style="fill:#ffffff;stroke:none;stroke-linecap:butt"
     id="polygon70" /><path
     style="fill:#83dc76;stroke-linecap:butt"
     d="m 2003,443.9 h 36.4 c 8.2,0 14.6,6.6 14.6,14.7 v 17.2 c 0,8.1 -11,13.3 -16.7,14.7 -5.6,1.4 -7,4.1 -6.9,7.5 l 2.5,67 c 0.2,4.3 4.5,8.5 8.7,9.3 l 40.6,9.2 c 3,0.6 5.8,3.8 5.8,6.7 v 9.5 h -133.6 v -10.3 c 0,-2.6 2.6,-5.3 5.2,-5.8 l 41.7,-9.3 c 4.2,-0.9 8,-5.6 8.2,-9.8 L 2012,498 c 0,-3.4 -1.4,-6.1 -7,-7.5 -5.6,-1.4 -17,-6.6 -17,-14.6 v -17.3 c 0,-8.1 6.8,-14.7 15,-14.7 z"
     id="path72"
     inkscape:connector-curvature="0" /><polyline
     style="fill:none;stroke:#83dc76;stroke-width:10;stroke-linecap:butt"
     points="0,40 1668,40"
     id="polyline74"
     transform="translate(320,20)" /><polygon
     transform="translate(1996,15)"
     points="0,0 4,0 4,450 0,450 "
     style="fill:#ffffff;stroke:none;stroke-linecap:butt"
     id="polygon77" /><path
     style="fill:#bbdf94;stroke-linecap:butt"
     d="m 2011,443.9 h 36.4 c 8.2,0 14.6,6.6 14.6,14.7 v 17.2 c 0,8.1 -11,13.3 -16.7,14.7 -5.6,1.4 -7,4.1 -6.9,7.5 l 2.5,67 c 0.2,4.3 4.5,8.5 8.7,9.3 l 40.6,9.2 c 3,0.6 5.8,3.8 5.8,6.7 v 9.5 h -133.6 v -10.3 c 0,-2.6 2.6,-5.3 5.2,-5.8 l 41.7,-9.3 c 4.2,-0.9 8,-5.6 8.2,-9.8 L 2020,498 c 0,-3.4 -1.4,-6.1 -7,-7.5 -5.6,-1.4 -17,-6.6 -17,-14.6 v -17.3 c 0,-8.1 6.8,-14.7 15,-14.7 z"
     id="path79"
     inkscape:connector-curvature="0" /><polyline
     style="fill:none;stroke:#bbdf94;stroke-width:10;stroke-linecap:butt"
     points="0,0 1676,0"
     id="polyline81"
     transform="translate(320,20)" /><text
     transform="translate(5,30)"
     style="font-size:36;font-family:'Courier New', monospace;fill:#ffffff;"
     id="text108"><!--
		--><tspan
       x="0"
       y="0"
       id="tspan86"
       style="fill:#ffffff;">1676 mm 5’6&quot;</tspan><!--
		--><tspan
       x="0"
       y="40"
       id="tspan88"
       style="fill:#ffffff;">1668 mm 5’5⅔&quot;</tspan><!--
		--><tspan
       x="0"
       y="80"
       id="tspan90"
       style="fill:#ffffff;">1600 mm 5’3&quot;</tspan><!--
		--><tspan
       x="0"
       y="120"
       id="tspan92"
       style="fill:#ffffff;">1520 mm 4’11⅚&quot;</tspan><!--
		--><tspan
       x="0"
       y="160"
       id="tspan94"
       style="fill:#ffffff;">1435 mm 4’8½&quot;</tspan><!--
		--><tspan
       x="0"
       y="200"
       id="tspan96"
       style="fill:#ffffff;">1372 mm 4’6&quot;</tspan><!--
		--><tspan
       x="0"
       y="240"
       id="tspan98"
       style="fill:#ffffff;">1067 mm 3’6&quot;</tspan><!--
		--><tspan
       x="0"
       y="280"
       id="tspan100"
       style="fill:#ffffff;">1000 mm 3’3⅜&quot;</tspan><!--
		--><tspan
       x="0"
       y="320"
       id="tspan102"
       style="fill:#ffffff;"> 914 mm 3’</tspan><!--
		--><tspan
       x="0"
       y="360"
       id="tspan104"
       style="fill:#ffffff;"> 762 mm 2’6&quot;</tspan><!--
		--><tspan
       x="0"
       y="400"
       id="tspan106"
       style="fill:#ffffff;"> 600 mm 1’11⅝&quot;</tspan><!--
	--></text>
</svg>