<?xml version="1.0" encoding="UTF-8" standalone="no"?>
<!-- Created with Inkscape (http://www.inkscape.org/) -->

<svg
   xmlns:dc="http://purl.org/dc/elements/1.1/"
   xmlns:cc="http://creativecommons.org/ns#"
   xmlns:rdf="http://www.w3.org/1999/02/22-rdf-syntax-ns#"
   xmlns:svg="http://www.w3.org/2000/svg"
   xmlns="http://www.w3.org/2000/svg"
   xmlns:sodipodi="http://sodipodi.sourceforge.net/DTD/sodipodi-0.dtd"
   xmlns:inkscape="http://www.inkscape.org/namespaces/inkscape"
   width="177.38486mm"
   height="142.9532mm"
   viewBox="0 0 177.38485 142.9532"
   version="1.1"
   id="svg2257"
   inkscape:version="0.92.2 5c3e80d, 2017-08-06"
   sodipodi:docname="skylake-avx-square-white.svg">
  <defs
     id="defs2251">
    <clipPath
       id="clipPath2841"
       clipPathUnits="userSpaceOnUse">
      <path
         inkscape:connector-curvature="0"
         id="path2839"
         d="m 104.78,51.64 h 547.9 v 356.24 h -547.9 z" />
    </clipPath>
    <clipPath
       id="clipPath2851"
       clipPathUnits="userSpaceOnUse">
      <path
         inkscape:connector-curvature="0"
         id="path2849"
         d="m 104.78,51.64 h 547.9 v 356.24 h -547.9 z" />
    </clipPath>
    <clipPath
       id="clipPath2861"
       clipPathUnits="userSpaceOnUse">
      <path
         inkscape:connector-curvature="0"
         id="path2859"
         d="m 104.78,51.64 h 547.9 v 356.24 h -547.9 z" />
    </clipPath>
    <clipPath
       id="clipPath2871"
       clipPathUnits="userSpaceOnUse">
      <path
         inkscape:connector-curvature="0"
         id="path2869"
         d="m 104.78,51.64 h 547.9 v 356.24 h -547.9 z" />
    </clipPath>
    <clipPath
       id="clipPath2881"
       clipPathUnits="userSpaceOnUse">
      <path
         inkscape:connector-curvature="0"
         id="path2879"
         d="m 104.78,51.64 h 547.9 v 356.24 h -547.9 z" />
    </clipPath>
    <clipPath
       id="clipPath2891"
       clipPathUnits="userSpaceOnUse">
      <path
         inkscape:connector-curvature="0"
         id="path2889"
         d="m 104.78,51.64 h 547.9 v 356.24 h -547.9 z" />
    </clipPath>
    <clipPath
       id="clipPath2901"
       clipPathUnits="userSpaceOnUse">
      <path
         inkscape:connector-curvature="0"
         id="path2899"
         d="m 104.78,51.64 h 547.9 v 356.24 h -547.9 z" />
    </clipPath>
    <clipPath
       id="clipPath2911"
       clipPathUnits="userSpaceOnUse">
      <path
         inkscape:connector-curvature="0"
         id="path2909"
         d="m 104.78,51.64 h 547.9 v 356.24 h -547.9 z" />
    </clipPath>
    <clipPath
       id="clipPath2921"
       clipPathUnits="userSpaceOnUse">
      <path
         inkscape:connector-curvature="0"
         id="path2919"
         d="m 104.78,51.64 h 547.9 v 356.24 h -547.9 z" />
    </clipPath>
    <clipPath
       id="clipPath2931"
       clipPathUnits="userSpaceOnUse">
      <path
         inkscape:connector-curvature="0"
         id="path2929"
         d="m 104.78,51.64 h 547.9 v 356.24 h -547.9 z" />
    </clipPath>
    <clipPath
       id="clipPath2941"
       clipPathUnits="userSpaceOnUse">
      <path
         inkscape:connector-curvature="0"
         id="path2939"
         d="m 104.78,51.64 h 547.9 v 356.24 h -547.9 z" />
    </clipPath>
    <clipPath
       id="clipPath2951"
       clipPathUnits="userSpaceOnUse">
      <path
         inkscape:connector-curvature="0"
         id="path2949"
         d="m 104.78,51.64 h 547.9 v 356.24 h -547.9 z" />
    </clipPath>
    <clipPath
       id="clipPath2961"
       clipPathUnits="userSpaceOnUse">
      <path
         inkscape:connector-curvature="0"
         id="path2959"
         d="m 104.78,51.64 h 547.9 v 356.24 h -547.9 z" />
    </clipPath>
    <clipPath
       id="clipPath2971"
       clipPathUnits="userSpaceOnUse">
      <path
         inkscape:connector-curvature="0"
         id="path2969"
         d="m 104.78,51.64 h 547.9 v 356.24 h -547.9 z" />
    </clipPath>
    <clipPath
       id="clipPath2981"
       clipPathUnits="userSpaceOnUse">
      <path
         inkscape:connector-curvature="0"
         id="path2979"
         d="m 104.78,51.64 h 547.9 v 356.24 h -547.9 z" />
    </clipPath>
    <clipPath
       id="clipPath2991"
       clipPathUnits="userSpaceOnUse">
      <path
         inkscape:connector-curvature="0"
         id="path2989"
         d="m 104.78,51.64 h 547.9 v 356.24 h -547.9 z" />
    </clipPath>
    <clipPath
       id="clipPath3001"
       clipPathUnits="userSpaceOnUse">
      <path
         inkscape:connector-curvature="0"
         id="path2999"
         d="m 104.78,51.64 h 547.9 v 356.24 h -547.9 z" />
    </clipPath>
    <clipPath
       id="clipPath3011"
       clipPathUnits="userSpaceOnUse">
      <path
         inkscape:connector-curvature="0"
         id="path3009"
         d="m 104.78,51.64 h 547.9 v 356.24 h -547.9 z" />
    </clipPath>
    <clipPath
       id="clipPath3021"
       clipPathUnits="userSpaceOnUse">
      <path
         inkscape:connector-curvature="0"
         id="path3019"
         d="m 104.78,51.64 h 547.9 v 356.24 h -547.9 z" />
    </clipPath>
    <clipPath
       id="clipPath3031"
       clipPathUnits="userSpaceOnUse">
      <path
         inkscape:connector-curvature="0"
         id="path3029"
         d="m 104.78,51.64 h 547.9 v 356.24 h -547.9 z" />
    </clipPath>
    <clipPath
       id="clipPath3041"
       clipPathUnits="userSpaceOnUse">
      <path
         inkscape:connector-curvature="0"
         id="path3039"
         d="m 104.78,51.64 h 547.9 v 356.24 h -547.9 z" />
    </clipPath>
    <clipPath
       id="clipPath3051"
       clipPathUnits="userSpaceOnUse">
      <path
         inkscape:connector-curvature="0"
         id="path3049"
         d="m 104.78,51.64 h 547.9 v 356.24 h -547.9 z" />
    </clipPath>
    <clipPath
       id="clipPath3061"
       clipPathUnits="userSpaceOnUse">
      <path
         inkscape:connector-curvature="0"
         id="path3059"
         d="m 104.78,51.64 h 547.9 v 356.24 h -547.9 z" />
    </clipPath>
    <clipPath
       id="clipPath3071"
       clipPathUnits="userSpaceOnUse">
      <path
         inkscape:connector-curvature="0"
         id="path3069"
         d="m 104.78,51.64 h 547.9 v 356.24 h -547.9 z" />
    </clipPath>
  </defs>
  <sodipodi:namedview
     id="base"
     pagecolor="#ffffff"
     bordercolor="#666666"
     borderopacity="1.0"
     inkscape:pageopacity="0.0"
     inkscape:pageshadow="2"
     inkscape:zoom="0.98994949"
     inkscape:cx="552.7226"
     inkscape:cy="317.88146"
     inkscape:document-units="mm"
     inkscape:current-layer="layer1"
     showgrid="false"
     fit-margin-top="0"
     fit-margin-left="0"
     fit-margin-right="0"
     fit-margin-bottom="0"
     inkscape:window-width="1920"
     inkscape:window-height="964"
     inkscape:window-x="0"
     inkscape:window-y="1"
     inkscape:window-maximized="1"
     inkscape:pagecheckerboard="true" />
  <metadata
     id="metadata2254">
    <rdf:RDF>
      <cc:Work
         rdf:about="">
        <dc:format>image/svg+xml</dc:format>
        <dc:type
           rdf:resource="http://purl.org/dc/dcmitype/StillImage" />
        <dc:title></dc:title>
      </cc:Work>
    </rdf:RDF>
  </metadata>
  <g
     inkscape:label="Layer 1"
     inkscape:groupmode="layer"
     id="layer1"
     transform="translate(-245.43274,-86.292892)">
    <g
       id="g2835"
       transform="matrix(0.26758847,0,0,-0.35277777,248.47727,230.325)">
      <g
         id="g2837"
         clip-path="url(#clipPath2841)">
        <path
           d="m 129.68454,51.64 h 14.64974 v 44.71935 h -14.64974 z"
           style="fill:#1f77b4;fill-opacity:1;fill-rule:nonzero;stroke:#ffffff;stroke-width:1;stroke-linecap:butt;stroke-linejoin:miter;stroke-miterlimit:10;stroke-dasharray:none;stroke-opacity:1"
           id="path2843"
           inkscape:connector-curvature="0" />
      </g>
    </g>
    <g
       id="g2845"
       transform="matrix(0.26758847,0,0,-0.35277777,248.47727,230.325)">
      <g
         id="g2847"
         clip-path="url(#clipPath2851)">
        <path
           d="m 217.58294,51.64 h 14.64973 v 46.865536 h -14.64973 z"
           style="fill:#1f77b4;fill-opacity:1;fill-rule:nonzero;stroke:#ffffff;stroke-width:1;stroke-linecap:butt;stroke-linejoin:miter;stroke-miterlimit:10;stroke-dasharray:none;stroke-opacity:1"
           id="path2853"
           inkscape:connector-curvature="0" />
      </g>
    </g>
    <g
       id="g2855"
       transform="matrix(0.26758847,0,0,-0.35277777,248.47727,230.325)">
      <g
         id="g2857"
         clip-path="url(#clipPath2861)">
        <path
           d="m 305.48134,51.64 h 14.64973 v 52.98832 h -14.64973 z"
           style="fill:#1f77b4;fill-opacity:1;fill-rule:nonzero;stroke:#ffffff;stroke-width:1;stroke-linecap:butt;stroke-linejoin:miter;stroke-miterlimit:10;stroke-dasharray:none;stroke-opacity:1"
           id="path2863"
           inkscape:connector-curvature="0" />
      </g>
    </g>
    <g
       id="g2865"
       transform="matrix(0.26758847,0,0,-0.35277777,248.47727,230.325)">
      <g
         id="g2867"
         clip-path="url(#clipPath2871)">
        <path
           d="m 393.37973,51.64 h 14.64974 v 68.24498 h -14.64974 z"
           style="fill:#1f77b4;fill-opacity:1;fill-rule:nonzero;stroke:#ffffff;stroke-width:1;stroke-linecap:butt;stroke-linejoin:miter;stroke-miterlimit:10;stroke-dasharray:none;stroke-opacity:1"
           id="path2873"
           inkscape:connector-curvature="0" />
      </g>
    </g>
    <g
       id="g2875"
       transform="matrix(0.26758847,0,0,-0.35277777,248.47727,230.325)">
      <g
         id="g2877"
         clip-path="url(#clipPath2881)">
        <path
           d="m 481.27813,51.64 h 14.64973 v 67.00276 h -14.64973 z"
           style="fill:#1f77b4;fill-opacity:1;fill-rule:nonzero;stroke:#ffffff;stroke-width:1;stroke-linecap:butt;stroke-linejoin:miter;stroke-miterlimit:10;stroke-dasharray:none;stroke-opacity:1"
           id="path2883"
           inkscape:connector-curvature="0" />
      </g>
    </g>
    <g
       id="g2885"
       transform="matrix(0.26758847,0,0,-0.35277777,248.47727,230.325)">
      <g
         id="g2887"
         clip-path="url(#clipPath2891)">
        <path
           d="m 569.17652,51.64 h 14.64974 v 72.59033 h -14.64974 z"
           style="fill:#1f77b4;fill-opacity:1;fill-rule:nonzero;stroke:#ffffff;stroke-width:1;stroke-linecap:butt;stroke-linejoin:miter;stroke-miterlimit:10;stroke-dasharray:none;stroke-opacity:1"
           id="path2893"
           inkscape:connector-curvature="0" />
      </g>
    </g>
    <g
       id="g2895"
       transform="matrix(0.26758847,0,0,-0.35277777,248.47727,230.325)">
      <g
         id="g2897"
         clip-path="url(#clipPath2901)">
        <path
           d="m 144.33428,51.64 h 14.64973 v 43.407019 h -14.64973 z"
           style="fill:#ff7f0e;fill-opacity:1;fill-rule:nonzero;stroke:#ffffff;stroke-width:1;stroke-linecap:butt;stroke-linejoin:miter;stroke-miterlimit:10;stroke-dasharray:none;stroke-opacity:1"
           id="path2903"
           inkscape:connector-curvature="0" />
      </g>
    </g>
    <g
       id="g2905"
       transform="matrix(0.26758847,0,0,-0.35277777,248.47727,230.325)">
      <g
         id="g2907"
         clip-path="url(#clipPath2911)">
        <path
           d="m 232.23267,51.64 h 14.64974 v 47.531871 h -14.64974 z"
           style="fill:#ff7f0e;fill-opacity:1;fill-rule:nonzero;stroke:#ffffff;stroke-width:1;stroke-linecap:butt;stroke-linejoin:miter;stroke-miterlimit:10;stroke-dasharray:none;stroke-opacity:1"
           id="path2913"
           inkscape:connector-curvature="0" />
      </g>
    </g>
    <g
       id="g2915"
       transform="matrix(0.26758847,0,0,-0.35277777,248.47727,230.325)">
      <g
         id="g2917"
         clip-path="url(#clipPath2921)">
        <path
           d="m 320.13107,51.64 h 14.64973 v 52.86094 h -14.64973 z"
           style="fill:#ff7f0e;fill-opacity:1;fill-rule:nonzero;stroke:#ffffff;stroke-width:1;stroke-linecap:butt;stroke-linejoin:miter;stroke-miterlimit:10;stroke-dasharray:none;stroke-opacity:1"
           id="path2923"
           inkscape:connector-curvature="0" />
      </g>
    </g>
    <g
       id="g2925"
       transform="matrix(0.26758847,0,0,-0.35277777,248.47727,230.325)">
      <g
         id="g2927"
         clip-path="url(#clipPath2931)">
        <path
           d="m 408.02947,51.64 h 14.64973 v 68.31562 h -14.64973 z"
           style="fill:#ff7f0e;fill-opacity:1;fill-rule:nonzero;stroke:#ffffff;stroke-width:1;stroke-linecap:butt;stroke-linejoin:miter;stroke-miterlimit:10;stroke-dasharray:none;stroke-opacity:1"
           id="path2933"
           inkscape:connector-curvature="0" />
      </g>
    </g>
    <g
       id="g2935"
       transform="matrix(0.26758847,0,0,-0.35277777,248.47727,230.325)">
      <g
         id="g2937"
         clip-path="url(#clipPath2941)">
        <path
           d="m 495.92786,51.64 h 14.64973 v 68.6496 h -14.64973 z"
           style="fill:#ff7f0e;fill-opacity:1;fill-rule:nonzero;stroke:#ffffff;stroke-width:1;stroke-linecap:butt;stroke-linejoin:miter;stroke-miterlimit:10;stroke-dasharray:none;stroke-opacity:1"
           id="path2943"
           inkscape:connector-curvature="0" />
      </g>
    </g>
    <g
       id="g2945"
       transform="matrix(0.26758847,0,0,-0.35277777,248.47727,230.325)">
      <g
         id="g2947"
         clip-path="url(#clipPath2951)">
        <path
           d="m 583.82626,51.64 h 14.64973 v 73.08219 h -14.64973 z"
           style="fill:#ff7f0e;fill-opacity:1;fill-rule:nonzero;stroke:#ffffff;stroke-width:1;stroke-linecap:butt;stroke-linejoin:miter;stroke-miterlimit:10;stroke-dasharray:none;stroke-opacity:1"
           id="path2953"
           inkscape:connector-curvature="0" />
      </g>
    </g>
    <g
       id="g2955"
       transform="matrix(0.26758847,0,0,-0.35277777,248.47727,230.325)">
      <g
         id="g2957"
         clip-path="url(#clipPath2961)">
        <path
           d="m 158.98401,51.64 h 14.64973 v 151.32593 h -14.64973 z"
           style="fill:#2ca02c;fill-opacity:1;fill-rule:nonzero;stroke:#ffffff;stroke-width:1;stroke-linecap:butt;stroke-linejoin:miter;stroke-miterlimit:10;stroke-dasharray:none;stroke-opacity:1"
           id="path2963"
           inkscape:connector-curvature="0" />
      </g>
    </g>
    <g
       id="g2965"
       transform="matrix(0.26758847,0,0,-0.35277777,248.47727,230.325)">
      <g
         id="g2967"
         clip-path="url(#clipPath2971)">
        <path
           d="m 246.88241,51.64 h 14.64973 v 167.32332 h -14.64973 z"
           style="fill:#2ca02c;fill-opacity:1;fill-rule:nonzero;stroke:#ffffff;stroke-width:1;stroke-linecap:butt;stroke-linejoin:miter;stroke-miterlimit:10;stroke-dasharray:none;stroke-opacity:1"
           id="path2973"
           inkscape:connector-curvature="0" />
      </g>
    </g>
    <g
       id="g2975"
       transform="matrix(0.26758847,0,0,-0.35277777,248.47727,230.325)">
      <g
         id="g2977"
         clip-path="url(#clipPath2981)">
        <path
           d="m 334.7808,51.64 h 14.64973 V 240.79287 H 334.7808 Z"
           style="fill:#2ca02c;fill-opacity:1;fill-rule:nonzero;stroke:#ffffff;stroke-width:1;stroke-linecap:butt;stroke-linejoin:miter;stroke-miterlimit:10;stroke-dasharray:none;stroke-opacity:1"
           id="path2983"
           inkscape:connector-curvature="0" />
      </g>
    </g>
    <g
       id="g2985"
       transform="matrix(0.26758847,0,0,-0.35277777,248.47727,230.325)">
      <g
         id="g2987"
         clip-path="url(#clipPath2991)">
        <path
           d="m 422.6792,51.64 h 14.64973 V 313.0974 H 422.6792 Z"
           style="fill:#2ca02c;fill-opacity:1;fill-rule:nonzero;stroke:#ffffff;stroke-width:1;stroke-linecap:butt;stroke-linejoin:miter;stroke-miterlimit:10;stroke-dasharray:none;stroke-opacity:1"
           id="path2993"
           inkscape:connector-curvature="0" />
      </g>
    </g>
    <g
       id="g2995"
       transform="matrix(0.26758847,0,0,-0.35277777,248.47727,230.325)">
      <g
         id="g2997"
         clip-path="url(#clipPath3001)">
        <path
           d="m 510.57759,51.64 h 14.64974 v 297.8655 h -14.64974 z"
           style="fill:#2ca02c;fill-opacity:1;fill-rule:nonzero;stroke:#ffffff;stroke-width:1;stroke-linecap:butt;stroke-linejoin:miter;stroke-miterlimit:10;stroke-dasharray:none;stroke-opacity:1"
           id="path3003"
           inkscape:connector-curvature="0" />
      </g>
    </g>
    <g
       id="g3005"
       transform="matrix(0.26758847,0,0,-0.35277777,248.47727,230.325)">
      <g
         id="g3007"
         clip-path="url(#clipPath3011)">
        <path
           d="m 598.47599,51.64 h 14.64973 v 332.67653 h -14.64973 z"
           style="fill:#2ca02c;fill-opacity:1;fill-rule:nonzero;stroke:#ffffff;stroke-width:1;stroke-linecap:butt;stroke-linejoin:miter;stroke-miterlimit:10;stroke-dasharray:none;stroke-opacity:1"
           id="path3013"
           inkscape:connector-curvature="0" />
      </g>
    </g>
    <g
       id="g3015"
       transform="matrix(0.26758847,0,0,-0.35277777,248.47727,230.325)">
      <g
         id="g3017"
         clip-path="url(#clipPath3021)">
        <path
           d="m 173.63374,51.64 h 14.64974 v 151.72895 h -14.64974 z"
           style="fill:#d62728;fill-opacity:1;fill-rule:nonzero;stroke:#ffffff;stroke-width:1;stroke-linecap:butt;stroke-linejoin:miter;stroke-miterlimit:10;stroke-dasharray:none;stroke-opacity:1"
           id="path3023"
           inkscape:connector-curvature="0" />
      </g>
    </g>
    <g
       id="g3025"
       transform="matrix(0.26758847,0,0,-0.35277777,248.47727,230.325)">
      <g
         id="g3027"
         clip-path="url(#clipPath3031)">
        <path
           d="m 261.53214,51.64 h 14.64973 v 169.4588 h -14.64973 z"
           style="fill:#d62728;fill-opacity:1;fill-rule:nonzero;stroke:#ffffff;stroke-width:1;stroke-linecap:butt;stroke-linejoin:miter;stroke-miterlimit:10;stroke-dasharray:none;stroke-opacity:1"
           id="path3033"
           inkscape:connector-curvature="0" />
      </g>
    </g>
    <g
       id="g3035"
       transform="matrix(0.26758847,0,0,-0.35277777,248.47727,230.325)">
      <g
         id="g3037"
         clip-path="url(#clipPath3041)">
        <path
           d="m 349.43053,51.64 h 14.64974 v 196.56979 h -14.64974 z"
           style="fill:#d62728;fill-opacity:1;fill-rule:nonzero;stroke:#ffffff;stroke-width:1;stroke-linecap:butt;stroke-linejoin:miter;stroke-miterlimit:10;stroke-dasharray:none;stroke-opacity:1"
           id="path3043"
           inkscape:connector-curvature="0" />
      </g>
    </g>
    <g
       id="g3045"
       transform="matrix(0.26758847,0,0,-0.35277777,248.47727,230.325)">
      <g
         id="g3047"
         clip-path="url(#clipPath3051)">
        <path
           d="m 437.32893,51.64 h 14.64973 v 264.20784 h -14.64973 z"
           style="fill:#d62728;fill-opacity:1;fill-rule:nonzero;stroke:#ffffff;stroke-width:1;stroke-linecap:butt;stroke-linejoin:miter;stroke-miterlimit:10;stroke-dasharray:none;stroke-opacity:1"
           id="path3053"
           inkscape:connector-curvature="0" />
      </g>
    </g>
    <g
       id="g3055"
       transform="matrix(0.26758847,0,0,-0.35277777,248.47727,230.325)">
      <g
         id="g3057"
         clip-path="url(#clipPath3061)">
        <path
           d="m 525.22733,51.64 h 14.64973 v 302.26973 h -14.64973 z"
           style="fill:#d62728;fill-opacity:1;fill-rule:nonzero;stroke:#ffffff;stroke-width:1;stroke-linecap:butt;stroke-linejoin:miter;stroke-miterlimit:10;stroke-dasharray:none;stroke-opacity:1"
           id="path3063"
           inkscape:connector-curvature="0" />
      </g>
    </g>
    <g
       id="g3065"
       transform="matrix(0.26758847,0,0,-0.35277777,248.47727,230.325)">
      <g
         id="g3067"
         clip-path="url(#clipPath3071)">
        <path
           d="m 613.12572,51.64 h 14.64974 v 339.27619 h -14.64974 z"
           style="fill:#d62728;fill-opacity:1;fill-rule:nonzero;stroke:#ffffff;stroke-width:1;stroke-linecap:butt;stroke-linejoin:miter;stroke-miterlimit:10;stroke-dasharray:none;stroke-opacity:1"
           id="path3073"
           inkscape:connector-curvature="0" />
      </g>
    </g>
    <g
       id="g1660"
       style="stroke:#ffffff">
      <path
         d="m 290.93364,212.10756 v 1.23472"
         style="fill:#000000;fill-opacity:1;fill-rule:nonzero;stroke:#ffffff;stroke-width:0.28222221;stroke-linecap:butt;stroke-linejoin:round;stroke-miterlimit:10;stroke-dasharray:none;stroke-opacity:1"
         id="path3077"
         inkscape:connector-curvature="0" />
      <path
         d="m 314.46805,212.10756 v 1.23472"
         style="fill:#000000;fill-opacity:1;fill-rule:nonzero;stroke:#ffffff;stroke-width:0.28222221;stroke-linecap:butt;stroke-linejoin:round;stroke-miterlimit:10;stroke-dasharray:none;stroke-opacity:1"
         id="path3083"
         inkscape:connector-curvature="0" />
      <path
         d="m 338.00244,212.10756 v 1.23472"
         style="fill:#000000;fill-opacity:1;fill-rule:nonzero;stroke:#ffffff;stroke-width:0.28222221;stroke-linecap:butt;stroke-linejoin:round;stroke-miterlimit:10;stroke-dasharray:none;stroke-opacity:1"
         id="path3089"
         inkscape:connector-curvature="0" />
      <path
         d="m 385.07125,212.10756 v 1.23472"
         style="fill:#000000;fill-opacity:1;fill-rule:nonzero;stroke:#ffffff;stroke-width:0.28222221;stroke-linecap:butt;stroke-linejoin:round;stroke-miterlimit:10;stroke-dasharray:none;stroke-opacity:1"
         id="path3095"
         inkscape:connector-curvature="0" />
      <path
         d="m 361.53685,212.10756 v 1.23472"
         style="fill:#000000;fill-opacity:1;fill-rule:nonzero;stroke:#ffffff;stroke-width:0.28222221;stroke-linecap:butt;stroke-linejoin:round;stroke-miterlimit:10;stroke-dasharray:none;stroke-opacity:1"
         id="path3101"
         inkscape:connector-curvature="0" />
      <path
         d="m 408.60564,212.10756 v 1.23472"
         style="fill:#000000;fill-opacity:1;fill-rule:nonzero;stroke:#ffffff;stroke-width:0.28222221;stroke-linecap:butt;stroke-linejoin:round;stroke-miterlimit:10;stroke-dasharray:none;stroke-opacity:1"
         id="path3107"
         inkscape:connector-curvature="0" />
      <path
         d="m 274.39358,212.10756 h -1.23472"
         style="fill:#000000;fill-opacity:1;fill-rule:nonzero;stroke:#ffffff;stroke-width:0.28222221;stroke-linecap:butt;stroke-linejoin:round;stroke-miterlimit:10;stroke-dasharray:none;stroke-opacity:1"
         id="path3113"
         inkscape:connector-curvature="0" />
      <path
         d="m 274.39358,193.22659 h -1.23472"
         style="fill:#000000;fill-opacity:1;fill-rule:nonzero;stroke:#ffffff;stroke-width:0.28222221;stroke-linecap:butt;stroke-linejoin:round;stroke-miterlimit:10;stroke-dasharray:none;stroke-opacity:1"
         id="path3119"
         inkscape:connector-curvature="0" />
      <path
         d="m 274.39358,174.34562 h -1.23472"
         style="fill:#000000;fill-opacity:1;fill-rule:nonzero;stroke:#ffffff;stroke-width:0.28222221;stroke-linecap:butt;stroke-linejoin:round;stroke-miterlimit:10;stroke-dasharray:none;stroke-opacity:1"
         id="path3125"
         inkscape:connector-curvature="0" />
      <path
         d="m 274.39358,155.46465 h -1.23472"
         style="fill:#000000;fill-opacity:1;fill-rule:nonzero;stroke:#ffffff;stroke-width:0.28222221;stroke-linecap:butt;stroke-linejoin:round;stroke-miterlimit:10;stroke-dasharray:none;stroke-opacity:1"
         id="path3131"
         inkscape:connector-curvature="0" />
      <path
         d="m 274.39358,136.58368 h -1.23472"
         style="fill:#000000;fill-opacity:1;fill-rule:nonzero;stroke:#ffffff;stroke-width:0.28222221;stroke-linecap:butt;stroke-linejoin:round;stroke-miterlimit:10;stroke-dasharray:none;stroke-opacity:1"
         id="path3137"
         inkscape:connector-curvature="0" />
      <path
         d="m 274.39358,117.70272 h -1.23472"
         style="fill:#000000;fill-opacity:1;fill-rule:nonzero;stroke:#ffffff;stroke-width:0.28222221;stroke-linecap:butt;stroke-linejoin:round;stroke-miterlimit:10;stroke-dasharray:none;stroke-opacity:1"
         id="path3143"
         inkscape:connector-curvature="0" />
      <path
         d="m 274.39358,98.821749 h -1.23472"
         style="fill:#000000;fill-opacity:1;fill-rule:nonzero;stroke:#ffffff;stroke-width:0.28222221;stroke-linecap:butt;stroke-linejoin:round;stroke-miterlimit:10;stroke-dasharray:none;stroke-opacity:1"
         id="path3149"
         inkscape:connector-curvature="0" />
      <path
         d="M 274.39358,212.10756 V 86.434003"
         style="fill:none;stroke:#ffffff;stroke-width:0.28222221;stroke-linecap:square;stroke-linejoin:miter;stroke-miterlimit:10;stroke-dasharray:none;stroke-opacity:1"
         id="path3159"
         inkscape:connector-curvature="0" />
      <path
         d="M 422.67649,212.10756 V 86.434003"
         style="fill:none;stroke:#ffffff;stroke-width:0.28222221;stroke-linecap:square;stroke-linejoin:miter;stroke-miterlimit:10;stroke-dasharray:none;stroke-opacity:1"
         id="path3161"
         inkscape:connector-curvature="0" />
      <path
         sodipodi:nodetypes="cc"
         d="M 274.39358,212.10756 H 422.67649"
         style="fill:none;stroke:#ffffff;stroke-width:0.28222221;stroke-linecap:square;stroke-linejoin:miter;stroke-miterlimit:10;stroke-dasharray:none;stroke-opacity:1"
         id="path3163"
         inkscape:connector-curvature="0" />
      <path
         sodipodi:nodetypes="cc"
         d="M 274.39358,86.434003 H 422.67649"
         style="fill:none;stroke:#ffffff;stroke-width:0.28222221;stroke-linecap:square;stroke-linejoin:miter;stroke-miterlimit:10;stroke-dasharray:none;stroke-opacity:1"
         id="path3165"
         inkscape:connector-curvature="0" />
    </g>
    <path
       inkscape:connector-curvature="0"
       id="path3167"
       style="fill:#1f77b4;fill-opacity:1;fill-rule:nonzero;stroke:#ffffff;stroke-width:0.27439582;stroke-linecap:butt;stroke-linejoin:miter;stroke-miterlimit:10;stroke-dasharray:none;stroke-opacity:1"
       d="m 279.11688,98.575681 h 8.51986 v -4.948925 h -8.51986 z" />
    <path
       inkscape:connector-curvature="0"
       id="path3173"
       style="fill:#ff7f0e;fill-opacity:1;fill-rule:nonzero;stroke:#ffffff;stroke-width:0.27439582;stroke-linecap:butt;stroke-linejoin:miter;stroke-miterlimit:10;stroke-dasharray:none;stroke-opacity:1"
       d="m 279.11688,109.81018 h 8.51986 v -4.94892 h -8.51986 z" />
    <path
       inkscape:connector-curvature="0"
       id="path3179"
       style="fill:#2ca02c;fill-opacity:1;fill-rule:nonzero;stroke:#ffffff;stroke-width:0.27439582;stroke-linecap:butt;stroke-linejoin:miter;stroke-miterlimit:10;stroke-dasharray:none;stroke-opacity:1"
       d="m 279.11688,121.04468 h 8.51986 v -4.94893 h -8.51986 z" />
    <path
       inkscape:connector-curvature="0"
       id="path3185"
       style="fill:#d62728;fill-opacity:1;fill-rule:nonzero;stroke:#ffffff;stroke-width:0.27439582;stroke-linecap:butt;stroke-linejoin:miter;stroke-miterlimit:10;stroke-dasharray:none;stroke-opacity:1"
       d="m 279.11688,132.27918 h 8.51986 v -4.94892 h -8.51986 z" />
    <path
       style="font-variant:normal;font-weight:normal;font-size:medium;font-family:Futura;-inkscape-font-specification:Futura-Book;writing-mode:lr-tb;fill:#ffffff;fill-opacity:1;fill-rule:nonzero;stroke:none;stroke-width:0.35277778"
       inkscape:connector-curvature="0"
       id="path3380"
       d="m 291.07828,215.62827 v 4.76956 h 0.59267 v -5.31989 h -1.16417 l -0.31045,0.55033 z" />
    <path
       style="font-variant:normal;font-weight:normal;font-size:medium;font-family:Futura;-inkscape-font-specification:Futura-Book;writing-mode:lr-tb;fill:#ffffff;fill-opacity:1;fill-rule:nonzero;stroke:none;stroke-width:0.35277778"
       inkscape:connector-curvature="0"
       id="path3391"
       d="m 313.94593,219.8475 1.8415,-2.16606 c 0.27517,-0.3175 0.40217,-0.69144 0.40217,-1.12183 0,-0.92428 -0.78317,-1.57339 -1.67217,-1.57339 -0.93839,0 -1.62278,0.71261 -1.64394,1.64394 h 0.59266 c 0.0141,-0.62089 0.43039,-1.09361 1.07245,-1.09361 0.57855,0 1.05833,0.43745 1.05833,1.03011 0,0.34573 -0.14816,0.635 -0.35983,0.889 l -2.49061,2.94217 h 3.44311 v -0.55033 z" />
    <path
       style="font-variant:normal;font-weight:normal;font-size:medium;font-family:Futura;-inkscape-font-specification:Futura-Book;writing-mode:lr-tb;fill:#ffffff;fill-opacity:1;fill-rule:nonzero;stroke:none;stroke-width:0.35277778"
       inkscape:connector-curvature="0"
       id="path3402"
       d="m 337.89662,217.879 c 0.64911,-0.0212 1.12888,0.3175 1.12888,0.99483 0,0.58561 -0.4445,1.06539 -1.03716,1.06539 -0.53622,0 -0.99484,-0.381 -1.02306,-0.92428 h -0.57855 c 0.0141,0.889 0.71966,1.47461 1.58044,1.47461 0.91017,0 1.651,-0.64911 1.651,-1.58044 0,-0.54328 -0.24694,-1.07245 -0.762,-1.30528 0.43039,-0.21872 0.68439,-0.69144 0.68439,-1.16417 0,-0.87489 -0.65617,-1.45344 -1.50989,-1.45344 -0.87489,0 -1.38994,0.55739 -1.47461,1.40405 h 0.58561 c 0.0494,-0.50094 0.34572,-0.85372 0.87489,-0.85372 0.55739,0 0.93133,0.36689 0.93133,0.93134 0,0.67027 -0.48683,0.83961 -1.05127,0.86077 z" />
    <path
       style="font-variant:normal;font-weight:normal;font-size:medium;font-family:Futura;-inkscape-font-specification:Futura-Book;writing-mode:lr-tb;fill:#ffffff;fill-opacity:1;fill-rule:nonzero;stroke:none;stroke-width:0.35277778"
       inkscape:connector-curvature="0"
       id="path3413"
       d="m 362.86681,218.98672 v -4.20511 h -0.0141 l -3.302,4.75544 h 2.72345 v 0.86078 h 0.59266 v -0.86078 h 0.65617 v -0.55033 z m -0.59266,0 h -1.68628 l 1.67217,-2.40595 h 0.0141 z" />
    <path
       style="font-variant:normal;font-weight:normal;font-size:medium;font-family:Futura;-inkscape-font-specification:Futura-Book;writing-mode:lr-tb;fill:#ffffff;fill-opacity:1;fill-rule:nonzero;stroke:none;stroke-width:0.35277778"
       inkscape:connector-curvature="0"
       id="path3424"
       d="m 386.82103,215.62827 v -0.55033 h -2.11667 l -0.76906,2.54706 c 0.30339,-0.19756 0.64206,-0.33867 1.00895,-0.33867 0.74083,0 1.32644,0.53622 1.32644,1.29117 0,0.77611 -0.55739,1.36172 -1.34055,1.36172 -0.508,0 -0.93839,-0.31045 -1.17828,-0.74083 l -0.47272,0.33866 c 0.35277,0.59972 0.93133,0.9525 1.62983,0.9525 1.08656,0 1.95439,-0.79728 1.95439,-1.89794 0,-1.03011 -0.71967,-1.85561 -1.77095,-1.85561 l -0.3175,0.0282 0.34573,-1.13595 z" />
    <path
       style="font-variant:normal;font-weight:normal;font-size:medium;font-family:Futura;-inkscape-font-specification:Futura-Book;writing-mode:lr-tb;fill:#ffffff;fill-opacity:1;fill-rule:nonzero;stroke:none;stroke-width:0.35277778"
       inkscape:connector-curvature="0"
       id="path3435"
       d="m 409.02192,214.98622 -1.76389,2.40594 c -0.2681,0.37395 -0.48683,0.79023 -0.48683,1.27706 0,1.00189 0.82549,1.82033 1.83445,1.82033 1.00189,0 1.83443,-0.81139 1.83443,-1.82739 0,-0.95955 -0.75493,-1.75683 -1.72154,-1.75683 -0.16228,0 -0.32457,0.0282 -0.46567,0.0776 l -0.0141,-0.0141 1.22767,-1.651 z m -0.41627,4.953 c -0.69145,0 -1.24178,-0.56445 -1.24178,-1.25589 0,-0.69144 0.55032,-1.22767 1.24178,-1.22767 0.68439,0 1.24178,0.53623 1.24178,1.22767 0,0.69144 -0.55034,1.25589 -1.24178,1.25589 z" />
    <g
       aria-label="0"
       transform="matrix(0.35277777,0,0,0.35277777,267.57505,215.01797)"
       style="font-variant:normal;font-weight:normal;font-size:20px;font-family:Futura;-inkscape-font-specification:Futura-Book;writing-mode:lr-tb;fill:#ffffff;fill-opacity:1;fill-rule:nonzero;stroke:none"
       id="text3117">
      <path
         style="fill:#ffffff"
         d="m 6.16,-15.34 c -3.82,0 -5.4,4.72 -5.4,7.82 0,3.72 1.96,7.78 5.4,7.78 3.44,0 5.4,-4.06 5.4,-7.78 0,-3.1 -1.58,-7.82 -5.4,-7.82 z m 0,1.56 c 2.84,0 3.76,4.2 3.72,6.34 -0.04,2.12 -0.94,6.14 -3.72,6.14 -2.78,0 -3.68,-4.02 -3.72,-6.14 -0.04,-2.14 0.88,-6.34 3.72,-6.34 z"
         id="path3438"
         inkscape:connector-curvature="0" />
    </g>
    <g
       aria-label="1000"
       transform="matrix(0.35277777,0,0,0.35277777,254.52779,196.137)"
       style="font-variant:normal;font-weight:normal;font-size:20px;font-family:Futura;-inkscape-font-specification:Futura-Book;writing-mode:lr-tb;fill:#ffffff;fill-opacity:1;fill-rule:nonzero;stroke:none"
       id="text3123">
      <path
         style="fill:#ffffff"
         d="M 5.66,-13.52 V 0 h 1.68 v -15.08 h -3.3 l -0.88,1.56 z"
         id="path3441"
         inkscape:connector-curvature="0" />
      <path
         style="fill:#ffffff"
         d="m 18.48,-15.34 c -3.82,0 -5.4,4.72 -5.4,7.82 0,3.72 1.96,7.78 5.4,7.78 3.44,0 5.4,-4.06 5.4,-7.78 0,-3.1 -1.58,-7.82 -5.4,-7.82 z m 0,1.56 c 2.84,0 3.76,4.2 3.72,6.34 -0.04,2.12 -0.94,6.14 -3.72,6.14 -2.78,0 -3.68,-4.02 -3.72,-6.14 -0.04,-2.14 0.88,-6.34 3.72,-6.34 z"
         id="path3443"
         inkscape:connector-curvature="0" />
      <path
         style="fill:#ffffff"
         d="m 30.799999,-15.34 c -3.82,0 -5.4,4.72 -5.4,7.82 0,3.72 1.96,7.78 5.4,7.78 3.44,0 5.4,-4.06 5.4,-7.78 0,-3.1 -1.58,-7.82 -5.4,-7.82 z m 0,1.56 c 2.84,0 3.76,4.2 3.72,6.34 -0.04,2.12 -0.94,6.14 -3.72,6.14 -2.78,0 -3.68,-4.02 -3.72,-6.14 -0.04,-2.14 0.88,-6.34 3.72,-6.34 z"
         id="path3445"
         inkscape:connector-curvature="0" />
      <path
         style="fill:#ffffff"
         d="m 43.119999,-15.34 c -3.82,0 -5.4,4.72 -5.4,7.82 0,3.72 1.96,7.78 5.4,7.78 3.44,0 5.4,-4.06 5.4,-7.78 0,-3.1 -1.58,-7.82 -5.4,-7.82 z m 0,1.56 c 2.84,0 3.76,4.2 3.72,6.34 -0.04,2.12 -0.94,6.14 -3.72,6.14 -2.78,0 -3.68,-4.02 -3.72,-6.14 -0.04,-2.14 0.88,-6.34 3.72,-6.34 z"
         id="path3447"
         inkscape:connector-curvature="0" />
    </g>
    <g
       aria-label="2000"
       transform="matrix(0.35277777,0,0,0.35277777,254.52779,177.25604)"
       style="font-variant:normal;font-weight:normal;font-size:20px;font-family:Futura;-inkscape-font-specification:Futura-Book;writing-mode:lr-tb;fill:#ffffff;fill-opacity:1;fill-rule:nonzero;stroke:none"
       id="text3129">
      <path
         style="fill:#ffffff"
         d="M 4.22,-1.56 9.44,-7.7 c 0.78,-0.9 1.14,-1.96 1.14,-3.18 0,-2.62 -2.22,-4.46 -4.74,-4.46 -2.66,0 -4.6,2.02 -4.66,4.66 h 1.68 c 0.04,-1.76 1.22,-3.1 3.04,-3.1 1.64,0 3,1.24 3,2.92 0,0.98 -0.42,1.8 -1.02,2.52 L 0.82,0 h 9.76 v -1.56 z"
         id="path3450"
         inkscape:connector-curvature="0" />
      <path
         style="fill:#ffffff"
         d="m 18.48,-15.34 c -3.82,0 -5.4,4.72 -5.4,7.82 0,3.72 1.96,7.78 5.4,7.78 3.44,0 5.4,-4.06 5.4,-7.78 0,-3.1 -1.58,-7.82 -5.4,-7.82 z m 0,1.56 c 2.84,0 3.76,4.2 3.72,6.34 -0.04,2.12 -0.94,6.14 -3.72,6.14 -2.78,0 -3.68,-4.02 -3.72,-6.14 -0.04,-2.14 0.88,-6.34 3.72,-6.34 z"
         id="path3452"
         inkscape:connector-curvature="0" />
      <path
         style="fill:#ffffff"
         d="m 30.799999,-15.34 c -3.82,0 -5.4,4.72 -5.4,7.82 0,3.72 1.96,7.78 5.4,7.78 3.44,0 5.4,-4.06 5.4,-7.78 0,-3.1 -1.58,-7.82 -5.4,-7.82 z m 0,1.56 c 2.84,0 3.76,4.2 3.72,6.34 -0.04,2.12 -0.94,6.14 -3.72,6.14 -2.78,0 -3.68,-4.02 -3.72,-6.14 -0.04,-2.14 0.88,-6.34 3.72,-6.34 z"
         id="path3454"
         inkscape:connector-curvature="0" />
      <path
         style="fill:#ffffff"
         d="m 43.119999,-15.34 c -3.82,0 -5.4,4.72 -5.4,7.82 0,3.72 1.96,7.78 5.4,7.78 3.44,0 5.4,-4.06 5.4,-7.78 0,-3.1 -1.58,-7.82 -5.4,-7.82 z m 0,1.56 c 2.84,0 3.76,4.2 3.72,6.34 -0.04,2.12 -0.94,6.14 -3.72,6.14 -2.78,0 -3.68,-4.02 -3.72,-6.14 -0.04,-2.14 0.88,-6.34 3.72,-6.34 z"
         id="path3456"
         inkscape:connector-curvature="0" />
    </g>
    <g
       aria-label="3000"
       transform="matrix(0.35277777,0,0,0.35277777,254.52779,158.37507)"
       style="font-variant:normal;font-weight:normal;font-size:20px;font-family:Futura;-inkscape-font-specification:Futura-Book;writing-mode:lr-tb;fill:#ffffff;fill-opacity:1;fill-rule:nonzero;stroke:none"
       id="text3135">
      <path
         style="fill:#ffffff"
         d="m 5.42,-7.14 c 1.84,-0.06 3.2,0.9 3.2,2.82 0,1.66 -1.26,3.02 -2.94,3.02 -1.52,0 -2.82,-1.08 -2.9,-2.62 H 1.14 c 0.04,2.52 2.04,4.18 4.48,4.18 2.58,0 4.68,-1.84 4.68,-4.48 0,-1.54 -0.7,-3.04 -2.16,-3.7 1.22,-0.62 1.94,-1.96 1.94,-3.3 0,-2.48 -1.86,-4.12 -4.28,-4.12 -2.48,0 -3.94,1.58 -4.18,3.98 h 1.66 c 0.14,-1.42 0.98,-2.42 2.48,-2.42 1.58,0 2.64,1.04 2.64,2.64 0,1.9 -1.38,2.38 -2.98,2.44 z"
         id="path3459"
         inkscape:connector-curvature="0" />
      <path
         style="fill:#ffffff"
         d="m 18.48,-15.34 c -3.82,0 -5.4,4.72 -5.4,7.82 0,3.72 1.96,7.78 5.4,7.78 3.44,0 5.4,-4.06 5.4,-7.78 0,-3.1 -1.58,-7.82 -5.4,-7.82 z m 0,1.56 c 2.84,0 3.76,4.2 3.72,6.34 -0.04,2.12 -0.94,6.14 -3.72,6.14 -2.78,0 -3.68,-4.02 -3.72,-6.14 -0.04,-2.14 0.88,-6.34 3.72,-6.34 z"
         id="path3461"
         inkscape:connector-curvature="0" />
      <path
         style="fill:#ffffff"
         d="m 30.799999,-15.34 c -3.82,0 -5.4,4.72 -5.4,7.82 0,3.72 1.96,7.78 5.4,7.78 3.44,0 5.4,-4.06 5.4,-7.78 0,-3.1 -1.58,-7.82 -5.4,-7.82 z m 0,1.56 c 2.84,0 3.76,4.2 3.72,6.34 -0.04,2.12 -0.94,6.14 -3.72,6.14 -2.78,0 -3.68,-4.02 -3.72,-6.14 -0.04,-2.14 0.88,-6.34 3.72,-6.34 z"
         id="path3463"
         inkscape:connector-curvature="0" />
      <path
         style="fill:#ffffff"
         d="m 43.119999,-15.34 c -3.82,0 -5.4,4.72 -5.4,7.82 0,3.72 1.96,7.78 5.4,7.78 3.44,0 5.4,-4.06 5.4,-7.78 0,-3.1 -1.58,-7.82 -5.4,-7.82 z m 0,1.56 c 2.84,0 3.76,4.2 3.72,6.34 -0.04,2.12 -0.94,6.14 -3.72,6.14 -2.78,0 -3.68,-4.02 -3.72,-6.14 -0.04,-2.14 0.88,-6.34 3.72,-6.34 z"
         id="path3465"
         inkscape:connector-curvature="0" />
    </g>
    <g
       aria-label="4000"
       transform="matrix(0.35277777,0,0,0.35277777,254.52779,139.4941)"
       style="font-variant:normal;font-weight:normal;font-size:20px;font-family:Futura;-inkscape-font-specification:Futura-Book;writing-mode:lr-tb;fill:#ffffff;fill-opacity:1;fill-rule:nonzero;stroke:none"
       id="text3141">
      <path
         style="fill:#ffffff"
         d="M 9.52,-4 V -15.92 H 9.48 L 0.12,-2.44 H 7.84 V 0 h 1.68 v -2.44 h 1.86 V -4 Z M 7.84,-4 H 3.06 l 4.74,-6.82 h 0.04 z"
         id="path3468"
         inkscape:connector-curvature="0" />
      <path
         style="fill:#ffffff"
         d="m 18.48,-15.34 c -3.82,0 -5.4,4.72 -5.4,7.82 0,3.72 1.96,7.78 5.4,7.78 3.44,0 5.4,-4.06 5.4,-7.78 0,-3.1 -1.58,-7.82 -5.4,-7.82 z m 0,1.56 c 2.84,0 3.76,4.2 3.72,6.34 -0.04,2.12 -0.94,6.14 -3.72,6.14 -2.78,0 -3.68,-4.02 -3.72,-6.14 -0.04,-2.14 0.88,-6.34 3.72,-6.34 z"
         id="path3470"
         inkscape:connector-curvature="0" />
      <path
         style="fill:#ffffff"
         d="m 30.799999,-15.34 c -3.82,0 -5.4,4.72 -5.4,7.82 0,3.72 1.96,7.78 5.4,7.78 3.44,0 5.4,-4.06 5.4,-7.78 0,-3.1 -1.58,-7.82 -5.4,-7.82 z m 0,1.56 c 2.84,0 3.76,4.2 3.72,6.34 -0.04,2.12 -0.94,6.14 -3.72,6.14 -2.78,0 -3.68,-4.02 -3.72,-6.14 -0.04,-2.14 0.88,-6.34 3.72,-6.34 z"
         id="path3472"
         inkscape:connector-curvature="0" />
      <path
         style="fill:#ffffff"
         d="m 43.119999,-15.34 c -3.82,0 -5.4,4.72 -5.4,7.82 0,3.72 1.96,7.78 5.4,7.78 3.44,0 5.4,-4.06 5.4,-7.78 0,-3.1 -1.58,-7.82 -5.4,-7.82 z m 0,1.56 c 2.84,0 3.76,4.2 3.72,6.34 -0.04,2.12 -0.94,6.14 -3.72,6.14 -2.78,0 -3.68,-4.02 -3.72,-6.14 -0.04,-2.14 0.88,-6.34 3.72,-6.34 z"
         id="path3474"
         inkscape:connector-curvature="0" />
    </g>
    <g
       aria-label="5000"
       transform="matrix(0.35277777,0,0,0.35277777,254.52779,120.61313)"
       style="font-variant:normal;font-weight:normal;font-size:20px;font-family:Futura;-inkscape-font-specification:Futura-Book;writing-mode:lr-tb;fill:#ffffff;fill-opacity:1;fill-rule:nonzero;stroke:none"
       id="text3147">
      <path
         style="fill:#ffffff"
         d="m 10.46,-13.52 v -1.56 h -6 l -2.18,7.22 c 0.86,-0.56 1.82,-0.96 2.86,-0.96 2.1,0 3.76,1.52 3.76,3.66 0,2.2 -1.58,3.86 -3.8,3.86 -1.44,0 -2.66,-0.88 -3.34,-2.1 l -1.34,0.96 c 1,1.7 2.64,2.7 4.62,2.7 3.08,0 5.54,-2.26 5.54,-5.38 0,-2.92 -2.04,-5.26 -5.02,-5.26 l -0.9,0.08 0.98,-3.22 z"
         id="path3477"
         inkscape:connector-curvature="0" />
      <path
         style="fill:#ffffff"
         d="m 18.48,-15.34 c -3.82,0 -5.4,4.72 -5.4,7.82 0,3.72 1.96,7.78 5.4,7.78 3.44,0 5.4,-4.06 5.4,-7.78 0,-3.1 -1.58,-7.82 -5.4,-7.82 z m 0,1.56 c 2.84,0 3.76,4.2 3.72,6.34 -0.04,2.12 -0.94,6.14 -3.72,6.14 -2.78,0 -3.68,-4.02 -3.72,-6.14 -0.04,-2.14 0.88,-6.34 3.72,-6.34 z"
         id="path3479"
         inkscape:connector-curvature="0" />
      <path
         style="fill:#ffffff"
         d="m 30.799999,-15.34 c -3.82,0 -5.4,4.72 -5.4,7.82 0,3.72 1.96,7.78 5.4,7.78 3.44,0 5.4,-4.06 5.4,-7.78 0,-3.1 -1.58,-7.82 -5.4,-7.82 z m 0,1.56 c 2.84,0 3.76,4.2 3.72,6.34 -0.04,2.12 -0.94,6.14 -3.72,6.14 -2.78,0 -3.68,-4.02 -3.72,-6.14 -0.04,-2.14 0.88,-6.34 3.72,-6.34 z"
         id="path3481"
         inkscape:connector-curvature="0" />
      <path
         style="fill:#ffffff"
         d="m 43.119999,-15.34 c -3.82,0 -5.4,4.72 -5.4,7.82 0,3.72 1.96,7.78 5.4,7.78 3.44,0 5.4,-4.06 5.4,-7.78 0,-3.1 -1.58,-7.82 -5.4,-7.82 z m 0,1.56 c 2.84,0 3.76,4.2 3.72,6.34 -0.04,2.12 -0.94,6.14 -3.72,6.14 -2.78,0 -3.68,-4.02 -3.72,-6.14 -0.04,-2.14 0.88,-6.34 3.72,-6.34 z"
         id="path3483"
         inkscape:connector-curvature="0" />
    </g>
    <g
       aria-label="6000"
       transform="matrix(0.35277777,0,0,0.35277777,254.52779,101.73217)"
       style="font-variant:normal;font-weight:normal;font-size:20px;font-family:Futura;-inkscape-font-specification:Futura-Book;writing-mode:lr-tb;fill:#ffffff;fill-opacity:1;fill-rule:nonzero;stroke:none"
       id="text3153">
      <path
         style="fill:#ffffff"
         d="m 7.26,-15.34 -5,6.82 c -0.76,1.06 -1.38,2.24 -1.38,3.62 0,2.84 2.34,5.16 5.2,5.16 2.84,0 5.2,-2.3 5.2,-5.18 0,-2.72 -2.14,-4.98 -4.88,-4.98 -0.46,0 -0.92,0.08 -1.32,0.22 L 5.04,-9.72 8.52,-14.4 Z M 6.08,-1.3 c -1.96,0 -3.52,-1.6 -3.52,-3.56 0,-1.96 1.56,-3.48 3.52,-3.48 1.94,0 3.52,1.52 3.52,3.48 0,1.96 -1.56,3.56 -3.52,3.56 z"
         id="path3486"
         inkscape:connector-curvature="0" />
      <path
         style="fill:#ffffff"
         d="m 18.48,-15.34 c -3.82,0 -5.4,4.72 -5.4,7.82 0,3.72 1.96,7.78 5.4,7.78 3.44,0 5.4,-4.06 5.4,-7.78 0,-3.1 -1.58,-7.82 -5.4,-7.82 z m 0,1.56 c 2.84,0 3.76,4.2 3.72,6.34 -0.04,2.12 -0.94,6.14 -3.72,6.14 -2.78,0 -3.68,-4.02 -3.72,-6.14 -0.04,-2.14 0.88,-6.34 3.72,-6.34 z"
         id="path3488"
         inkscape:connector-curvature="0" />
      <path
         style="fill:#ffffff"
         d="m 30.799999,-15.34 c -3.82,0 -5.4,4.72 -5.4,7.82 0,3.72 1.96,7.78 5.4,7.78 3.44,0 5.4,-4.06 5.4,-7.78 0,-3.1 -1.58,-7.82 -5.4,-7.82 z m 0,1.56 c 2.84,0 3.76,4.2 3.72,6.34 -0.04,2.12 -0.94,6.14 -3.72,6.14 -2.78,0 -3.68,-4.02 -3.72,-6.14 -0.04,-2.14 0.88,-6.34 3.72,-6.34 z"
         id="path3490"
         inkscape:connector-curvature="0" />
      <path
         style="fill:#ffffff"
         d="m 43.119999,-15.34 c -3.82,0 -5.4,4.72 -5.4,7.82 0,3.72 1.96,7.78 5.4,7.78 3.44,0 5.4,-4.06 5.4,-7.78 0,-3.1 -1.58,-7.82 -5.4,-7.82 z m 0,1.56 c 2.84,0 3.76,4.2 3.72,6.34 -0.04,2.12 -0.94,6.14 -3.72,6.14 -2.78,0 -3.68,-4.02 -3.72,-6.14 -0.04,-2.14 0.88,-6.34 3.72,-6.34 z"
         id="path3492"
         inkscape:connector-curvature="0" />
    </g>
    <g
       aria-label="GFLOP/s"
       transform="matrix(0,-0.35277777,0.35277777,0,251.25357,163.40945)"
       style="font-variant:normal;font-weight:normal;font-size:20px;font-family:Futura;-inkscape-font-specification:Futura-Book;writing-mode:lr-tb;fill:#ffffff;fill-opacity:1;fill-rule:nonzero;stroke:none"
       id="text3157">
      <path
         style="fill:#ffffff"
         d="m 9.26,-7.58 v 1.56 h 4.48 c 0,2.8 -2.76,4.72 -5.38,4.72 -1.58,0 -3.18,-0.82 -4.28,-1.92 -1.12,-1.14 -1.76,-2.66 -1.76,-4.26 0,-3.4 2.72,-6.3 6.16,-6.3 2.22,0 3.92,1.06 5.18,2.84 l 1.22,-1.14 c -1.6,-2.08 -3.74,-3.26 -6.38,-3.26 -4.34,0 -7.86,3.52 -7.86,7.84 0,4.24 3.52,7.76 7.76,7.76 2.1,0 4.2,-0.92 5.58,-2.52 1.38,-1.6 1.6,-3.28 1.56,-5.32 z"
         id="path3495"
         inkscape:connector-curvature="0" />
      <path
         style="fill:#ffffff"
         d="m 24.78,-13.52 v -1.56 H 17.92 V 0 h 1.68 v -7.48 h 5.02 V -9.04 H 19.6 v -4.48 z"
         id="path3497"
         inkscape:connector-curvature="0" />
      <path
         style="fill:#ffffff"
         d="m 29.159999,-15.08 h -1.68 V 0 h 5.84 v -1.56 h -4.16 z"
         id="path3499"
         inkscape:connector-curvature="0" />
      <path
         style="fill:#ffffff"
         d="m 42.079999,-15.34 c -4.3,0 -7.86,3.5 -7.86,7.82 0,4.34 3.56,7.78 7.86,7.78 4.3,0 7.86,-3.44 7.86,-7.78 0,-4.32 -3.56,-7.82 -7.86,-7.82 z m 0,1.56 c 3.46,0 6.18,2.82 6.18,6.24 0,3.4 -2.76,6.24 -6.18,6.24 -3.42,0 -6.18,-2.84 -6.18,-6.24 0,-3.42 2.72,-6.24 6.18,-6.24 z"
         id="path3501"
         inkscape:connector-curvature="0" />
      <path
         style="fill:#ffffff"
         d="m 53.900001,-6.6 h 1.22 c 1.26,0 2.56,-0.16 3.58,-1 0.94,-0.78 1.44,-2.02 1.44,-3.24 0,-1.34 -0.58,-2.66 -1.7,-3.44 -1.1,-0.76 -2.44,-0.8 -3.74,-0.8 h -2.48 V 0 h 1.68 z m 0,-6.92 h 0.62 c 1.96,0 3.94,0.18 3.94,2.64 0,2.16 -1.58,2.72 -3.44,2.72 h -1.12 z"
         id="path3503"
         inkscape:connector-curvature="0" />
      <path
         style="fill:#ffffff"
         d="m 70.479998,-16.5 -9.36,19.04 1.3,0.6 9.38,-19.04 z"
         id="path3505"
         inkscape:connector-curvature="0" />
      <path
         style="fill:#ffffff"
         d="m 78.820004,-7.92 c -0.42,-0.98 -1.42,-1.74 -2.5,-1.74 -1.52,0 -2.8,1.08 -2.8,2.66 0,2.96 4.24,2.24 4.24,4.34 0,0.86 -0.66,1.44 -1.52,1.44 -1.06,0 -1.52,-0.62 -1.92,-1.5 l -1.42,0.6 c 0.5,1.48 1.74,2.38 3.32,2.38 1.74,0 3.18,-1.28 3.18,-3.06 0,-1.58 -1.08,-2.24 -2.18,-2.7 -1.1,-0.46 -2.18,-0.78 -2.18,-1.64 0,-0.6 0.6,-1.04 1.16,-1.04 0.58,0 1.06,0.46 1.28,0.96 z"
         id="path3507"
         inkscape:connector-curvature="0" />
    </g>
    <g
       aria-label="AVX2, 192 cores"
       transform="matrix(0.35277777,0,0,0.35277777,290.97413,98.604836)"
       style="font-variant:normal;font-weight:normal;font-size:20px;font-family:Futura;-inkscape-font-specification:Futura-Book;writing-mode:lr-tb;fill:#ffffff;fill-opacity:1;fill-rule:nonzero;stroke:none"
       id="text3171">
      <path
         style="fill:#ffffff"
         d="M 10.22,-4.28 12,0 h 1.86 L 7.08,-15.8 0.12,0 H 1.96 L 3.78,-4.28 Z M 9.56,-5.84 h -5.1 l 2.58,-6.04 z"
         id="path3510"
         inkscape:connector-curvature="0" />
      <path
         style="fill:#ffffff"
         d="M 15.92,-15.08 H 14.1 l 6.12,15.98 6.12,-15.98 h -1.82 l -4.3,11.5 z"
         id="path3512"
         inkscape:connector-curvature="0" />
      <path
         style="fill:#ffffff"
         d="m 31.179999,-7.8 -4.46,7.8 h 1.92 l 3.46,-6.2 3.46,6.2 h 1.92 l -4.46,-7.8 4.08,-7.28 h -1.92 l -3.08,5.68 -3.08,-5.68 h -1.92 z"
         id="path3514"
         inkscape:connector-curvature="0" />
      <path
         style="fill:#ffffff"
         d="m 41.960002,-1.56 5.22,-6.14 c 0.78,-0.9 1.14,-1.96 1.14,-3.18 0,-2.62 -2.22,-4.46 -4.74,-4.46 -2.66,0 -4.6,2.02 -4.66,4.66 h 1.68 c 0.04,-1.76 1.22,-3.1 3.04,-3.1 1.64,0 3,1.24 3,2.92 0,0.98 -0.42,1.8 -1.02,2.52 l -7.06,8.34 h 9.76 v -1.56 z"
         id="path3516"
         inkscape:connector-curvature="0" />
      <path
         style="fill:#ffffff"
         d="m 53.080001,-2.2 -1.86,5.2 1.08,0.44 2.26,-5.12 z"
         id="path3518"
         inkscape:connector-curvature="0" />
      <path
         style="fill:#ffffff"
         d="M 68.040001,-13.52 V 0 h 1.68 v -15.08 h -3.3 l -0.88,1.56 z"
         id="path3520"
         inkscape:connector-curvature="0" />
      <path
         style="fill:#ffffff"
         d="m 79.599997,0.26 5,-6.84 c 0.78,-1.08 1.4,-2.26 1.4,-3.62 0,-2.86 -2.36,-5.14 -5.2,-5.14 -2.84,0 -5.2,2.28 -5.2,5.14 0,2.74 2.12,4.98 4.88,4.98 0.46,0 0.9,-0.08 1.3,-0.2 l 0.04,0.04 -3.48,4.78 z m 1.2,-14.04 c 1.94,0 3.52,1.58 3.52,3.52 0,1.96 -1.58,3.48 -3.52,3.48 -1.96,0 -3.52,-1.52 -3.52,-3.48 0,-1.94 1.56,-3.52 3.52,-3.52 z"
         id="path3522"
         inkscape:connector-curvature="0" />
      <path
         style="fill:#ffffff"
         d="m 91.239997,-1.56 5.22,-6.14 c 0.78,-0.9 1.14,-1.96 1.14,-3.18 0,-2.62 -2.22,-4.46 -4.74,-4.46 -2.66,0 -4.6,2.02 -4.66,4.66 h 1.68 c 0.04,-1.76 1.22,-3.1 3.04,-3.1 1.64,0 3,1.24 3,2.92 0,0.98 -0.42,1.8 -1.02,2.52 l -7.06,8.34 h 9.76 v -1.56 z"
         id="path3524"
         inkscape:connector-curvature="0" />
      <path
         style="fill:#ffffff"
         d="m 114,-8.72 c -0.84,-0.6 -1.88,-0.94 -2.9,-0.94 -2.76,0 -5.02,2.16 -5.02,4.96 0,2.84 2.16,4.96 5,4.96 1.12,0 2.06,-0.34 2.98,-0.96 v -2.14 h -0.04 c -0.78,1.02 -1.72,1.62 -3.06,1.62 -1.96,0 -3.24,-1.62 -3.24,-3.48 0,-1.88 1.38,-3.48 3.32,-3.48 1.26,0 2.18,0.64 2.92,1.58 H 114 Z"
         id="path3526"
         inkscape:connector-curvature="0" />
      <path
         style="fill:#ffffff"
         d="m 120.64,0.26 c 2.74,0 4.94,-2.18 4.94,-4.94 0,-2.76 -2.18,-4.98 -4.94,-4.98 -2.76,0 -4.94,2.22 -4.94,4.98 0,2.76 2.2,4.94 4.94,4.94 z m 0,-8.44 c 1.98,0 3.34,1.58 3.34,3.48 0,1.92 -1.36,3.48 -3.34,3.48 -1.98,0 -3.34,-1.56 -3.34,-3.48 0,-1.9 1.36,-3.48 3.34,-3.48 z"
         id="path3528"
         inkscape:connector-curvature="0" />
      <path
         style="fill:#ffffff"
         d="m 129.3,-9.4 h -1.6 V 0 h 1.6 v -4.7 c 0,-1.22 0.08,-3.48 1.84,-3.48 0.42,0 0.64,0.2 0.96,0.42 l 0.76,-1.46 c -0.46,-0.26 -0.9,-0.44 -1.44,-0.44 -1.04,0 -1.52,0.54 -2.08,1.28 h -0.04 z"
         id="path3530"
         inkscape:connector-curvature="0" />
      <path
         style="fill:#ffffff"
         d="m 142.66001,-4.36 c 0.16,-2.8 -1.44,-5.3 -4.46,-5.3 -2.94,0 -4.56,2.3 -4.56,5.08 0,2.7 1.8,4.84 4.6,4.84 1.92,0 3.44,-0.96 4.34,-2.64 l -1.36,-0.78 c -0.62,1.12 -1.5,1.94 -2.86,1.94 -1.82,0 -3.06,-1.4 -3.08,-3.14 z m -7.3,-1.36 c 0.2,-1.36 1.48,-2.46 2.86,-2.46 1.4,0 2.54,1.1 2.76,2.46 z"
         id="path3532"
         inkscape:connector-curvature="0" />
      <path
         style="fill:#ffffff"
         d="m 150,-7.92 c -0.42,-0.98 -1.42,-1.74 -2.5,-1.74 -1.52,0 -2.8,1.08 -2.8,2.66 0,2.96 4.24,2.24 4.24,4.34 0,0.86 -0.66,1.44 -1.52,1.44 -1.06,0 -1.52,-0.62 -1.92,-1.5 l -1.42,0.6 c 0.5,1.48 1.74,2.38 3.32,2.38 1.74,0 3.18,-1.28 3.18,-3.06 0,-1.58 -1.08,-2.24 -2.18,-2.7 -1.1,-0.46 -2.18,-0.78 -2.18,-1.64 0,-0.6 0.6,-1.04 1.16,-1.04 0.58,0 1.06,0.46 1.28,0.96 z"
         id="path3534"
         inkscape:connector-curvature="0" />
    </g>
    <g
       aria-label="AVX512, 192 cores"
       transform="matrix(0.35277777,0,0,0.35277777,290.97413,109.81655)"
       style="font-variant:normal;font-weight:normal;font-size:20px;font-family:Futura;-inkscape-font-specification:Futura-Book;writing-mode:lr-tb;fill:#ffffff;fill-opacity:1;fill-rule:nonzero;stroke:none"
       id="text3177">
      <path
         style="fill:#ffffff"
         d="M 10.22,-4.28 12,0 h 1.86 L 7.08,-15.8 0.12,0 H 1.96 L 3.78,-4.28 Z M 9.56,-5.84 h -5.1 l 2.58,-6.04 z"
         id="path3537"
         inkscape:connector-curvature="0" />
      <path
         style="fill:#ffffff"
         d="M 15.92,-15.08 H 14.1 l 6.12,15.98 6.12,-15.98 h -1.82 l -4.3,11.5 z"
         id="path3539"
         inkscape:connector-curvature="0" />
      <path
         style="fill:#ffffff"
         d="m 31.179999,-7.8 -4.46,7.8 h 1.92 l 3.46,-6.2 3.46,6.2 h 1.92 l -4.46,-7.8 4.08,-7.28 h -1.92 l -3.08,5.68 -3.08,-5.68 h -1.92 z"
         id="path3541"
         inkscape:connector-curvature="0" />
      <path
         style="fill:#ffffff"
         d="m 48.200002,-13.52 v -1.56 h -6 l -2.18,7.22 c 0.86,-0.56 1.82,-0.96 2.86,-0.96 2.1,0 3.76,1.52 3.76,3.66 0,2.2 -1.58,3.86 -3.8,3.86 -1.44,0 -2.66,-0.88 -3.34,-2.1 l -1.34,0.96 c 1,1.7 2.64,2.7 4.62,2.7 3.08,0 5.54,-2.26 5.54,-5.38 0,-2.92 -2.04,-5.26 -5.02,-5.26 l -0.9,0.08 0.98,-3.22 z"
         id="path3543"
         inkscape:connector-curvature="0" />
      <path
         style="fill:#ffffff"
         d="M 55.720001,-13.52 V 0 h 1.68 v -15.08 h -3.3 l -0.88,1.56 z"
         id="path3545"
         inkscape:connector-curvature="0" />
      <path
         style="fill:#ffffff"
         d="m 66.600001,-1.56 5.22,-6.14 c 0.78,-0.9 1.14,-1.96 1.14,-3.18 0,-2.62 -2.22,-4.46 -4.74,-4.46 -2.66,0 -4.6,2.02 -4.66,4.66 h 1.68 c 0.04,-1.76 1.22,-3.1 3.04,-3.1 1.64,0 3,1.24 3,2.92 0,0.98 -0.42,1.8 -1.02,2.52 l -7.06,8.34 h 9.76 v -1.56 z"
         id="path3547"
         inkscape:connector-curvature="0" />
      <path
         style="fill:#ffffff"
         d="m 77.719997,-2.2 -1.86,5.2 1.08,0.44 2.26,-5.12 z"
         id="path3549"
         inkscape:connector-curvature="0" />
      <path
         style="fill:#ffffff"
         d="M 92.679997,-13.52 V 0 h 1.68 v -15.08 h -3.3 l -0.88,1.56 z"
         id="path3551"
         inkscape:connector-curvature="0" />
      <path
         style="fill:#ffffff"
         d="m 104.24,0.26 5,-6.84 c 0.78,-1.08 1.4,-2.26 1.4,-3.62 0,-2.86 -2.36,-5.14 -5.2,-5.14 -2.84,0 -5.2,2.28 -5.2,5.14 0,2.74 2.12,4.98 4.88,4.98 0.46,0 0.9,-0.08 1.3,-0.2 l 0.04,0.04 -3.48,4.78 z m 1.2,-14.04 c 1.94,0 3.52,1.58 3.52,3.52 0,1.96 -1.58,3.48 -3.52,3.48 -1.96,0 -3.52,-1.52 -3.52,-3.48 0,-1.94 1.56,-3.52 3.52,-3.52 z"
         id="path3553"
         inkscape:connector-curvature="0" />
      <path
         style="fill:#ffffff"
         d="m 115.88,-1.56 5.22,-6.14 c 0.78,-0.9 1.14,-1.96 1.14,-3.18 0,-2.62 -2.22,-4.46 -4.74,-4.46 -2.66,0 -4.6,2.02 -4.66,4.66 h 1.68 c 0.04,-1.76 1.22,-3.1 3.04,-3.1 1.64,0 3,1.24 3,2.92 0,0.98 -0.42,1.8 -1.02,2.52 L 112.48,0 h 9.76 v -1.56 z"
         id="path3555"
         inkscape:connector-curvature="0" />
      <path
         style="fill:#ffffff"
         d="m 138.64,-8.72 c -0.84,-0.6 -1.88,-0.94 -2.9,-0.94 -2.76,0 -5.02,2.16 -5.02,4.96 0,2.84 2.16,4.96 5,4.96 1.12,0 2.06,-0.34 2.98,-0.96 v -2.14 h -0.04 c -0.78,1.02 -1.72,1.62 -3.06,1.62 -1.96,0 -3.24,-1.62 -3.24,-3.48 0,-1.88 1.38,-3.48 3.32,-3.48 1.26,0 2.18,0.64 2.92,1.58 h 0.04 z"
         id="path3557"
         inkscape:connector-curvature="0" />
      <path
         style="fill:#ffffff"
         d="m 145.28,0.26 c 2.74,0 4.94,-2.18 4.94,-4.94 0,-2.76 -2.18,-4.98 -4.94,-4.98 -2.76,0 -4.94,2.22 -4.94,4.98 0,2.76 2.2,4.94 4.94,4.94 z m 0,-8.44 c 1.98,0 3.34,1.58 3.34,3.48 0,1.92 -1.36,3.48 -3.34,3.48 -1.98,0 -3.34,-1.56 -3.34,-3.48 0,-1.9 1.36,-3.48 3.34,-3.48 z"
         id="path3559"
         inkscape:connector-curvature="0" />
      <path
         style="fill:#ffffff"
         d="m 153.93999,-9.4 h -1.6 V 0 h 1.6 v -4.7 c 0,-1.22 0.08,-3.48 1.84,-3.48 0.42,0 0.64,0.2 0.96,0.42 l 0.76,-1.46 c -0.46,-0.26 -0.9,-0.44 -1.44,-0.44 -1.04,0 -1.52,0.54 -2.08,1.28 h -0.04 z"
         id="path3561"
         inkscape:connector-curvature="0" />
      <path
         style="fill:#ffffff"
         d="m 167.30001,-4.36 c 0.16,-2.8 -1.44,-5.3 -4.46,-5.3 -2.94,0 -4.56,2.3 -4.56,5.08 0,2.7 1.8,4.84 4.6,4.84 1.92,0 3.44,-0.96 4.34,-2.64 l -1.36,-0.78 c -0.62,1.12 -1.5,1.94 -2.86,1.94 -1.82,0 -3.06,-1.4 -3.08,-3.14 z m -7.3,-1.36 c 0.2,-1.36 1.48,-2.46 2.86,-2.46 1.4,0 2.54,1.1 2.76,2.46 z"
         id="path3563"
         inkscape:connector-curvature="0" />
      <path
         style="fill:#ffffff"
         d="m 174.64,-7.92 c -0.42,-0.98 -1.42,-1.74 -2.5,-1.74 -1.52,0 -2.8,1.08 -2.8,2.66 0,2.96 4.24,2.24 4.24,4.34 0,0.86 -0.66,1.44 -1.52,1.44 -1.06,0 -1.52,-0.62 -1.92,-1.5 l -1.42,0.6 c 0.5,1.48 1.74,2.38 3.32,2.38 1.74,0 3.18,-1.28 3.18,-3.06 0,-1.58 -1.08,-2.24 -2.18,-2.7 -1.1,-0.46 -2.18,-0.78 -2.18,-1.64 0,-0.6 0.6,-1.04 1.16,-1.04 0.58,0 1.06,0.46 1.28,0.96 z"
         id="path3565"
         inkscape:connector-curvature="0" />
    </g>
    <g
       aria-label="AVX2, 1024 cores"
       transform="matrix(0.35277777,0,0,0.35277777,290.97413,121.02827)"
       style="font-variant:normal;font-weight:normal;font-size:20px;font-family:Futura;-inkscape-font-specification:Futura-Book;writing-mode:lr-tb;fill:#ffffff;fill-opacity:1;fill-rule:nonzero;stroke:none"
       id="text3183">
      <path
         style="fill:#ffffff"
         d="M 10.22,-4.28 12,0 h 1.86 L 7.08,-15.8 0.12,0 H 1.96 L 3.78,-4.28 Z M 9.56,-5.84 h -5.1 l 2.58,-6.04 z"
         id="path3568"
         inkscape:connector-curvature="0" />
      <path
         style="fill:#ffffff"
         d="M 15.92,-15.08 H 14.1 l 6.12,15.98 6.12,-15.98 h -1.82 l -4.3,11.5 z"
         id="path3570"
         inkscape:connector-curvature="0" />
      <path
         style="fill:#ffffff"
         d="m 31.179999,-7.8 -4.46,7.8 h 1.92 l 3.46,-6.2 3.46,6.2 h 1.92 l -4.46,-7.8 4.08,-7.28 h -1.92 l -3.08,5.68 -3.08,-5.68 h -1.92 z"
         id="path3572"
         inkscape:connector-curvature="0" />
      <path
         style="fill:#ffffff"
         d="m 41.960002,-1.56 5.22,-6.14 c 0.78,-0.9 1.14,-1.96 1.14,-3.18 0,-2.62 -2.22,-4.46 -4.74,-4.46 -2.66,0 -4.6,2.02 -4.66,4.66 h 1.68 c 0.04,-1.76 1.22,-3.1 3.04,-3.1 1.64,0 3,1.24 3,2.92 0,0.98 -0.42,1.8 -1.02,2.52 l -7.06,8.34 h 9.76 v -1.56 z"
         id="path3574"
         inkscape:connector-curvature="0" />
      <path
         style="fill:#ffffff"
         d="m 53.080001,-2.2 -1.86,5.2 1.08,0.44 2.26,-5.12 z"
         id="path3576"
         inkscape:connector-curvature="0" />
      <path
         style="fill:#ffffff"
         d="M 68.040001,-13.52 V 0 h 1.68 v -15.08 h -3.3 l -0.88,1.56 z"
         id="path3578"
         inkscape:connector-curvature="0" />
      <path
         style="fill:#ffffff"
         d="m 80.859997,-15.34 c -3.82,0 -5.4,4.72 -5.4,7.82 0,3.72 1.96,7.78 5.4,7.78 3.44,0 5.4,-4.06 5.4,-7.78 0,-3.1 -1.58,-7.82 -5.4,-7.82 z m 0,1.56 c 2.84,0 3.76,4.2 3.72,6.34 -0.04,2.12 -0.94,6.14 -3.72,6.14 -2.78,0 -3.68,-4.02 -3.72,-6.14 -0.04,-2.14 0.88,-6.34 3.72,-6.34 z"
         id="path3580"
         inkscape:connector-curvature="0" />
      <path
         style="fill:#ffffff"
         d="m 91.239997,-1.56 5.22,-6.14 c 0.78,-0.9 1.14,-1.96 1.14,-3.18 0,-2.62 -2.22,-4.46 -4.74,-4.46 -2.66,0 -4.6,2.02 -4.66,4.66 h 1.68 c 0.04,-1.76 1.22,-3.1 3.04,-3.1 1.64,0 3,1.24 3,2.92 0,0.98 -0.42,1.8 -1.02,2.52 l -7.06,8.34 h 9.76 v -1.56 z"
         id="path3582"
         inkscape:connector-curvature="0" />
      <path
         style="fill:#ffffff"
         d="m 108.86,-4 v -11.92 h -0.04 L 99.459996,-2.44 H 107.18 V 0 h 1.68 v -2.44 h 1.86 V -4 Z m -1.68,0 h -4.78 l 4.74,-6.82 h 0.04 z"
         id="path3584"
         inkscape:connector-curvature="0" />
      <path
         style="fill:#ffffff"
         d="m 126.32,-8.72 c -0.84,-0.6 -1.88,-0.94 -2.9,-0.94 -2.76,0 -5.02,2.16 -5.02,4.96 0,2.84 2.16,4.96 5,4.96 1.12,0 2.06,-0.34 2.98,-0.96 v -2.14 h -0.04 c -0.78,1.02 -1.72,1.62 -3.06,1.62 -1.96,0 -3.24,-1.62 -3.24,-3.48 0,-1.88 1.38,-3.48 3.32,-3.48 1.26,0 2.18,0.64 2.92,1.58 h 0.04 z"
         id="path3586"
         inkscape:connector-curvature="0" />
      <path
         style="fill:#ffffff"
         d="m 132.96,0.26 c 2.74,0 4.94,-2.18 4.94,-4.94 0,-2.76 -2.18,-4.98 -4.94,-4.98 -2.76,0 -4.94,2.22 -4.94,4.98 0,2.76 2.2,4.94 4.94,4.94 z m 0,-8.44 c 1.98,0 3.34,1.58 3.34,3.48 0,1.92 -1.36,3.48 -3.34,3.48 -1.98,0 -3.34,-1.56 -3.34,-3.48 0,-1.9 1.36,-3.48 3.34,-3.48 z"
         id="path3588"
         inkscape:connector-curvature="0" />
      <path
         style="fill:#ffffff"
         d="m 141.62,-9.4 h -1.6 V 0 h 1.6 v -4.7 c 0,-1.22 0.08,-3.48 1.84,-3.48 0.42,0 0.64,0.2 0.96,0.42 l 0.76,-1.46 c -0.46,-0.26 -0.9,-0.44 -1.44,-0.44 -1.04,0 -1.52,0.54 -2.08,1.28 h -0.04 z"
         id="path3590"
         inkscape:connector-curvature="0" />
      <path
         style="fill:#ffffff"
         d="m 154.98,-4.36 c 0.16,-2.8 -1.44,-5.3 -4.46,-5.3 -2.94,0 -4.56,2.3 -4.56,5.08 0,2.7 1.8,4.84 4.6,4.84 1.92,0 3.44,-0.96 4.34,-2.64 l -1.36,-0.78 c -0.62,1.12 -1.5,1.94 -2.86,1.94 -1.82,0 -3.06,-1.4 -3.08,-3.14 z m -7.3,-1.36 c 0.2,-1.36 1.48,-2.46 2.86,-2.46 1.4,0 2.54,1.1 2.76,2.46 z"
         id="path3592"
         inkscape:connector-curvature="0" />
      <path
         style="fill:#ffffff"
         d="m 162.32,-7.92 c -0.42,-0.98 -1.42,-1.74 -2.5,-1.74 -1.52,0 -2.8,1.08 -2.8,2.66 0,2.96 4.24,2.24 4.24,4.34 0,0.86 -0.66,1.44 -1.52,1.44 -1.06,0 -1.52,-0.62 -1.92,-1.5 l -1.42,0.6 c 0.5,1.48 1.74,2.38 3.32,2.38 1.74,0 3.18,-1.28 3.18,-3.06 0,-1.58 -1.08,-2.24 -2.18,-2.7 -1.1,-0.46 -2.18,-0.78 -2.18,-1.64 0,-0.6 0.6,-1.04 1.16,-1.04 0.58,0 1.06,0.46 1.28,0.96 z"
         id="path3594"
         inkscape:connector-curvature="0" />
    </g>
    <g
       aria-label="AVX512, 1024 cores"
       transform="matrix(0.35277777,0,0,0.35277777,290.97413,132.23999)"
       style="font-variant:normal;font-weight:normal;font-size:20px;font-family:Futura;-inkscape-font-specification:Futura-Book;writing-mode:lr-tb;fill:#ffffff;fill-opacity:1;fill-rule:nonzero;stroke:none"
       id="text3189">
      <path
         style="fill:#ffffff"
         d="M 10.22,-4.28 12,0 h 1.86 L 7.08,-15.8 0.12,0 H 1.96 L 3.78,-4.28 Z M 9.56,-5.84 h -5.1 l 2.58,-6.04 z"
         id="path3597"
         inkscape:connector-curvature="0" />
      <path
         style="fill:#ffffff"
         d="M 15.92,-15.08 H 14.1 l 6.12,15.98 6.12,-15.98 h -1.82 l -4.3,11.5 z"
         id="path3599"
         inkscape:connector-curvature="0" />
      <path
         style="fill:#ffffff"
         d="m 31.179999,-7.8 -4.46,7.8 h 1.92 l 3.46,-6.2 3.46,6.2 h 1.92 l -4.46,-7.8 4.08,-7.28 h -1.92 l -3.08,5.68 -3.08,-5.68 h -1.92 z"
         id="path3601"
         inkscape:connector-curvature="0" />
      <path
         style="fill:#ffffff"
         d="m 48.200002,-13.52 v -1.56 h -6 l -2.18,7.22 c 0.86,-0.56 1.82,-0.96 2.86,-0.96 2.1,0 3.76,1.52 3.76,3.66 0,2.2 -1.58,3.86 -3.8,3.86 -1.44,0 -2.66,-0.88 -3.34,-2.1 l -1.34,0.96 c 1,1.7 2.64,2.7 4.62,2.7 3.08,0 5.54,-2.26 5.54,-5.38 0,-2.92 -2.04,-5.26 -5.02,-5.26 l -0.9,0.08 0.98,-3.22 z"
         id="path3603"
         inkscape:connector-curvature="0" />
      <path
         style="fill:#ffffff"
         d="M 55.720001,-13.52 V 0 h 1.68 v -15.08 h -3.3 l -0.88,1.56 z"
         id="path3605"
         inkscape:connector-curvature="0" />
      <path
         style="fill:#ffffff"
         d="m 66.600001,-1.56 5.22,-6.14 c 0.78,-0.9 1.14,-1.96 1.14,-3.18 0,-2.62 -2.22,-4.46 -4.74,-4.46 -2.66,0 -4.6,2.02 -4.66,4.66 h 1.68 c 0.04,-1.76 1.22,-3.1 3.04,-3.1 1.64,0 3,1.24 3,2.92 0,0.98 -0.42,1.8 -1.02,2.52 l -7.06,8.34 h 9.76 v -1.56 z"
         id="path3607"
         inkscape:connector-curvature="0" />
      <path
         style="fill:#ffffff"
         d="m 77.719997,-2.2 -1.86,5.2 1.08,0.44 2.26,-5.12 z"
         id="path3609"
         inkscape:connector-curvature="0" />
      <path
         style="fill:#ffffff"
         d="M 92.679997,-13.52 V 0 h 1.68 v -15.08 h -3.3 l -0.88,1.56 z"
         id="path3611"
         inkscape:connector-curvature="0" />
      <path
         style="fill:#ffffff"
         d="m 105.5,-15.34 c -3.82,0 -5.4,4.72 -5.4,7.82 0,3.72 1.96,7.78 5.4,7.78 3.44,0 5.4,-4.06 5.4,-7.78 0,-3.1 -1.58,-7.82 -5.4,-7.82 z m 0,1.56 c 2.84,0 3.76,4.2 3.72,6.34 -0.04,2.12 -0.94,6.14 -3.72,6.14 -2.78,0 -3.68,-4.02 -3.72,-6.14 -0.04,-2.14 0.88,-6.34 3.72,-6.34 z"
         id="path3613"
         inkscape:connector-curvature="0" />
      <path
         style="fill:#ffffff"
         d="m 115.88,-1.56 5.22,-6.14 c 0.78,-0.9 1.14,-1.96 1.14,-3.18 0,-2.62 -2.22,-4.46 -4.74,-4.46 -2.66,0 -4.6,2.02 -4.66,4.66 h 1.68 c 0.04,-1.76 1.22,-3.1 3.04,-3.1 1.64,0 3,1.24 3,2.92 0,0.98 -0.42,1.8 -1.02,2.52 L 112.48,0 h 9.76 v -1.56 z"
         id="path3615"
         inkscape:connector-curvature="0" />
      <path
         style="fill:#ffffff"
         d="m 133.5,-4 v -11.92 h -0.04 l -9.36,13.48 h 7.72 V 0 h 1.68 v -2.44 h 1.86 V -4 Z m -1.68,0 h -4.78 l 4.74,-6.82 h 0.04 z"
         id="path3617"
         inkscape:connector-curvature="0" />
      <path
         style="fill:#ffffff"
         d="m 150.96001,-8.72 c -0.84,-0.6 -1.88,-0.94 -2.9,-0.94 -2.76,0 -5.02,2.16 -5.02,4.96 0,2.84 2.16,4.96 5,4.96 1.12,0 2.06,-0.34 2.98,-0.96 v -2.14 h -0.04 c -0.78,1.02 -1.72,1.62 -3.06,1.62 -1.96,0 -3.24,-1.62 -3.24,-3.48 0,-1.88 1.38,-3.48 3.32,-3.48 1.26,0 2.18,0.64 2.92,1.58 h 0.04 z"
         id="path3619"
         inkscape:connector-curvature="0" />
      <path
         style="fill:#ffffff"
         d="m 157.6,0.26 c 2.74,0 4.94,-2.18 4.94,-4.94 0,-2.76 -2.18,-4.98 -4.94,-4.98 -2.76,0 -4.94,2.22 -4.94,4.98 0,2.76 2.2,4.94 4.94,4.94 z m 0,-8.44 c 1.98,0 3.34,1.58 3.34,3.48 0,1.92 -1.36,3.48 -3.34,3.48 -1.98,0 -3.34,-1.56 -3.34,-3.48 0,-1.9 1.36,-3.48 3.34,-3.48 z"
         id="path3621"
         inkscape:connector-curvature="0" />
      <path
         style="fill:#ffffff"
         d="m 166.26,-9.4 h -1.6 V 0 h 1.6 v -4.7 c 0,-1.22 0.08,-3.48 1.84,-3.48 0.42,0 0.64,0.2 0.96,0.42 l 0.76,-1.46 c -0.46,-0.26 -0.9,-0.44 -1.44,-0.44 -1.04,0 -1.52,0.54 -2.08,1.28 h -0.04 z"
         id="path3623"
         inkscape:connector-curvature="0" />
      <path
         style="fill:#ffffff"
         d="m 179.62,-4.36 c 0.16,-2.8 -1.44,-5.3 -4.46,-5.3 -2.94,0 -4.56,2.3 -4.56,5.08 0,2.7 1.8,4.84 4.6,4.84 1.92,0 3.44,-0.96 4.34,-2.64 l -1.36,-0.78 c -0.62,1.12 -1.5,1.94 -2.86,1.94 -1.82,0 -3.06,-1.4 -3.08,-3.14 z m -7.3,-1.36 c 0.2,-1.36 1.48,-2.46 2.86,-2.46 1.4,0 2.54,1.1 2.76,2.46 z"
         id="path3625"
         inkscape:connector-curvature="0" />
      <path
         style="fill:#ffffff"
         d="m 186.96,-7.92 c -0.42,-0.98 -1.42,-1.74 -2.5,-1.74 -1.52,0 -2.8,1.08 -2.8,2.66 0,2.96 4.24,2.24 4.24,4.34 0,0.86 -0.66,1.44 -1.52,1.44 -1.06,0 -1.52,-0.62 -1.92,-1.5 l -1.42,0.6 c 0.5,1.48 1.74,2.38 3.32,2.38 1.74,0 3.18,-1.28 3.18,-3.06 0,-1.58 -1.08,-2.24 -2.18,-2.7 -1.1,-0.46 -2.18,-0.78 -2.18,-1.64 0,-0.6 0.6,-1.04 1.16,-1.04 0.58,0 1.06,0.46 1.28,0.96 z"
         id="path3627"
         inkscape:connector-curvature="0" />
    </g>
    <g
       aria-label="Benchmark"
       style="font-style:normal;font-variant:normal;font-weight:normal;font-stretch:normal;font-size:7.39065218px;line-height:1.25;font-family:Futura;-inkscape-font-specification:Futura;text-align:center;letter-spacing:0px;word-spacing:0px;text-anchor:middle;fill:#ffffff;fill-opacity:1;stroke:none;stroke-width:0.46191576"
       id="text1529">
      <path
         d="m 333.05631,226.56328 h 0.53952 c 0.67994,0 1.50769,0.12564 1.50769,0.99035 0,0.84992 -0.73167,1.01991 -1.42639,1.01991 h -0.62082 z m -0.62081,2.58673 h 1.29336 c 1.10121,0 1.99548,-0.44344 1.99548,-1.55204 0,-0.66516 -0.39171,-1.2638 -1.05687,-1.42639 0.37693,-0.25129 0.54691,-0.6356 0.54691,-1.08643 0,-1.13816 -0.84992,-1.50769 -1.86244,-1.50769 h -0.91644 z m 0.62081,-4.99608 h 0.24389 c 0.76124,0 1.29337,0.0887 1.29337,0.93122 0,0.86471 -0.59865,0.946 -1.30076,0.946 h -0.2365 z"
         style="font-style:normal;font-variant:normal;font-weight:normal;font-stretch:normal;font-family:Futura;-inkscape-font-specification:Futura;text-align:center;text-anchor:middle;fill:#ffffff;stroke-width:0.46191576"
         id="path1810" />
      <path
         d="m 339.65882,227.53885 c 0.0591,-1.03469 -0.53213,-1.95853 -1.64812,-1.95853 -1.08642,0 -1.68507,0.84993 -1.68507,1.87723 0,0.99774 0.66516,1.78854 1.69985,1.78854 0.70951,0 1.2712,-0.35475 1.60378,-0.97557 l -0.50257,-0.28823 c -0.22911,0.41387 -0.5543,0.71689 -1.05686,0.71689 -0.67255,0 -1.13077,-0.51735 -1.13816,-1.16033 z m -2.69759,-0.50257 c 0.0739,-0.50256 0.54691,-0.90905 1.05686,-0.90905 0.51735,0 0.93862,0.40649 1.01991,0.90905 z"
         style="font-style:normal;font-variant:normal;font-weight:normal;font-stretch:normal;font-family:Futura;-inkscape-font-specification:Futura;text-align:center;text-anchor:middle;fill:#ffffff;stroke-width:0.46191576"
         id="path1812" />
      <path
         d="m 341.06697,225.6764 h -0.59125 v 3.47361 h 0.59125 v -1.64812 c 0,-0.62081 0.0517,-1.37466 0.86471,-1.37466 0.68733,0 0.73167,0.50257 0.73167,1.06426 v 1.95852 h 0.59125 v -2.06199 c 0,-0.81297 -0.22172,-1.5077 -1.1825,-1.5077 -0.42866,0 -0.74646,0.18477 -0.99035,0.51735 h -0.0148 z"
         style="font-style:normal;font-variant:normal;font-weight:normal;font-stretch:normal;font-family:Futura;-inkscape-font-specification:Futura;text-align:center;text-anchor:middle;fill:#ffffff;stroke-width:0.46191576"
         id="path1814" />
      <path
         d="m 346.95247,225.92768 c -0.31041,-0.22171 -0.69472,-0.34736 -1.07165,-0.34736 -1.01991,0 -1.85505,0.79819 -1.85505,1.83289 0,1.04947 0.79819,1.83288 1.84766,1.83288 0.41388,0 0.76124,-0.12564 1.10121,-0.35475 v -0.7908 h -0.0148 c -0.28824,0.37692 -0.6356,0.59864 -1.13077,0.59864 -0.72428,0 -1.19729,-0.59864 -1.19729,-1.28597 0,-0.69473 0.50996,-1.28598 1.22685,-1.28598 0.46561,0 0.80558,0.2365 1.07904,0.58386 h 0.0148 z"
         style="font-style:normal;font-variant:normal;font-weight:normal;font-stretch:normal;font-family:Futura;-inkscape-font-specification:Futura;text-align:center;text-anchor:middle;fill:#ffffff;stroke-width:0.46191576"
         id="path1816" />
      <path
         d="m 347.89524,223.05272 v 6.09729 h 0.59125 v -1.64812 c 0,-0.62081 0.0517,-1.37466 0.86471,-1.37466 0.68733,0 0.73167,0.50257 0.73167,1.06426 v 1.95852 h 0.59125 v -2.06199 c 0,-0.81297 -0.22172,-1.5077 -1.1825,-1.5077 -0.42866,0 -0.74646,0.18477 -0.99035,0.51735 l -0.0148,-0.0148 v -3.03017 z"
         style="font-style:normal;font-variant:normal;font-weight:normal;font-stretch:normal;font-family:Futura;-inkscape-font-specification:Futura;text-align:center;text-anchor:middle;fill:#ffffff;stroke-width:0.46191576"
         id="path1818" />
      <path
         d="m 352.3839,225.6764 h -0.59125 v 3.47361 h 0.59125 v -1.79593 c 0,-0.52474 0.0739,-1.22685 0.76863,-1.22685 0.56908,0 0.62082,0.62082 0.62082,1.04948 v 1.9733 h 0.59125 v -1.84027 c 0,-0.52474 0.0739,-1.18251 0.75385,-1.18251 0.60603,0 0.63559,0.5543 0.63559,1.00513 v 2.01765 h 0.59125 v -2.11373 c 0,-0.73167 -0.22172,-1.45596 -1.10859,-1.45596 -0.42127,0 -0.83515,0.19216 -1.04209,0.57648 -0.18476,-0.36215 -0.55429,-0.57648 -0.96078,-0.57648 -0.35475,0 -0.65038,0.18477 -0.83514,0.47301 h -0.0148 z"
         style="font-style:normal;font-variant:normal;font-weight:normal;font-stretch:normal;font-family:Futura;-inkscape-font-specification:Futura;text-align:center;text-anchor:middle;fill:#ffffff;stroke-width:0.46191576"
         id="path1820" />
      <path
         d="m 358.90673,226.12723 c 0.73168,0 1.16773,0.56169 1.16773,1.25641 0,0.70212 -0.3991,1.31554 -1.16034,1.31554 -0.73906,0 -1.13816,-0.64299 -1.13816,-1.32293 0,-0.65037 0.44344,-1.24902 1.13077,-1.24902 z m 1.72942,-0.45083 h -0.59126 v 0.49518 h -0.0148 c -0.28823,-0.36954 -0.71689,-0.59126 -1.18989,-0.59126 -1.04209,0 -1.67029,0.84993 -1.67029,1.84028 0,0.96078 0.64299,1.82549 1.6629,1.82549 0.48778,0 0.89426,-0.19216 1.19728,-0.57647 h 0.0148 v 0.48039 h 0.59126 z"
         style="font-style:normal;font-variant:normal;font-weight:normal;font-stretch:normal;font-family:Futura;-inkscape-font-specification:Futura;text-align:center;text-anchor:middle;fill:#ffffff;stroke-width:0.46191576"
         id="path1822" />
      <path
         d="m 362.28553,225.6764 h -0.59125 v 3.47361 h 0.59125 v -1.7368 c 0,-0.45083 0.0296,-1.28598 0.67994,-1.28598 0.1552,0 0.2365,0.0739 0.35475,0.15521 l 0.28085,-0.53952 c -0.16999,-0.0961 -0.33258,-0.1626 -0.53213,-0.1626 -0.38431,0 -0.56169,0.19955 -0.76863,0.47301 h -0.0148 z"
         style="font-style:normal;font-variant:normal;font-weight:normal;font-stretch:normal;font-family:Futura;-inkscape-font-specification:Futura;text-align:center;text-anchor:middle;fill:#ffffff;stroke-width:0.46191576"
         id="path1824" />
      <path
         d="m 364.76833,223.05272 h -0.59125 v 6.09729 h 0.59125 v -1.4264 l 0.1552,-0.1552 1.39684,1.5816 h 0.7834 l -1.76636,-1.99548 1.48552,-1.47813 h -0.7908 l -1.2638,1.28598 z"
         style="font-style:normal;font-variant:normal;font-weight:normal;font-stretch:normal;font-family:Futura;-inkscape-font-specification:Futura;text-align:center;text-anchor:middle;fill:#ffffff;stroke-width:0.46191576"
         id="path1826" />
    </g>
  </g>
</svg>
