<?xml version="1.0" encoding="UTF-8" standalone="no"?>
<!-- Created with Inkscape (http://www.inkscape.org/) -->

<svg
   xmlns:dc="http://purl.org/dc/elements/1.1/"
   xmlns:cc="http://creativecommons.org/ns#"
   xmlns:rdf="http://www.w3.org/1999/02/22-rdf-syntax-ns#"
   xmlns:svg="http://www.w3.org/2000/svg"
   xmlns="http://www.w3.org/2000/svg"
   xmlns:sodipodi="http://sodipodi.sourceforge.net/DTD/sodipodi-0.dtd"
   xmlns:inkscape="http://www.inkscape.org/namespaces/inkscape"
   width="173.36081mm"
   height="133.73354mm"
   viewBox="0 0 173.36081 133.73353"
   version="1.1"
   id="svg3655"
   inkscape:version="0.92.2 5c3e80d, 2017-08-06"
   sodipodi:docname="knl-vs-skylake-narrow-white.svg">
  <defs
     id="defs3649">
    <clipPath
       id="clipPath4337"
       clipPathUnits="userSpaceOnUse">
      <path
         inkscape:connector-curvature="0"
         id="path4335"
         d="m 104.78,78.68 h 547.9 v 329.2 h -547.9 z" />
    </clipPath>
    <clipPath
       id="clipPath4347"
       clipPathUnits="userSpaceOnUse">
      <path
         inkscape:connector-curvature="0"
         id="path4345"
         d="m -3.5,-3.5 h 7 v 7 h -7 z" />
    </clipPath>
    <clipPath
       id="clipPath4359"
       clipPathUnits="userSpaceOnUse">
      <path
         inkscape:connector-curvature="0"
         id="path4357"
         d="m -3.5,-3.5 h 7 v 7 h -7 z" />
    </clipPath>
    <clipPath
       id="clipPath4371"
       clipPathUnits="userSpaceOnUse">
      <path
         inkscape:connector-curvature="0"
         id="path4369"
         d="m -3.5,-3.5 h 7 v 7 h -7 z" />
    </clipPath>
    <clipPath
       id="clipPath4383"
       clipPathUnits="userSpaceOnUse">
      <path
         inkscape:connector-curvature="0"
         id="path4381"
         d="m -3.5,-3.5 h 7 v 7 h -7 z" />
    </clipPath>
    <clipPath
       id="clipPath4395"
       clipPathUnits="userSpaceOnUse">
      <path
         inkscape:connector-curvature="0"
         id="path4393"
         d="m -3.5,-3.5 h 7 v 7 h -7 z" />
    </clipPath>
    <clipPath
       id="clipPath4407"
       clipPathUnits="userSpaceOnUse">
      <path
         inkscape:connector-curvature="0"
         id="path4405"
         d="m -3.5,-3.5 h 7 v 7 h -7 z" />
    </clipPath>
    <clipPath
       id="clipPath4419"
       clipPathUnits="userSpaceOnUse">
      <path
         inkscape:connector-curvature="0"
         id="path4417"
         d="m -3.5,-3.5 h 7 v 7 h -7 z" />
    </clipPath>
    <clipPath
       id="clipPath4429"
       clipPathUnits="userSpaceOnUse">
      <path
         inkscape:connector-curvature="0"
         id="path4427"
         d="m 104.78,78.68 h 547.9 v 329.2 h -547.9 z" />
    </clipPath>
    <clipPath
       id="clipPath4439"
       clipPathUnits="userSpaceOnUse">
      <path
         inkscape:connector-curvature="0"
         id="path4437"
         d="m -6.5,-6.5 h 13 v 13 h -13 z" />
    </clipPath>
    <clipPath
       id="clipPath4451"
       clipPathUnits="userSpaceOnUse">
      <path
         inkscape:connector-curvature="0"
         id="path4449"
         d="m -6.5,-6.5 h 13 v 13 h -13 z" />
    </clipPath>
    <clipPath
       id="clipPath4463"
       clipPathUnits="userSpaceOnUse">
      <path
         inkscape:connector-curvature="0"
         id="path4461"
         d="m -6.5,-6.5 h 13 v 13 h -13 z" />
    </clipPath>
    <clipPath
       id="clipPath4475"
       clipPathUnits="userSpaceOnUse">
      <path
         inkscape:connector-curvature="0"
         id="path4473"
         d="m -6.5,-6.5 h 13 v 13 h -13 z" />
    </clipPath>
    <clipPath
       id="clipPath4487"
       clipPathUnits="userSpaceOnUse">
      <path
         inkscape:connector-curvature="0"
         id="path4485"
         d="m -6.5,-6.5 h 13 v 13 h -13 z" />
    </clipPath>
  </defs>
  <sodipodi:namedview
     id="base"
     pagecolor="#ffffff"
     bordercolor="#666666"
     borderopacity="1.0"
     inkscape:pageopacity="0.0"
     inkscape:pageshadow="2"
     inkscape:zoom="0.98994949"
     inkscape:cx="162.03206"
     inkscape:cy="344.22822"
     inkscape:document-units="mm"
     inkscape:current-layer="layer1"
     showgrid="false"
     fit-margin-top="0"
     fit-margin-left="0"
     fit-margin-right="0"
     fit-margin-bottom="0"
     inkscape:window-width="1920"
     inkscape:window-height="964"
     inkscape:window-x="0"
     inkscape:window-y="1"
     inkscape:window-maximized="1"
     inkscape:pagecheckerboard="true" />
  <metadata
     id="metadata3652">
    <rdf:RDF>
      <cc:Work
         rdf:about="">
        <dc:format>image/svg+xml</dc:format>
        <dc:type
           rdf:resource="http://purl.org/dc/dcmitype/StillImage" />
        <dc:title></dc:title>
      </cc:Work>
    </rdf:RDF>
  </metadata>
  <g
     inkscape:label="Layer 1"
     inkscape:groupmode="layer"
     id="layer1"
     transform="translate(171.85298,-121.08576)">
    <path
       inkscape:connector-curvature="0"
       id="path4349"
       style="fill:#1f77b4;fill-opacity:1;fill-rule:nonzero;stroke:#1f77b4;stroke-width:0.34598464;stroke-linecap:butt;stroke-linejoin:round;stroke-miterlimit:10;stroke-dasharray:none;stroke-opacity:1"
       d="m -129.44519,223.423 c 0.27529,0 0.53933,-0.10936 0.73398,-0.304 0.19465,-0.19463 0.30403,-0.45865 0.30403,-0.7339 0,-0.27525 -0.10935,-0.53927 -0.30403,-0.7339 -0.19465,-0.19464 -0.45869,-0.304 -0.73398,-0.304 -0.27528,0 -0.53933,0.10936 -0.73398,0.304 -0.19465,0.19463 -0.30403,0.45865 -0.30403,0.7339 0,0.27525 0.10935,0.53927 0.30403,0.7339 0.19465,0.19464 0.4587,0.304 0.73398,0.304 z" />
    <path
       d="m -122.52706,218.87288 c 0.27529,0 0.53933,-0.10936 0.73398,-0.304 0.19465,-0.19463 0.30403,-0.45865 0.30403,-0.7339 0,-0.27525 -0.10935,-0.53927 -0.30403,-0.7339 -0.19465,-0.19464 -0.45869,-0.304 -0.73398,-0.304 -0.27528,0 -0.53933,0.10936 -0.73398,0.304 -0.19465,0.19463 -0.30403,0.45865 -0.30403,0.7339 0,0.27525 0.10935,0.53927 0.30403,0.7339 0.19465,0.19464 0.4587,0.304 0.73398,0.304 z"
       style="fill:#1f77b4;fill-opacity:1;fill-rule:nonzero;stroke:#1f77b4;stroke-width:0.34598464;stroke-linecap:butt;stroke-linejoin:round;stroke-miterlimit:10;stroke-dasharray:none;stroke-opacity:1"
       id="path4361"
       inkscape:connector-curvature="0" />
    <path
       inkscape:connector-curvature="0"
       id="path4373"
       style="fill:#1f77b4;fill-opacity:1;fill-rule:nonzero;stroke:#1f77b4;stroke-width:0.34598464;stroke-linecap:butt;stroke-linejoin:round;stroke-miterlimit:10;stroke-dasharray:none;stroke-opacity:1"
       d="m -115.60893,212.43343 c 0.27529,0 0.53933,-0.10936 0.73398,-0.304 0.19465,-0.19463 0.30403,-0.45865 0.30403,-0.7339 0,-0.27525 -0.10935,-0.53927 -0.30403,-0.7339 -0.19465,-0.19464 -0.45869,-0.304 -0.73398,-0.304 -0.27528,0 -0.53933,0.10936 -0.73398,0.304 -0.19465,0.19463 -0.30403,0.45865 -0.30403,0.7339 0,0.27525 0.10935,0.53927 0.30403,0.7339 0.19465,0.19464 0.4587,0.304 0.73398,0.304 z" />
    <path
       d="m -101.77266,201.94768 c 0.27529,0 0.53933,-0.10936 0.73398,-0.304 0.19465,-0.19463 0.30403,-0.45865 0.30403,-0.7339 0,-0.27525 -0.10935,-0.53927 -0.30403,-0.7339 -0.19465,-0.19464 -0.45869,-0.304 -0.73398,-0.304 -0.27528,0 -0.53933,0.10936 -0.73398,0.304 -0.19465,0.19463 -0.30403,0.45865 -0.30403,0.7339 0,0.27525 0.10935,0.53927 0.30403,0.7339 0.19465,0.19464 0.4587,0.304 0.73398,0.304 z"
       style="fill:#1f77b4;fill-opacity:1;fill-rule:nonzero;stroke:#1f77b4;stroke-width:0.34598464;stroke-linecap:butt;stroke-linejoin:round;stroke-miterlimit:10;stroke-dasharray:none;stroke-opacity:1"
       id="path4385"
       inkscape:connector-curvature="0" />
    <g
       id="g4391"
       clip-path="url(#clipPath4395)"
       transform="matrix(0.35338161,0,0,-0.34435288,-87.915777,190.45552)">
      <path
         d="m 0,-3 c 0.795609,0 1.55874,0.316099 2.12132,0.87868 C 2.683901,-1.55874 3,-0.795609 3,0 3,0.795609 2.683901,1.55874 2.12132,2.12132 1.55874,2.683901 0.795609,3 0,3 -0.795609,3 -1.55874,2.683901 -2.12132,2.12132 -2.683901,1.55874 -3,0.795609 -3,0 -3,-0.795609 -2.683901,-1.55874 -2.12132,-2.12132 -1.55874,-2.683901 -0.795609,-3 0,-3 Z"
         style="fill:#1f77b4;fill-opacity:1;fill-rule:nonzero;stroke:#1f77b4;stroke-width:1;stroke-linecap:butt;stroke-linejoin:round;stroke-miterlimit:10;stroke-dasharray:none;stroke-opacity:1"
         id="path4397"
         inkscape:connector-curvature="0" />
    </g>
    <g
       id="g4401"
       transform="matrix(0.35338161,0,0,-0.34435288,-60.243241,172.01886)">
      <g
         id="g4403"
         clip-path="url(#clipPath4407)">
        <path
           d="m 0,-3 c 0.795609,0 1.55874,0.316099 2.12132,0.87868 C 2.683901,-1.55874 3,-0.795609 3,0 3,0.795609 2.683901,1.55874 2.12132,2.12132 1.55874,2.683901 0.795609,3 0,3 -0.795609,3 -1.55874,2.683901 -2.12132,2.12132 -2.683901,1.55874 -3,0.795609 -3,0 -3,-0.795609 -2.683901,-1.55874 -2.12132,-2.12132 -1.55874,-2.683901 -0.795609,-3 0,-3 Z"
           style="fill:#1f77b4;fill-opacity:1;fill-rule:nonzero;stroke:#1f77b4;stroke-width:1;stroke-linecap:butt;stroke-linejoin:round;stroke-miterlimit:10;stroke-dasharray:none;stroke-opacity:1"
           id="path4409"
           inkscape:connector-curvature="0" />
      </g>
    </g>
    <g
       id="g4411"
       transform="matrix(0.35338161,0,0,-0.34435288,-32.570705,154.74728)">
      <g
         id="g4413">
        <g
           id="g4415"
           clip-path="url(#clipPath4419)">
          <path
             d="m 0,-3 c 0.795609,0 1.55874,0.316099 2.12132,0.87868 C 2.683901,-1.55874 3,-0.795609 3,0 3,0.795609 2.683901,1.55874 2.12132,2.12132 1.55874,2.683901 0.795609,3 0,3 -0.795609,3 -1.55874,2.683901 -2.12132,2.12132 -2.683901,1.55874 -3,0.795609 -3,0 -3,-0.795609 -2.683901,-1.55874 -2.12132,-2.12132 -1.55874,-2.683901 -0.795609,-3 0,-3 Z"
             style="fill:#1f77b4;fill-opacity:1;fill-rule:nonzero;stroke:#1f77b4;stroke-width:1;stroke-linecap:butt;stroke-linejoin:round;stroke-miterlimit:10;stroke-dasharray:none;stroke-opacity:1"
             id="path4421"
             inkscape:connector-curvature="0" />
        </g>
      </g>
    </g>
    <g
       id="g1707">
      <path
         inkscape:connector-curvature="0"
         id="path4233"
         style="fill:#000000;fill-opacity:1;fill-rule:nonzero;stroke:#ffffff;stroke-width:0.24409427;stroke-linecap:butt;stroke-linejoin:round;stroke-miterlimit:10;stroke-dasharray:none;stroke-opacity:1"
         d="m -143.20322,237.34226 v 1.23472" />
      <path
         inkscape:connector-curvature="0"
         id="path4239"
         style="fill:#000000;fill-opacity:1;fill-rule:nonzero;stroke:#ffffff;stroke-width:0.24409427;stroke-linecap:butt;stroke-linejoin:round;stroke-miterlimit:10;stroke-dasharray:none;stroke-opacity:1"
         d="m -121.58405,237.34226 v 1.23472" />
      <path
         inkscape:connector-curvature="0"
         id="path4245"
         style="fill:#000000;fill-opacity:1;fill-rule:nonzero;stroke:#ffffff;stroke-width:0.24409427;stroke-linecap:butt;stroke-linejoin:round;stroke-miterlimit:10;stroke-dasharray:none;stroke-opacity:1"
         d="m -99.964881,237.34226 v 1.23472" />
      <path
         inkscape:connector-curvature="0"
         id="path4251"
         style="fill:#000000;fill-opacity:1;fill-rule:nonzero;stroke:#ffffff;stroke-width:0.24409427;stroke-linecap:butt;stroke-linejoin:round;stroke-miterlimit:10;stroke-dasharray:none;stroke-opacity:1"
         d="m -78.345711,237.34226 v 1.23472" />
      <path
         inkscape:connector-curvature="0"
         id="path4257"
         style="fill:#000000;fill-opacity:1;fill-rule:nonzero;stroke:#ffffff;stroke-width:0.24409427;stroke-linecap:butt;stroke-linejoin:round;stroke-miterlimit:10;stroke-dasharray:none;stroke-opacity:1"
         d="m -56.726539,237.34226 v 1.23472" />
      <path
         inkscape:connector-curvature="0"
         id="path4263"
         style="fill:#000000;fill-opacity:1;fill-rule:nonzero;stroke:#ffffff;stroke-width:0.24409427;stroke-linecap:butt;stroke-linejoin:round;stroke-miterlimit:10;stroke-dasharray:none;stroke-opacity:1"
         d="m -35.107372,237.34226 v 1.23472" />
      <path
         inkscape:connector-curvature="0"
         id="path4269"
         style="fill:#000000;fill-opacity:1;fill-rule:nonzero;stroke:#ffffff;stroke-width:0.24409427;stroke-linecap:butt;stroke-linejoin:round;stroke-miterlimit:10;stroke-dasharray:none;stroke-opacity:1"
         d="m -13.488201,237.34226 v 1.23472" />
      <path
         inkscape:connector-curvature="0"
         id="path4279"
         style="fill:#000000;fill-opacity:1;fill-rule:nonzero;stroke:#ffffff;stroke-width:0.24409427;stroke-linecap:butt;stroke-linejoin:round;stroke-miterlimit:10;stroke-dasharray:none;stroke-opacity:1"
         d="m -143.20322,237.34226 h -0.92364" />
      <path
         inkscape:connector-curvature="0"
         id="path4285"
         style="fill:#000000;fill-opacity:1;fill-rule:nonzero;stroke:#ffffff;stroke-width:0.24409427;stroke-linecap:butt;stroke-linejoin:round;stroke-miterlimit:10;stroke-dasharray:none;stroke-opacity:1"
         d="m -143.20322,221.59788 h -0.92364" />
      <path
         inkscape:connector-curvature="0"
         id="path4291"
         style="fill:#000000;fill-opacity:1;fill-rule:nonzero;stroke:#ffffff;stroke-width:0.24409427;stroke-linecap:butt;stroke-linejoin:round;stroke-miterlimit:10;stroke-dasharray:none;stroke-opacity:1"
         d="m -143.20322,205.85351 h -0.92364" />
      <path
         inkscape:connector-curvature="0"
         id="path4297"
         style="fill:#000000;fill-opacity:1;fill-rule:nonzero;stroke:#ffffff;stroke-width:0.24409427;stroke-linecap:butt;stroke-linejoin:round;stroke-miterlimit:10;stroke-dasharray:none;stroke-opacity:1"
         d="m -143.20322,190.10913 h -0.92364" />
      <path
         inkscape:connector-curvature="0"
         id="path4303"
         style="fill:#000000;fill-opacity:1;fill-rule:nonzero;stroke:#ffffff;stroke-width:0.24409427;stroke-linecap:butt;stroke-linejoin:round;stroke-miterlimit:10;stroke-dasharray:none;stroke-opacity:1"
         d="m -143.20322,174.36476 h -0.92364" />
      <path
         inkscape:connector-curvature="0"
         id="path4309"
         style="fill:#000000;fill-opacity:1;fill-rule:nonzero;stroke:#ffffff;stroke-width:0.24409427;stroke-linecap:butt;stroke-linejoin:round;stroke-miterlimit:10;stroke-dasharray:none;stroke-opacity:1"
         d="m -143.20322,158.62038 h -0.92364" />
      <path
         inkscape:connector-curvature="0"
         id="path4315"
         style="fill:#000000;fill-opacity:1;fill-rule:nonzero;stroke:#ffffff;stroke-width:0.24409427;stroke-linecap:butt;stroke-linejoin:round;stroke-miterlimit:10;stroke-dasharray:none;stroke-opacity:1"
         d="m -143.20322,142.87601 h -0.92364" />
      <path
         inkscape:connector-curvature="0"
         id="path4321"
         style="fill:#000000;fill-opacity:1;fill-rule:nonzero;stroke:#ffffff;stroke-width:0.24409427;stroke-linecap:butt;stroke-linejoin:round;stroke-miterlimit:10;stroke-dasharray:none;stroke-opacity:1"
         d="m -143.20322,127.13163 h -0.92364" />
      <path
         d="M -143.20322,237.34226 V 121.20781"
         style="fill:none;stroke:#ffffff;stroke-width:0.24409427;stroke-linecap:square;stroke-linejoin:miter;stroke-miterlimit:10;stroke-dasharray:none;stroke-opacity:1"
         id="path4493"
         inkscape:connector-curvature="0" />
      <path
         d="M 1.3857882,237.34226 V 121.20781"
         style="fill:none;stroke:#ffffff;stroke-width:0.24409427;stroke-linecap:square;stroke-linejoin:miter;stroke-miterlimit:10;stroke-dasharray:none;stroke-opacity:1"
         id="path4495"
         inkscape:connector-curvature="0" />
      <path
         d="M -143.20322,237.34226 H 1.3857882"
         style="fill:none;stroke:#ffffff;stroke-width:0.24409427;stroke-linecap:square;stroke-linejoin:miter;stroke-miterlimit:10;stroke-dasharray:none;stroke-opacity:1"
         id="path4497"
         inkscape:connector-curvature="0" />
      <path
         d="M -143.20322,121.20781 H 1.3857882"
         style="fill:none;stroke:#ffffff;stroke-width:0.24409427;stroke-linecap:square;stroke-linejoin:miter;stroke-miterlimit:10;stroke-dasharray:none;stroke-opacity:1"
         id="path4499"
         inkscape:connector-curvature="0" />
    </g>
    <path
       inkscape:connector-curvature="0"
       id="path4501"
       style="fill:#1f77b4;fill-opacity:1;fill-rule:nonzero;stroke:#1f77b4;stroke-width:0.34032977;stroke-linecap:butt;stroke-linejoin:round;stroke-miterlimit:10;stroke-dasharray:none;stroke-opacity:1"
       d="m -132.78859,131.96754 c 0.2612,0 0.51176,-0.11152 0.69646,-0.30998 0.18472,-0.19847 0.28849,-0.46768 0.28849,-0.74836 0,-0.28067 -0.10376,-0.54989 -0.28849,-0.74835 -0.1847,-0.19847 -0.43526,-0.30998 -0.69646,-0.30998 -0.26122,0 -0.51177,0.11151 -0.69648,0.30998 -0.18471,0.19846 -0.28848,0.46768 -0.28848,0.74835 0,0.28068 0.10376,0.54989 0.28848,0.74836 0.18471,0.19846 0.43526,0.30998 0.69648,0.30998 z" />
    <g
       id="g1721"
       style="stroke-width:1;stroke-miterlimit:8.5;stroke-dasharray:none">
      <path
         d="m -127.97422,224.56773 4.13757,-4.20782 m -4.13757,0 4.13757,4.20782"
         style="fill:#ff7f0e;fill-opacity:1;fill-rule:nonzero;stroke:#ff7f0e;stroke-width:1;stroke-linecap:butt;stroke-linejoin:round;stroke-miterlimit:8.5;stroke-dasharray:none;stroke-opacity:1"
         id="path4441"
         inkscape:connector-curvature="0" />
      <path
         inkscape:connector-curvature="0"
         id="path4453"
         style="fill:#ff7f0e;fill-opacity:1;fill-rule:nonzero;stroke:#ff7f0e;stroke-width:1;stroke-linecap:butt;stroke-linejoin:round;stroke-miterlimit:8.5;stroke-dasharray:none;stroke-opacity:1"
         d="m -110.67888,208.9808 4.13757,-4.20782 m -4.13757,0 4.13757,4.20782" />
      <g
         transform="matrix(0.35016516,0,0,-0.34972374,-73.990564,178.37957)"
         clip-path="url(#clipPath4463)"
         id="g4459"
         style="stroke-width:2.85759697;stroke-miterlimit:8.5;stroke-dasharray:none">
        <path
           inkscape:connector-curvature="0"
           id="path4465"
           style="fill:#ff7f0e;fill-opacity:1;fill-rule:nonzero;stroke:#ff7f0e;stroke-width:2.85759697;stroke-linecap:butt;stroke-linejoin:round;stroke-miterlimit:8.5;stroke-dasharray:none;stroke-opacity:1"
           d="M -6,-6 6,6 M -6,6 6,-6" />
      </g>
      <g
         transform="matrix(0.35016516,0,0,-0.34972374,-39.399891,149.17376)"
         id="g4469"
         style="stroke-width:2.85759697;stroke-miterlimit:8.5;stroke-dasharray:none">
        <g
           clip-path="url(#clipPath4475)"
           id="g4471"
           style="stroke-width:2.85759697;stroke-miterlimit:8.5;stroke-dasharray:none">
          <path
             inkscape:connector-curvature="0"
             id="path4477"
             style="fill:#ff7f0e;fill-opacity:1;fill-rule:nonzero;stroke:#ff7f0e;stroke-width:2.85759697;stroke-linecap:butt;stroke-linejoin:round;stroke-miterlimit:8.5;stroke-dasharray:none;stroke-opacity:1"
             d="M -6,-6 6,6 M -6,6 6,-6" />
        </g>
      </g>
      <g
         transform="matrix(0.35016516,0,0,-0.34972374,-4.8092176,126.02953)"
         id="g4479"
         style="stroke:#ff7f0e;stroke-opacity:1;stroke-width:2.85759697;stroke-miterlimit:8.5;stroke-dasharray:none">
        <g
           id="g4481"
           style="stroke:#ff7f0e;stroke-opacity:1;stroke-width:2.85759697;stroke-miterlimit:8.5;stroke-dasharray:none">
          <g
             clip-path="url(#clipPath4487)"
             id="g4483"
             style="stroke:#ff7f0e;stroke-opacity:1;stroke-width:2.85759697;stroke-miterlimit:8.5;stroke-dasharray:none">
            <path
               inkscape:connector-curvature="0"
               id="path4489"
               style="fill:#ff7f0e;fill-opacity:1;fill-rule:nonzero;stroke:#ff7f0e;stroke-width:2.85759697;stroke-linecap:butt;stroke-linejoin:round;stroke-miterlimit:8.5;stroke-dasharray:none;stroke-opacity:1"
               d="M -6,-6 6,6 M -6,6 6,-6" />
          </g>
        </g>
      </g>
      <path
         d="m -134.75853,144.23759 3.93986,-4.23334 m -3.93986,0 3.93986,4.23334"
         style="fill:#ff7f0e;fill-opacity:1;fill-rule:nonzero;stroke:#ff7f0e;stroke-width:1;stroke-linecap:butt;stroke-linejoin:round;stroke-miterlimit:8.5;stroke-dasharray:none;stroke-opacity:1"
         id="path4507"
         inkscape:connector-curvature="0" />
    </g>
    <g
       id="g1619"
       style="fill:#ffffff">
      <path
         inkscape:connector-curvature="0"
         id="path4656"
         d="m -142.89357,240.22092 c -1.34761,0 -1.905,1.66511 -1.905,2.75872 0,1.31233 0.69145,2.74461 1.905,2.74461 1.21356,0 1.905,-1.43228 1.905,-2.74461 0,-1.09361 -0.55739,-2.75872 -1.905,-2.75872 z m 0,0.55033 c 1.00189,0 1.32645,1.48167 1.31233,2.23661 -0.0141,0.74789 -0.33161,2.16606 -1.31233,2.16606 -0.98072,0 -1.29822,-1.41817 -1.31233,-2.16606 -0.0141,-0.75494 0.31044,-2.23661 1.31233,-2.23661 z"
         style="font-variant:normal;font-weight:normal;font-size:medium;font-family:Futura;-inkscape-font-specification:Futura-Book;writing-mode:lr-tb;fill:#ffffff;fill-opacity:1;fill-rule:nonzero;stroke:none;stroke-width:0.35277778" />
      <g
         transform="translate(-8.012935)"
         id="g1513"
         style="fill:#ffffff">
        <path
           style="font-variant:normal;font-weight:normal;font-size:medium;font-family:Futura;-inkscape-font-specification:Futura-Book;writing-mode:lr-tb;fill:#ffffff;fill-opacity:1;fill-rule:nonzero;stroke:none;stroke-width:0.35277778"
           d="m -116.34395,240.86297 v 4.76956 h 0.59267 v -5.31989 h -1.16417 l -0.31044,0.55033 z"
           id="path4659"
           inkscape:connector-curvature="0" />
        <path
           style="font-variant:normal;font-weight:normal;font-size:medium;font-family:Futura;-inkscape-font-specification:Futura-Book;writing-mode:lr-tb;fill:#ffffff;fill-opacity:1;fill-rule:nonzero;stroke:none;stroke-width:0.35277778"
           d="m -111.82134,240.22092 c -1.34761,0 -1.905,1.66511 -1.905,2.75872 0,1.31233 0.69145,2.74461 1.905,2.74461 1.21356,0 1.905,-1.43228 1.905,-2.74461 0,-1.09361 -0.55739,-2.75872 -1.905,-2.75872 z m 0,0.55033 c 1.00189,0 1.32645,1.48167 1.31234,2.23661 -0.0141,0.74789 -0.33161,2.16606 -1.31234,2.16606 -0.98072,0 -1.29822,-1.41817 -1.31233,-2.16606 -0.0141,-0.75494 0.31044,-2.23661 1.31233,-2.23661 z"
           id="path4661"
           inkscape:connector-curvature="0" />
      </g>
      <g
         transform="translate(-14.881582)"
         id="g1517"
         style="fill:#ffffff">
        <path
           style="font-variant:normal;font-weight:normal;font-size:medium;font-family:Futura;-inkscape-font-specification:Futura-Book;writing-mode:lr-tb;fill:#ffffff;fill-opacity:1;fill-rule:nonzero;stroke:none;stroke-width:0.35277778"
           d="m -87.951383,245.0822 1.8415,-2.16606 c 0.275167,-0.3175 0.402167,-0.69144 0.402167,-1.12183 0,-0.92428 -0.783167,-1.57339 -1.672167,-1.57339 -0.938389,0 -1.622778,0.71261 -1.643944,1.64394 h 0.592666 c 0.01411,-0.62089 0.430389,-1.09361 1.072445,-1.09361 0.578555,0 1.058333,0.43745 1.058333,1.03011 0,0.34573 -0.148167,0.635 -0.359833,0.889 l -2.490611,2.94217 h 3.443111 v -0.55033 z"
           id="path4664"
           inkscape:connector-curvature="0" />
        <path
           style="font-variant:normal;font-weight:normal;font-size:medium;font-family:Futura;-inkscape-font-specification:Futura-Book;writing-mode:lr-tb;fill:#ffffff;fill-opacity:1;fill-rule:nonzero;stroke:none;stroke-width:0.35277778"
           d="m -82.920772,240.22092 c -1.347611,0 -1.905,1.66511 -1.905,2.75872 0,1.31233 0.691445,2.74461 1.905,2.74461 1.213556,0 1.905,-1.43228 1.905,-2.74461 0,-1.09361 -0.557389,-2.75872 -1.905,-2.75872 z m 0,0.55033 c 1.001889,0 1.326445,1.48167 1.312333,2.23661 -0.01411,0.74789 -0.331611,2.16606 -1.312333,2.16606 -0.980722,0 -1.298222,-1.41817 -1.312333,-2.16606 -0.01411,-0.75494 0.310444,-2.23661 1.312333,-2.23661 z"
           id="path4666"
           inkscape:connector-curvature="0" />
      </g>
      <g
         transform="translate(-22.219417)"
         id="g1521"
         style="fill:#ffffff">
        <path
           style="font-variant:normal;font-weight:normal;font-size:medium;font-family:Futura;-inkscape-font-specification:Futura-Book;writing-mode:lr-tb;fill:#ffffff;fill-opacity:1;fill-rule:nonzero;stroke:none;stroke-width:0.35277778"
           d="m -58.627488,243.1137 c 0.649111,-0.0212 1.128888,0.3175 1.128888,0.99483 0,0.58561 -0.4445,1.06539 -1.037166,1.06539 -0.536222,0 -0.994834,-0.381 -1.023056,-0.92428 h -0.578555 c 0.01411,0.889 0.719666,1.47461 1.580444,1.47461 0.910167,0 1.651,-0.64911 1.651,-1.58044 0,-0.54328 -0.246944,-1.07245 -0.762,-1.30528 0.430389,-0.21872 0.684389,-0.69144 0.684389,-1.16417 0,-0.87489 -0.656167,-1.45344 -1.509889,-1.45344 -0.874889,0 -1.389944,0.55739 -1.474611,1.40405 h 0.585611 c 0.04939,-0.50094 0.345722,-0.85372 0.874889,-0.85372 0.557389,0 0.931333,0.36689 0.931333,0.93134 0,0.67027 -0.486833,0.83961 -1.051277,0.86077 z"
           id="path4669"
           inkscape:connector-curvature="0" />
        <path
           style="font-variant:normal;font-weight:normal;font-size:medium;font-family:Futura;-inkscape-font-specification:Futura-Book;writing-mode:lr-tb;fill:#ffffff;fill-opacity:1;fill-rule:nonzero;stroke:none;stroke-width:0.35277778"
           d="m -54.020211,240.22092 c -1.347611,0 -1.905,1.66511 -1.905,2.75872 0,1.31233 0.691445,2.74461 1.905,2.74461 1.213556,0 1.905,-1.43228 1.905,-2.74461 0,-1.09361 -0.557389,-2.75872 -1.905,-2.75872 z m 0,0.55033 c 1.001889,0 1.326445,1.48167 1.312333,2.23661 -0.01411,0.74789 -0.331611,2.16606 -1.312333,2.16606 -0.980722,0 -1.298222,-1.41817 -1.312333,-2.16606 -0.01411,-0.75494 0.310444,-2.23661 1.312333,-2.23661 z"
           id="path4671"
           inkscape:connector-curvature="0" />
      </g>
      <g
         transform="translate(-29.320885)"
         id="g1525"
         style="fill:#ffffff">
        <path
           style="font-variant:normal;font-weight:normal;font-size:medium;font-family:Futura;-inkscape-font-specification:Futura-Book;writing-mode:lr-tb;fill:#ffffff;fill-opacity:1;fill-rule:nonzero;stroke:none;stroke-width:0.35277778"
           d="m -28.280544,244.22142 v -4.20511 h -0.01411 l -3.302,4.75544 h 2.723445 v 0.86078 h 0.592666 v -0.86078 h 0.656167 v -0.55033 z m -0.592666,0 h -1.686278 l 1.672167,-2.40595 h 0.01411 z"
           id="path4674"
           inkscape:connector-curvature="0" />
        <path
           style="font-variant:normal;font-weight:normal;font-size:medium;font-family:Futura;-inkscape-font-specification:Futura-Book;writing-mode:lr-tb;fill:#ffffff;fill-opacity:1;fill-rule:nonzero;stroke:none;stroke-width:0.35277778"
           d="m -25.119655,240.22092 c -1.347611,0 -1.905,1.66511 -1.905,2.75872 0,1.31233 0.691445,2.74461 1.905,2.74461 1.213556,0 1.905,-1.43228 1.905,-2.74461 0,-1.09361 -0.557389,-2.75872 -1.905,-2.75872 z m 0,0.55033 c 1.001889,0 1.326445,1.48167 1.312333,2.23661 -0.01411,0.74789 -0.331611,2.16606 -1.312333,2.16606 -0.980722,0 -1.298222,-1.41817 -1.312333,-2.16606 -0.01411,-0.75494 0.310444,-2.23661 1.312333,-2.23661 z"
           id="path4676"
           inkscape:connector-curvature="0" />
      </g>
      <g
         transform="translate(-36.655195)"
         id="g1529"
         style="fill:#ffffff">
        <path
           style="font-variant:normal;font-weight:normal;font-size:medium;font-family:Futura;-inkscape-font-specification:Futura-Book;writing-mode:lr-tb;fill:#ffffff;fill-opacity:1;fill-rule:nonzero;stroke:none;stroke-width:0.35277778"
           d="m 0.95162817,240.86297 v -0.55033 H -1.1650384 l -0.7690556,2.54706 c 0.3033889,-0.19756 0.6420556,-0.33867 1.00894444,-0.33867 0.74083331,0 1.32644441,0.53622 1.32644441,1.29117 0,0.77611 -0.55738887,1.36172 -1.34055552,1.36172 -0.50800003,0 -0.93838883,-0.31045 -1.17827773,-0.74083 l -0.4727222,0.33866 c 0.3527777,0.59972 0.9313333,0.9525 1.62983326,0.9525 1.08655553,0 1.95438885,-0.79728 1.95438885,-1.89794 0,-1.03011 -0.71966665,-1.85561 -1.77094441,-1.85561 l -0.3175,0.0282 0.34572222,-1.13595 z"
           id="path4679"
           inkscape:connector-curvature="0" />
        <path
           style="font-variant:normal;font-weight:normal;font-size:medium;font-family:Futura;-inkscape-font-specification:Futura-Book;writing-mode:lr-tb;fill:#ffffff;fill-opacity:1;fill-rule:nonzero;stroke:none;stroke-width:0.35277778"
           d="m 3.7809059,240.22092 c -1.3476111,0 -1.905,1.66511 -1.905,2.75872 0,1.31233 0.6914445,2.74461 1.905,2.74461 1.2135555,0 1.9049999,-1.43228 1.9049999,-2.74461 0,-1.09361 -0.5573888,-2.75872 -1.9049999,-2.75872 z m 0,0.55033 c 1.0018889,0 1.3264444,1.48167 1.3123333,2.23661 -0.014111,0.74789 -0.3316111,2.16606 -1.3123333,2.16606 -0.9807222,0 -1.2982222,-1.41817 -1.3123333,-2.16606 -0.014111,-0.75494 0.3104444,-2.23661 1.3123333,-2.23661 z"
           id="path4681"
           inkscape:connector-curvature="0" />
      </g>
      <g
         transform="translate(-44.017723)"
         id="g1533"
         style="fill:#ffffff">
        <path
           style="font-variant:normal;font-weight:normal;font-size:medium;font-family:Futura;-inkscape-font-specification:Futura-Book;writing-mode:lr-tb;fill:#ffffff;fill-opacity:1;fill-rule:nonzero;stroke:none;stroke-width:0.35277778"
           d="m 28.7233,240.22092 -1.763889,2.40594 c -0.268111,0.37395 -0.486834,0.79023 -0.486834,1.27706 0,1.00189 0.8255,1.82033 1.834445,1.82033 1.001889,0 1.834444,-0.81139 1.834444,-1.82739 0,-0.95955 -0.754944,-1.75683 -1.721555,-1.75683 -0.162278,0 -0.324556,0.0282 -0.465667,0.0776 l -0.01411,-0.0141 1.227667,-1.651 z m -0.416278,4.953 c -0.691445,0 -1.241778,-0.56445 -1.241778,-1.25589 0,-0.69144 0.550333,-1.22767 1.241778,-1.22767 0.684389,0 1.241778,0.53623 1.241778,1.22767 0,0.69144 -0.550334,1.25589 -1.241778,1.25589 z"
           id="path4684"
           inkscape:connector-curvature="0" />
        <path
           style="font-variant:normal;font-weight:normal;font-size:medium;font-family:Futura;-inkscape-font-specification:Futura-Book;writing-mode:lr-tb;fill:#ffffff;fill-opacity:1;fill-rule:nonzero;stroke:none;stroke-width:0.35277778"
           d="m 32.681466,240.22092 c -1.347611,0 -1.905,1.66511 -1.905,2.75872 0,1.31233 0.691445,2.74461 1.905,2.74461 1.213556,0 1.905,-1.43228 1.905,-2.74461 0,-1.09361 -0.557389,-2.75872 -1.905,-2.75872 z m 0,0.55033 c 1.001889,0 1.326445,1.48167 1.312333,2.23661 -0.01411,0.74789 -0.331611,2.16606 -1.312333,2.16606 -0.980722,0 -1.298222,-1.41817 -1.312333,-2.16606 -0.01411,-0.75494 0.310444,-2.23661 1.312333,-2.23661 z"
           id="path4686"
           inkscape:connector-curvature="0" />
      </g>
      <g
         transform="translate(-24.670634)"
         id="g1542"
         style="fill:#ffffff">
        <path
           style="font-variant:normal;font-weight:normal;font-size:medium;font-family:Futura;-inkscape-font-specification:Futura-Book;writing-mode:lr-tb;fill:#ffffff;fill-opacity:1;fill-rule:nonzero;stroke:none;stroke-width:0.35277778"
           d="m -54.203804,250.14147 c -0.282222,-0.52211 -0.783166,-0.8255 -1.375833,-0.8255 -0.790222,0 -1.488722,0.52917 -1.488722,1.35467 0,0.762 0.536222,1.0795 1.157111,1.36172 l 0.324556,0.14111 c 0.493888,0.22578 0.980722,0.43744 0.980722,1.05833 0,0.59972 -0.522111,1.03717 -1.093611,1.03717 -0.5715,0 -0.987778,-0.4445 -1.065389,-0.98778 l -0.578556,0.16228 c 0.169334,0.8255 0.804334,1.37583 1.658056,1.37583 0.924277,0 1.672166,-0.71261 1.672166,-1.64394 0,-0.84667 -0.585611,-1.19239 -1.277055,-1.49578 l -0.352778,-0.15522 c -0.359833,-0.16228 -0.832555,-0.37395 -0.832555,-0.83256 0,-0.48683 0.409222,-0.8255 0.881944,-0.8255 0.451556,0 0.705555,0.21167 0.917222,0.57856 z"
           id="path4689"
           inkscape:connector-curvature="0" />
        <path
           style="font-variant:normal;font-weight:normal;font-size:medium;font-family:Futura;-inkscape-font-specification:Futura-Book;writing-mode:lr-tb;fill:#ffffff;fill-opacity:1;fill-rule:nonzero;stroke:none;stroke-width:0.35277778"
           d="m -51.699081,254.8193 c 0.966611,0 1.742722,-0.76905 1.742722,-1.74272 0,-0.97367 -0.769056,-1.75683 -1.742722,-1.75683 -0.973667,0 -1.742723,0.78316 -1.742723,1.75683 0,0.97367 0.776111,1.74272 1.742723,1.74272 z m 0,-2.97744 c 0.6985,0 1.178277,0.55739 1.178277,1.22766 0,0.67734 -0.479777,1.22767 -1.178277,1.22767 -0.6985,0 -1.178278,-0.55033 -1.178278,-1.22767 0,-0.67027 0.479778,-1.22766 1.178278,-1.22766 z"
           id="path4691"
           inkscape:connector-curvature="0" />
        <path
           style="font-variant:normal;font-weight:normal;font-size:medium;font-family:Futura;-inkscape-font-specification:Futura-Book;writing-mode:lr-tb;fill:#ffffff;fill-opacity:1;fill-rule:nonzero;stroke:none;stroke-width:0.35277778"
           d="m -46.717859,251.65136 c -0.296334,-0.21167 -0.663223,-0.33161 -1.023056,-0.33161 -0.973667,0 -1.770944,0.762 -1.770944,1.74977 0,1.00189 0.762,1.74978 1.763889,1.74978 0.395111,0 0.726722,-0.11994 1.051277,-0.33866 v -0.75495 h -0.01411 c -0.275166,0.35983 -0.606778,0.5715 -1.0795,0.5715 -0.691444,0 -1.143,-0.5715 -1.143,-1.22767 0,-0.66322 0.486834,-1.22766 1.171222,-1.22766 0.4445,0 0.769056,0.22578 1.030112,0.55739 h 0.01411 z"
           id="path4693"
           inkscape:connector-curvature="0" />
        <path
           style="font-variant:normal;font-weight:normal;font-size:medium;font-family:Futura;-inkscape-font-specification:Futura-Book;writing-mode:lr-tb;fill:#ffffff;fill-opacity:1;fill-rule:nonzero;stroke:none;stroke-width:0.35277778"
           d="m -45.285581,248.90675 h -0.564445 v 5.82083 h 0.564445 v -1.36172 l 0.148166,-0.14817 1.3335,1.50989 h 0.747889 l -1.686277,-1.905 1.418166,-1.41111 h -0.754944 l -1.2065,1.22767 z"
           id="path4695"
           inkscape:connector-curvature="0" />
        <path
           style="font-variant:normal;font-weight:normal;font-size:medium;font-family:Futura;-inkscape-font-specification:Futura-Book;writing-mode:lr-tb;fill:#ffffff;fill-opacity:1;fill-rule:nonzero;stroke:none;stroke-width:0.35277778"
           d="m -39.619971,253.18947 c 0.05644,-0.98778 -0.508,-1.86972 -1.573388,-1.86972 -1.037167,0 -1.608667,0.81139 -1.608667,1.79211 0,0.9525 0.635,1.70744 1.622778,1.70744 0.677333,0 1.213555,-0.33866 1.531055,-0.93133 l -0.479778,-0.27517 c -0.218722,0.39511 -0.529166,0.68439 -1.008944,0.68439 -0.642056,0 -1.0795,-0.49389 -1.086556,-1.10772 z m -2.575277,-0.47978 c 0.07055,-0.47978 0.522111,-0.86783 1.008944,-0.86783 0.493889,0 0.896056,0.38805 0.973667,0.86783 z"
           id="path4697"
           inkscape:connector-curvature="0" />
        <path
           style="font-variant:normal;font-weight:normal;font-size:medium;font-family:Futura;-inkscape-font-specification:Futura-Book;writing-mode:lr-tb;fill:#ffffff;fill-opacity:1;fill-rule:nonzero;stroke:none;stroke-width:0.35277778"
           d="m -38.251193,251.93358 h 0.592667 v -0.52211 h -0.592667 v -1.19239 h -0.564444 v 1.19239 h -0.345722 v 0.52211 h 0.345722 v 2.794 h 0.564444 z"
           id="path4699"
           inkscape:connector-curvature="0" />
        <path
           style="font-variant:normal;font-weight:normal;font-size:medium;font-family:Futura;-inkscape-font-specification:Futura-Book;writing-mode:lr-tb;fill:#ffffff;fill-opacity:1;fill-rule:nonzero;stroke:none;stroke-width:0.35277778"
           d="m -35.337248,251.93358 c -0.148167,-0.34572 -0.500945,-0.61383 -0.881945,-0.61383 -0.536222,0 -0.987778,0.381 -0.987778,0.93839 0,1.04422 1.495778,0.79022 1.495778,1.53105 0,0.30339 -0.232833,0.508 -0.536222,0.508 -0.373945,0 -0.536222,-0.21872 -0.677333,-0.52917 l -0.500945,0.21167 c 0.176389,0.52211 0.613833,0.83961 1.171222,0.83961 0.613834,0 1.121834,-0.45155 1.121834,-1.0795 0,-0.55739 -0.381,-0.79022 -0.769056,-0.9525 -0.388055,-0.16228 -0.769055,-0.27516 -0.769055,-0.57855 0,-0.21167 0.211666,-0.36689 0.409222,-0.36689 0.204611,0 0.373944,0.16228 0.451555,0.33866 z"
           id="path4701"
           inkscape:connector-curvature="0" />
      </g>
      <path
         inkscape:connector-curvature="0"
         id="path4704"
         d="m -147.53756,234.84106 c -1.34761,0 -1.905,1.66511 -1.905,2.75872 0,1.31233 0.69145,2.74461 1.905,2.74461 1.21356,0 1.905,-1.43228 1.905,-2.74461 0,-1.09361 -0.55739,-2.75872 -1.905,-2.75872 z m 0,0.55033 c 1.00189,0 1.32645,1.48167 1.31233,2.23661 -0.0141,0.74789 -0.33161,2.16606 -1.31233,2.16606 -0.98072,0 -1.29822,-1.41817 -1.31233,-2.16606 -0.0141,-0.75494 0.31044,-2.23661 1.31233,-2.23661 z"
         style="font-variant:normal;font-weight:normal;font-size:medium;font-family:Futura;-inkscape-font-specification:Futura-Book;writing-mode:lr-tb;fill:#ffffff;fill-opacity:1;fill-rule:nonzero;stroke:none;stroke-width:0.35277778" />
      <path
         inkscape:connector-curvature="0"
         id="path4707"
         d="m -160.76121,219.73874 v 4.76956 h 0.59267 v -5.31989 h -1.16417 l -0.31044,0.55033 z"
         style="font-variant:normal;font-weight:normal;font-size:medium;font-family:Futura;-inkscape-font-specification:Futura-Book;writing-mode:lr-tb;fill:#ffffff;fill-opacity:1;fill-rule:nonzero;stroke:none;stroke-width:0.35277778" />
      <path
         inkscape:connector-curvature="0"
         id="path4709"
         d="m -156.2386,219.09669 c -1.34761,0 -1.905,1.66511 -1.905,2.75872 0,1.31233 0.69145,2.74461 1.905,2.74461 1.21356,0 1.905,-1.43228 1.905,-2.74461 0,-1.09361 -0.55739,-2.75872 -1.905,-2.75872 z m 0,0.55033 c 1.00189,0 1.32645,1.48167 1.31234,2.23661 -0.0141,0.74789 -0.33161,2.16606 -1.31234,2.16606 -0.98072,0 -1.29822,-1.41817 -1.31233,-2.16606 -0.0141,-0.75494 0.31044,-2.23661 1.31233,-2.23661 z"
         style="font-variant:normal;font-weight:normal;font-size:medium;font-family:Futura;-inkscape-font-specification:Futura-Book;writing-mode:lr-tb;fill:#ffffff;fill-opacity:1;fill-rule:nonzero;stroke:none;stroke-width:0.35277778" />
      <path
         inkscape:connector-curvature="0"
         id="path4711"
         d="m -151.89238,219.09669 c -1.34761,0 -1.90499,1.66511 -1.90499,2.75872 0,1.31233 0.69144,2.74461 1.90499,2.74461 1.21356,0 1.905,-1.43228 1.905,-2.74461 0,-1.09361 -0.55738,-2.75872 -1.905,-2.75872 z m 0,0.55033 c 1.00189,0 1.32645,1.48167 1.31234,2.23661 -0.0141,0.74789 -0.33161,2.16606 -1.31234,2.16606 -0.98072,0 -1.29822,-1.41817 -1.31233,-2.16606 -0.0141,-0.75494 0.31045,-2.23661 1.31233,-2.23661 z"
         style="font-variant:normal;font-weight:normal;font-size:medium;font-family:Futura;-inkscape-font-specification:Futura-Book;writing-mode:lr-tb;fill:#ffffff;fill-opacity:1;fill-rule:nonzero;stroke:none;stroke-width:0.35277778" />
      <path
         inkscape:connector-curvature="0"
         id="path4713"
         d="m -147.54615,219.09669 c -1.34761,0 -1.905,1.66511 -1.905,2.75872 0,1.31233 0.69144,2.74461 1.905,2.74461 1.21355,0 1.905,-1.43228 1.905,-2.74461 0,-1.09361 -0.55739,-2.75872 -1.905,-2.75872 z m 0,0.55033 c 1.00189,0 1.32644,1.48167 1.31233,2.23661 -0.0141,0.74789 -0.33161,2.16606 -1.31233,2.16606 -0.98073,0 -1.29823,-1.41817 -1.31234,-2.16606 -0.0141,-0.75494 0.31045,-2.23661 1.31234,-2.23661 z"
         style="font-variant:normal;font-weight:normal;font-size:medium;font-family:Futura;-inkscape-font-specification:Futura-Book;writing-mode:lr-tb;fill:#ffffff;fill-opacity:1;fill-rule:nonzero;stroke:none;stroke-width:0.35277778" />
      <path
         inkscape:connector-curvature="0"
         id="path4716"
         d="m -161.26921,208.21359 1.8415,-2.16606 c 0.27517,-0.3175 0.40217,-0.69144 0.40217,-1.12183 0,-0.92428 -0.78317,-1.57339 -1.67217,-1.57339 -0.93839,0 -1.62278,0.71261 -1.64394,1.64394 h 0.59266 c 0.0141,-0.62089 0.43039,-1.09361 1.07245,-1.09361 0.57855,0 1.05833,0.43745 1.05833,1.03011 0,0.34573 -0.14816,0.635 -0.35983,0.889 l -2.49061,2.94217 h 3.44311 v -0.55033 z"
         style="font-variant:normal;font-weight:normal;font-size:medium;font-family:Futura;-inkscape-font-specification:Futura-Book;writing-mode:lr-tb;fill:#ffffff;fill-opacity:1;fill-rule:nonzero;stroke:none;stroke-width:0.35277778" />
      <path
         inkscape:connector-curvature="0"
         id="path4718"
         d="m -156.2386,203.35231 c -1.34761,0 -1.905,1.66511 -1.905,2.75872 0,1.31233 0.69145,2.74461 1.905,2.74461 1.21356,0 1.905,-1.43228 1.905,-2.74461 0,-1.09361 -0.55739,-2.75872 -1.905,-2.75872 z m 0,0.55033 c 1.00189,0 1.32645,1.48167 1.31234,2.23661 -0.0141,0.74789 -0.33161,2.16606 -1.31234,2.16606 -0.98072,0 -1.29822,-1.41817 -1.31233,-2.16606 -0.0141,-0.75494 0.31044,-2.23661 1.31233,-2.23661 z"
         style="font-variant:normal;font-weight:normal;font-size:medium;font-family:Futura;-inkscape-font-specification:Futura-Book;writing-mode:lr-tb;fill:#ffffff;fill-opacity:1;fill-rule:nonzero;stroke:none;stroke-width:0.35277778" />
      <path
         inkscape:connector-curvature="0"
         id="path4720"
         d="m -151.89238,203.35231 c -1.34761,0 -1.90499,1.66511 -1.90499,2.75872 0,1.31233 0.69144,2.74461 1.90499,2.74461 1.21356,0 1.905,-1.43228 1.905,-2.74461 0,-1.09361 -0.55738,-2.75872 -1.905,-2.75872 z m 0,0.55033 c 1.00189,0 1.32645,1.48167 1.31234,2.23661 -0.0141,0.74789 -0.33161,2.16606 -1.31234,2.16606 -0.98072,0 -1.29822,-1.41817 -1.31233,-2.16606 -0.0141,-0.75494 0.31045,-2.23661 1.31233,-2.23661 z"
         style="font-variant:normal;font-weight:normal;font-size:medium;font-family:Futura;-inkscape-font-specification:Futura-Book;writing-mode:lr-tb;fill:#ffffff;fill-opacity:1;fill-rule:nonzero;stroke:none;stroke-width:0.35277778" />
      <path
         inkscape:connector-curvature="0"
         id="path4722"
         d="m -147.54615,203.35231 c -1.34761,0 -1.905,1.66511 -1.905,2.75872 0,1.31233 0.69144,2.74461 1.905,2.74461 1.21355,0 1.905,-1.43228 1.905,-2.74461 0,-1.09361 -0.55739,-2.75872 -1.905,-2.75872 z m 0,0.55033 c 1.00189,0 1.32644,1.48167 1.31233,2.23661 -0.0141,0.74789 -0.33161,2.16606 -1.31233,2.16606 -0.98073,0 -1.29823,-1.41817 -1.31234,-2.16606 -0.0141,-0.75494 0.31045,-2.23661 1.31234,-2.23661 z"
         style="font-variant:normal;font-weight:normal;font-size:medium;font-family:Futura;-inkscape-font-specification:Futura-Book;writing-mode:lr-tb;fill:#ffffff;fill-opacity:1;fill-rule:nonzero;stroke:none;stroke-width:0.35277778" />
      <path
         inkscape:connector-curvature="0"
         id="path4725"
         d="m -160.84587,190.50072 c 0.64911,-0.0212 1.12888,0.3175 1.12888,0.99483 0,0.58561 -0.4445,1.06539 -1.03716,1.06539 -0.53622,0 -0.99484,-0.381 -1.02306,-0.92428 h -0.57855 c 0.0141,0.889 0.71966,1.47461 1.58044,1.47461 0.91017,0 1.651,-0.64911 1.651,-1.58044 0,-0.54328 -0.24694,-1.07245 -0.762,-1.30528 0.43039,-0.21872 0.68439,-0.69144 0.68439,-1.16417 0,-0.87489 -0.65617,-1.45344 -1.50989,-1.45344 -0.87489,0 -1.38994,0.55739 -1.47461,1.40405 h 0.58561 c 0.0494,-0.50094 0.34572,-0.85372 0.87489,-0.85372 0.55739,0 0.93133,0.36689 0.93133,0.93134 0,0.67027 -0.48683,0.83961 -1.05127,0.86077 z"
         style="font-variant:normal;font-weight:normal;font-size:medium;font-family:Futura;-inkscape-font-specification:Futura-Book;writing-mode:lr-tb;fill:#ffffff;fill-opacity:1;fill-rule:nonzero;stroke:none;stroke-width:0.35277778" />
      <path
         inkscape:connector-curvature="0"
         id="path4727"
         d="m -156.2386,187.60794 c -1.34761,0 -1.905,1.66511 -1.905,2.75872 0,1.31233 0.69145,2.74461 1.905,2.74461 1.21356,0 1.905,-1.43228 1.905,-2.74461 0,-1.09361 -0.55739,-2.75872 -1.905,-2.75872 z m 0,0.55033 c 1.00189,0 1.32645,1.48167 1.31234,2.23661 -0.0141,0.74789 -0.33161,2.16606 -1.31234,2.16606 -0.98072,0 -1.29822,-1.41817 -1.31233,-2.16606 -0.0141,-0.75494 0.31044,-2.23661 1.31233,-2.23661 z"
         style="font-variant:normal;font-weight:normal;font-size:medium;font-family:Futura;-inkscape-font-specification:Futura-Book;writing-mode:lr-tb;fill:#ffffff;fill-opacity:1;fill-rule:nonzero;stroke:none;stroke-width:0.35277778" />
      <path
         inkscape:connector-curvature="0"
         id="path4729"
         d="m -151.89238,187.60794 c -1.34761,0 -1.90499,1.66511 -1.90499,2.75872 0,1.31233 0.69144,2.74461 1.90499,2.74461 1.21356,0 1.905,-1.43228 1.905,-2.74461 0,-1.09361 -0.55738,-2.75872 -1.905,-2.75872 z m 0,0.55033 c 1.00189,0 1.32645,1.48167 1.31234,2.23661 -0.0141,0.74789 -0.33161,2.16606 -1.31234,2.16606 -0.98072,0 -1.29822,-1.41817 -1.31233,-2.16606 -0.0141,-0.75494 0.31045,-2.23661 1.31233,-2.23661 z"
         style="font-variant:normal;font-weight:normal;font-size:medium;font-family:Futura;-inkscape-font-specification:Futura-Book;writing-mode:lr-tb;fill:#ffffff;fill-opacity:1;fill-rule:nonzero;stroke:none;stroke-width:0.35277778" />
      <path
         inkscape:connector-curvature="0"
         id="path4731"
         d="m -147.54615,187.60794 c -1.34761,0 -1.905,1.66511 -1.905,2.75872 0,1.31233 0.69144,2.74461 1.905,2.74461 1.21355,0 1.905,-1.43228 1.905,-2.74461 0,-1.09361 -0.55739,-2.75872 -1.905,-2.75872 z m 0,0.55033 c 1.00189,0 1.32644,1.48167 1.31233,2.23661 -0.0141,0.74789 -0.33161,2.16606 -1.31233,2.16606 -0.98073,0 -1.29823,-1.41817 -1.31234,-2.16606 -0.0141,-0.75494 0.31045,-2.23661 1.31234,-2.23661 z"
         style="font-variant:normal;font-weight:normal;font-size:medium;font-family:Futura;-inkscape-font-specification:Futura-Book;writing-mode:lr-tb;fill:#ffffff;fill-opacity:1;fill-rule:nonzero;stroke:none;stroke-width:0.35277778" />
      <path
         inkscape:connector-curvature="0"
         id="path4734"
         d="m -159.39949,175.86406 v -4.20511 h -0.0141 l -3.302,4.75544 h 2.72345 v 0.86078 h 0.59266 v -0.86078 h 0.65617 v -0.55033 z m -0.59266,0 h -1.68628 l 1.67217,-2.40595 h 0.0141 z"
         style="font-variant:normal;font-weight:normal;font-size:medium;font-family:Futura;-inkscape-font-specification:Futura-Book;writing-mode:lr-tb;fill:#ffffff;fill-opacity:1;fill-rule:nonzero;stroke:none;stroke-width:0.35277778" />
      <path
         inkscape:connector-curvature="0"
         id="path4736"
         d="m -156.2386,171.86356 c -1.34761,0 -1.905,1.66511 -1.905,2.75872 0,1.31233 0.69145,2.74461 1.905,2.74461 1.21356,0 1.905,-1.43228 1.905,-2.74461 0,-1.09361 -0.55739,-2.75872 -1.905,-2.75872 z m 0,0.55033 c 1.00189,0 1.32645,1.48167 1.31234,2.23661 -0.0141,0.74789 -0.33161,2.16606 -1.31234,2.16606 -0.98072,0 -1.29822,-1.41817 -1.31233,-2.16606 -0.0141,-0.75494 0.31044,-2.23661 1.31233,-2.23661 z"
         style="font-variant:normal;font-weight:normal;font-size:medium;font-family:Futura;-inkscape-font-specification:Futura-Book;writing-mode:lr-tb;fill:#ffffff;fill-opacity:1;fill-rule:nonzero;stroke:none;stroke-width:0.35277778" />
      <path
         inkscape:connector-curvature="0"
         id="path4738"
         d="m -151.89238,171.86356 c -1.34761,0 -1.90499,1.66511 -1.90499,2.75872 0,1.31233 0.69144,2.74461 1.90499,2.74461 1.21356,0 1.905,-1.43228 1.905,-2.74461 0,-1.09361 -0.55738,-2.75872 -1.905,-2.75872 z m 0,0.55033 c 1.00189,0 1.32645,1.48167 1.31234,2.23661 -0.0141,0.74789 -0.33161,2.16606 -1.31234,2.16606 -0.98072,0 -1.29822,-1.41817 -1.31233,-2.16606 -0.0141,-0.75494 0.31045,-2.23661 1.31233,-2.23661 z"
         style="font-variant:normal;font-weight:normal;font-size:medium;font-family:Futura;-inkscape-font-specification:Futura-Book;writing-mode:lr-tb;fill:#ffffff;fill-opacity:1;fill-rule:nonzero;stroke:none;stroke-width:0.35277778" />
      <path
         inkscape:connector-curvature="0"
         id="path4740"
         d="m -147.54615,171.86356 c -1.34761,0 -1.905,1.66511 -1.905,2.75872 0,1.31233 0.69144,2.74461 1.905,2.74461 1.21355,0 1.905,-1.43228 1.905,-2.74461 0,-1.09361 -0.55739,-2.75872 -1.905,-2.75872 z m 0,0.55033 c 1.00189,0 1.32644,1.48167 1.31233,2.23661 -0.0141,0.74789 -0.33161,2.16606 -1.31233,2.16606 -0.98073,0 -1.29823,-1.41817 -1.31234,-2.16606 -0.0141,-0.75494 0.31045,-2.23661 1.31234,-2.23661 z"
         style="font-variant:normal;font-weight:normal;font-size:medium;font-family:Futura;-inkscape-font-specification:Futura-Book;writing-mode:lr-tb;fill:#ffffff;fill-opacity:1;fill-rule:nonzero;stroke:none;stroke-width:0.35277778" />
      <path
         inkscape:connector-curvature="0"
         id="path4743"
         d="m -159.06787,156.76124 v -0.55033 h -2.11667 l -0.76906,2.54706 c 0.30339,-0.19756 0.64206,-0.33867 1.00895,-0.33867 0.74083,0 1.32644,0.53622 1.32644,1.29117 0,0.77611 -0.55739,1.36172 -1.34055,1.36172 -0.508,0 -0.93839,-0.31045 -1.17828,-0.74083 l -0.47272,0.33866 c 0.35277,0.59972 0.93133,0.9525 1.62983,0.9525 1.08656,0 1.95439,-0.79728 1.95439,-1.89794 0,-1.03011 -0.71967,-1.85561 -1.77095,-1.85561 l -0.3175,0.0282 0.34573,-1.13595 z"
         style="font-variant:normal;font-weight:normal;font-size:medium;font-family:Futura;-inkscape-font-specification:Futura-Book;writing-mode:lr-tb;fill:#ffffff;fill-opacity:1;fill-rule:nonzero;stroke:none;stroke-width:0.35277778" />
      <path
         inkscape:connector-curvature="0"
         id="path4745"
         d="m -156.2386,156.11919 c -1.34761,0 -1.905,1.66511 -1.905,2.75872 0,1.31233 0.69145,2.74461 1.905,2.74461 1.21356,0 1.905,-1.43228 1.905,-2.74461 0,-1.09361 -0.55739,-2.75872 -1.905,-2.75872 z m 0,0.55033 c 1.00189,0 1.32645,1.48167 1.31234,2.23661 -0.0141,0.74789 -0.33161,2.16606 -1.31234,2.16606 -0.98072,0 -1.29822,-1.41817 -1.31233,-2.16606 -0.0141,-0.75494 0.31044,-2.23661 1.31233,-2.23661 z"
         style="font-variant:normal;font-weight:normal;font-size:medium;font-family:Futura;-inkscape-font-specification:Futura-Book;writing-mode:lr-tb;fill:#ffffff;fill-opacity:1;fill-rule:nonzero;stroke:none;stroke-width:0.35277778" />
      <path
         inkscape:connector-curvature="0"
         id="path4747"
         d="m -151.89238,156.11919 c -1.34761,0 -1.90499,1.66511 -1.90499,2.75872 0,1.31233 0.69144,2.74461 1.90499,2.74461 1.21356,0 1.905,-1.43228 1.905,-2.74461 0,-1.09361 -0.55738,-2.75872 -1.905,-2.75872 z m 0,0.55033 c 1.00189,0 1.32645,1.48167 1.31234,2.23661 -0.0141,0.74789 -0.33161,2.16606 -1.31234,2.16606 -0.98072,0 -1.29822,-1.41817 -1.31233,-2.16606 -0.0141,-0.75494 0.31045,-2.23661 1.31233,-2.23661 z"
         style="font-variant:normal;font-weight:normal;font-size:medium;font-family:Futura;-inkscape-font-specification:Futura-Book;writing-mode:lr-tb;fill:#ffffff;fill-opacity:1;fill-rule:nonzero;stroke:none;stroke-width:0.35277778" />
      <path
         inkscape:connector-curvature="0"
         id="path4749"
         d="m -147.54615,156.11919 c -1.34761,0 -1.905,1.66511 -1.905,2.75872 0,1.31233 0.69144,2.74461 1.905,2.74461 1.21355,0 1.905,-1.43228 1.905,-2.74461 0,-1.09361 -0.55739,-2.75872 -1.905,-2.75872 z m 0,0.55033 c 1.00189,0 1.32644,1.48167 1.31233,2.23661 -0.0141,0.74789 -0.33161,2.16606 -1.31233,2.16606 -0.98073,0 -1.29823,-1.41817 -1.31234,-2.16606 -0.0141,-0.75494 0.31045,-2.23661 1.31234,-2.23661 z"
         style="font-variant:normal;font-weight:normal;font-size:medium;font-family:Futura;-inkscape-font-specification:Futura-Book;writing-mode:lr-tb;fill:#ffffff;fill-opacity:1;fill-rule:nonzero;stroke:none;stroke-width:0.35277778" />
      <path
         inkscape:connector-curvature="0"
         id="path4752"
         d="m -160.19676,140.37482 -1.76389,2.40594 c -0.26811,0.37395 -0.48684,0.79023 -0.48684,1.27706 0,1.00189 0.8255,1.82033 1.83445,1.82033 1.00189,0 1.83444,-0.81139 1.83444,-1.82739 0,-0.95955 -0.75494,-1.75683 -1.72155,-1.75683 -0.16228,0 -0.32456,0.0282 -0.46567,0.0776 l -0.0141,-0.0141 1.22767,-1.651 z m -0.41628,4.953 c -0.69145,0 -1.24178,-0.56445 -1.24178,-1.25589 0,-0.69144 0.55033,-1.22767 1.24178,-1.22767 0.68439,0 1.24178,0.53623 1.24178,1.22767 0,0.69144 -0.55034,1.25589 -1.24178,1.25589 z"
         style="font-variant:normal;font-weight:normal;font-size:medium;font-family:Futura;-inkscape-font-specification:Futura-Book;writing-mode:lr-tb;fill:#ffffff;fill-opacity:1;fill-rule:nonzero;stroke:none;stroke-width:0.35277778" />
      <path
         inkscape:connector-curvature="0"
         id="path4754"
         d="m -156.2386,140.37482 c -1.34761,0 -1.905,1.66511 -1.905,2.75872 0,1.31233 0.69145,2.74461 1.905,2.74461 1.21356,0 1.905,-1.43228 1.905,-2.74461 0,-1.09361 -0.55739,-2.75872 -1.905,-2.75872 z m 0,0.55033 c 1.00189,0 1.32645,1.48167 1.31234,2.23661 -0.0141,0.74789 -0.33161,2.16606 -1.31234,2.16606 -0.98072,0 -1.29822,-1.41817 -1.31233,-2.16606 -0.0141,-0.75494 0.31044,-2.23661 1.31233,-2.23661 z"
         style="font-variant:normal;font-weight:normal;font-size:medium;font-family:Futura;-inkscape-font-specification:Futura-Book;writing-mode:lr-tb;fill:#ffffff;fill-opacity:1;fill-rule:nonzero;stroke:none;stroke-width:0.35277778" />
      <path
         inkscape:connector-curvature="0"
         id="path4756"
         d="m -151.89238,140.37482 c -1.34761,0 -1.90499,1.66511 -1.90499,2.75872 0,1.31233 0.69144,2.74461 1.90499,2.74461 1.21356,0 1.905,-1.43228 1.905,-2.74461 0,-1.09361 -0.55738,-2.75872 -1.905,-2.75872 z m 0,0.55033 c 1.00189,0 1.32645,1.48167 1.31234,2.23661 -0.0141,0.74789 -0.33161,2.16606 -1.31234,2.16606 -0.98072,0 -1.29822,-1.41817 -1.31233,-2.16606 -0.0141,-0.75494 0.31045,-2.23661 1.31233,-2.23661 z"
         style="font-variant:normal;font-weight:normal;font-size:medium;font-family:Futura;-inkscape-font-specification:Futura-Book;writing-mode:lr-tb;fill:#ffffff;fill-opacity:1;fill-rule:nonzero;stroke:none;stroke-width:0.35277778" />
      <path
         inkscape:connector-curvature="0"
         id="path4758"
         d="m -147.54615,140.37482 c -1.34761,0 -1.905,1.66511 -1.905,2.75872 0,1.31233 0.69144,2.74461 1.905,2.74461 1.21355,0 1.905,-1.43228 1.905,-2.74461 0,-1.09361 -0.55739,-2.75872 -1.905,-2.75872 z m 0,0.55033 c 1.00189,0 1.32644,1.48167 1.31233,2.23661 -0.0141,0.74789 -0.33161,2.16606 -1.31233,2.16606 -0.98073,0 -1.29823,-1.41817 -1.31234,-2.16606 -0.0141,-0.75494 0.31045,-2.23661 1.31234,-2.23661 z"
         style="font-variant:normal;font-weight:normal;font-size:medium;font-family:Futura;-inkscape-font-specification:Futura-Book;writing-mode:lr-tb;fill:#ffffff;fill-opacity:1;fill-rule:nonzero;stroke:none;stroke-width:0.35277778" />
      <path
         inkscape:connector-curvature="0"
         id="path4761"
         d="m -159.49121,125.27249 -3.01978,4.58612 0.46567,0.27516 3.57011,-5.41161 h -3.92289 v 0.55033 z"
         style="font-variant:normal;font-weight:normal;font-size:medium;font-family:Futura;-inkscape-font-specification:Futura-Book;writing-mode:lr-tb;fill:#ffffff;fill-opacity:1;fill-rule:nonzero;stroke:none;stroke-width:0.35277778" />
      <path
         inkscape:connector-curvature="0"
         id="path4763"
         d="m -156.2386,124.63044 c -1.34761,0 -1.905,1.66511 -1.905,2.75872 0,1.31233 0.69145,2.74461 1.905,2.74461 1.21356,0 1.905,-1.43228 1.905,-2.74461 0,-1.09361 -0.55739,-2.75872 -1.905,-2.75872 z m 0,0.55033 c 1.00189,0 1.32645,1.48167 1.31234,2.23661 -0.0141,0.74789 -0.33161,2.16606 -1.31234,2.16606 -0.98072,0 -1.29822,-1.41817 -1.31233,-2.16606 -0.0141,-0.75494 0.31044,-2.23661 1.31233,-2.23661 z"
         style="font-variant:normal;font-weight:normal;font-size:medium;font-family:Futura;-inkscape-font-specification:Futura-Book;writing-mode:lr-tb;fill:#ffffff;fill-opacity:1;fill-rule:nonzero;stroke:none;stroke-width:0.35277778" />
      <path
         inkscape:connector-curvature="0"
         id="path4765"
         d="m -151.89238,124.63044 c -1.34761,0 -1.90499,1.66511 -1.90499,2.75872 0,1.31233 0.69144,2.74461 1.90499,2.74461 1.21356,0 1.905,-1.43228 1.905,-2.74461 0,-1.09361 -0.55738,-2.75872 -1.905,-2.75872 z m 0,0.55033 c 1.00189,0 1.32645,1.48167 1.31234,2.23661 -0.0141,0.74789 -0.33161,2.16606 -1.31234,2.16606 -0.98072,0 -1.29822,-1.41817 -1.31233,-2.16606 -0.0141,-0.75494 0.31045,-2.23661 1.31233,-2.23661 z"
         style="font-variant:normal;font-weight:normal;font-size:medium;font-family:Futura;-inkscape-font-specification:Futura-Book;writing-mode:lr-tb;fill:#ffffff;fill-opacity:1;fill-rule:nonzero;stroke:none;stroke-width:0.35277778" />
      <path
         inkscape:connector-curvature="0"
         id="path4767"
         d="m -147.54615,124.63044 c -1.34761,0 -1.905,1.66511 -1.905,2.75872 0,1.31233 0.69144,2.74461 1.905,2.74461 1.21355,0 1.905,-1.43228 1.905,-2.74461 0,-1.09361 -0.55739,-2.75872 -1.905,-2.75872 z m 0,0.55033 c 1.00189,0 1.32644,1.48167 1.31233,2.23661 -0.0141,0.74789 -0.33161,2.16606 -1.31233,2.16606 -0.98073,0 -1.29823,-1.41817 -1.31234,-2.16606 -0.0141,-0.75494 0.31045,-2.23661 1.31234,-2.23661 z"
         style="font-variant:normal;font-weight:normal;font-size:medium;font-family:Futura;-inkscape-font-specification:Futura-Book;writing-mode:lr-tb;fill:#ffffff;fill-opacity:1;fill-rule:nonzero;stroke:none;stroke-width:0.35277778" />
      <path
         inkscape:connector-curvature="0"
         id="path4770"
         d="m -168.70621,190.14699 h 0.55034 v -1.58045 c 0.98778,0 1.66511,0.97367 1.66511,1.89795 0,0.55739 -0.28928,1.12183 -0.67733,1.50989 -0.40217,0.39511 -0.93839,0.62089 -1.50284,0.62089 -1.19944,0 -2.2225,-0.95956 -2.2225,-2.17312 0,-0.78316 0.37395,-1.38288 1.00189,-1.82738 l -0.40217,-0.43039 c -0.73377,0.56444 -1.15005,1.31939 -1.15005,2.25072 0,1.53105 1.24178,2.77283 2.76578,2.77283 1.49577,0 2.73755,-1.24178 2.73755,-2.73755 0,-0.74084 -0.32455,-1.48167 -0.889,-1.9685 -0.56444,-0.48684 -1.15711,-0.56445 -1.87678,-0.55034 z"
         style="font-variant:normal;font-weight:normal;font-size:medium;font-family:Futura;-inkscape-font-specification:Futura-Book;writing-mode:lr-tb;fill:#ffffff;fill-opacity:1;fill-rule:nonzero;stroke:none;stroke-width:0.35277778" />
      <path
         inkscape:connector-curvature="0"
         id="path4772"
         d="m -170.80171,184.67188 h -0.55033 v 2.42005 h 5.31989 v -0.59266 h -2.63878 v -1.77095 h -0.55033 v 1.77095 h -1.58045 z"
         style="font-variant:normal;font-weight:normal;font-size:medium;font-family:Futura;-inkscape-font-specification:Futura-Book;writing-mode:lr-tb;fill:#ffffff;fill-opacity:1;fill-rule:nonzero;stroke:none;stroke-width:0.35277778" />
      <path
         inkscape:connector-curvature="0"
         id="path4774"
         d="m -171.35204,183.12671 v 0.59267 h 5.31989 v -2.06022 h -0.55033 v 1.46755 z"
         style="font-variant:normal;font-weight:normal;font-size:medium;font-family:Futura;-inkscape-font-specification:Futura-Book;writing-mode:lr-tb;fill:#ffffff;fill-opacity:1;fill-rule:nonzero;stroke:none;stroke-width:0.35277778" />
      <path
         inkscape:connector-curvature="0"
         id="path4776"
         d="m -171.44376,178.56882 c 0,1.51695 1.23472,2.77284 2.75872,2.77284 1.53106,0 2.74461,-1.25589 2.74461,-2.77284 0,-1.51694 -1.21355,-2.77283 -2.74461,-2.77283 -1.524,0 -2.75872,1.25589 -2.75872,2.77283 z m 0.55033,0 c 0,-1.22061 0.99484,-2.18016 2.20134,-2.18016 1.19944,0 2.20133,0.97366 2.20133,2.18016 0,1.2065 -1.00189,2.18017 -2.20133,2.18017 -1.2065,0 -2.20134,-0.95956 -2.20134,-2.18017 z"
         style="font-variant:normal;font-weight:normal;font-size:medium;font-family:Futura;-inkscape-font-specification:Futura-Book;writing-mode:lr-tb;fill:#ffffff;fill-opacity:1;fill-rule:nonzero;stroke:none;stroke-width:0.35277778" />
      <path
         inkscape:connector-curvature="0"
         id="path4778"
         d="m -168.36048,174.39899 v -0.43039 c 0,-0.4445 -0.0565,-0.90311 -0.35278,-1.26295 -0.27517,-0.33161 -0.71261,-0.508 -1.143,-0.508 -0.47272,0 -0.93839,0.20462 -1.21356,0.59973 -0.26811,0.38805 -0.28222,0.86077 -0.28222,1.31939 v 0.87488 h 5.31989 v -0.59266 z m -2.44123,0 v -0.21872 c 0,-0.69145 0.0635,-1.38995 0.93134,-1.38995 0.762,0 0.95955,0.55739 0.95955,1.21356 v 0.39511 z"
         style="font-variant:normal;font-weight:normal;font-size:medium;font-family:Futura;-inkscape-font-specification:Futura-Book;writing-mode:lr-tb;fill:#ffffff;fill-opacity:1;fill-rule:nonzero;stroke:none;stroke-width:0.35277778" />
      <path
         inkscape:connector-curvature="0"
         id="path4780"
         d="m -171.85298,168.54993 6.71689,3.302 0.21166,-0.45861 -6.71689,-3.30905 z"
         style="font-variant:normal;font-weight:normal;font-size:medium;font-family:Futura;-inkscape-font-specification:Futura-Book;writing-mode:lr-tb;fill:#ffffff;fill-opacity:1;fill-rule:nonzero;stroke:none;stroke-width:0.35277778" />
      <path
         inkscape:connector-curvature="0"
         id="path4782"
         d="m -168.82615,165.60776 c -0.34572,0.14817 -0.61383,0.50095 -0.61383,0.88195 0,0.53622 0.381,0.98778 0.93839,0.98778 1.04422,0 0.79022,-1.49578 1.53105,-1.49578 0.30339,0 0.508,0.23283 0.508,0.53622 0,0.37395 -0.21872,0.53622 -0.52917,0.67733 l 0.21167,0.50095 c 0.52211,-0.17639 0.83961,-0.61383 0.83961,-1.17122 0,-0.61384 -0.45155,-1.12184 -1.0795,-1.12184 -0.55739,0 -0.79022,0.381 -0.9525,0.76906 -0.16228,0.38805 -0.27516,0.76905 -0.57855,0.76905 -0.21167,0 -0.36689,-0.21166 -0.36689,-0.40922 0,-0.20461 0.16228,-0.37394 0.33866,-0.45155 z"
         style="font-variant:normal;font-weight:normal;font-size:medium;font-family:Futura;-inkscape-font-specification:Futura-Book;writing-mode:lr-tb;fill:#ffffff;fill-opacity:1;fill-rule:nonzero;stroke:none;stroke-width:0.35277778" />
      <g
         id="text4505"
         style="font-variant:normal;font-weight:normal;font-size:20px;font-family:Futura;-inkscape-font-specification:Futura-Book;writing-mode:lr-tb;fill:#ffffff;fill-opacity:1;fill-rule:nonzero;stroke:none"
         transform="matrix(0.35277777,0,0,0.35277777,-126.40828,133.37865)"
         aria-label="Skylake">
        <path
           inkscape:connector-curvature="0"
           id="path4785"
           d="m 9.7,-13 c -0.8,-1.48 -2.22,-2.34 -3.9,-2.34 -2.24,0 -4.22,1.5 -4.22,3.84 0,2.16 1.52,3.06 3.28,3.86 l 0.92,0.4 c 1.4,0.64 2.78,1.24 2.78,3 0,1.7 -1.48,2.94 -3.1,2.94 -1.62,0 -2.8,-1.26 -3.02,-2.8 L 0.8,-3.64 c 0.48,2.34 2.28,3.9 4.7,3.9 2.62,0 4.74,-2.02 4.74,-4.66 0,-2.4 -1.66,-3.38 -3.62,-4.24 l -1,-0.44 c -1.02,-0.46 -2.36,-1.06 -2.36,-2.36 0,-1.38 1.16,-2.34 2.5,-2.34 1.28,0 2,0.6 2.6,1.64 z"
           style="fill:#ffffff" />
        <path
           inkscape:connector-curvature="0"
           id="path4787"
           d="m 14.22,-16.5 h -1.6 V 0 h 1.6 V -3.86 L 14.64,-4.28 18.42,0 h 2.12 l -4.78,-5.4 4.02,-4 h -2.14 l -3.42,3.48 z"
           style="fill:#ffffff" />
        <path
           inkscape:connector-curvature="0"
           id="path4789"
           d="m 24.86,-0.88 -3.04,6.16 h 1.82 L 30.58,-9.4 H 28.76 L 25.72,-2.66 22.4,-9.4 h -1.86 z"
           style="fill:#ffffff" />
        <path
           inkscape:connector-curvature="0"
           id="path4791"
           d="m 33.620001,-16.5 h -1.6 V 0 h 1.6 z"
           style="fill:#ffffff" />
        <path
           inkscape:connector-curvature="0"
           id="path4793"
           d="m 40.500002,-8.18 c 1.98,0 3.16,1.52 3.16,3.4 0,1.9 -1.08,3.56 -3.14,3.56 -2,0 -3.08,-1.74 -3.08,-3.58 0,-1.76 1.2,-3.38 3.06,-3.38 z m 4.68,-1.22 h -1.6 v 1.34 h -0.04 c -0.78,-1 -1.94,-1.6 -3.22,-1.6 -2.82,0 -4.52,2.3 -4.52,4.98 0,2.6 1.74,4.94 4.5,4.94 1.32,0 2.42,-0.52 3.24,-1.56 h 0.04 V 0 h 1.6 z"
           style="fill:#ffffff" />
        <path
           inkscape:connector-curvature="0"
           id="path4795"
           d="m 49.659999,-16.5 h -1.6 V 0 h 1.6 v -3.86 l 0.42,-0.42 3.78,4.28 h 2.12 l -4.78,-5.4 4.02,-4 h -2.14 l -3.42,3.48 z"
           style="fill:#ffffff" />
        <path
           inkscape:connector-curvature="0"
           id="path4797"
           d="m 65.72,-4.36 c 0.16,-2.8 -1.44,-5.3 -4.46,-5.3 -2.94,0 -4.56,2.3 -4.56,5.08 0,2.7 1.8,4.84 4.6,4.84 1.92,0 3.44,-0.96 4.34,-2.64 l -1.36,-0.78 c -0.62,1.12 -1.5,1.94 -2.86,1.94 -1.82,0 -3.06,-1.4 -3.08,-3.14 z m -7.3,-1.36 c 0.2,-1.36 1.48,-2.46 2.86,-2.46 1.4,0 2.54,1.1 2.76,2.46 z"
           style="fill:#ffffff" />
      </g>
      <g
         id="text4511"
         style="font-variant:normal;font-weight:normal;font-size:20px;font-family:Futura;-inkscape-font-specification:Futura-Book;writing-mode:lr-tb;fill:#ffffff;fill-opacity:1;fill-rule:nonzero;stroke:none"
         transform="matrix(0.35277777,0,0,0.35277777,-126.40828,144.59036)"
         aria-label="KNL">
        <path
           inkscape:connector-curvature="0"
           id="path4800"
           d="m 3.2,-8.62 v -6.46 H 1.52 V 0 H 3.2 V -6.5 L 3.62,-6.92 9.8,0 h 2.32 L 4.8,-8.06 11.88,-15.08 H 9.62 Z"
           style="fill:#ffffff" />
        <path
           inkscape:connector-curvature="0"
           id="path4802"
           d="m 13.84,0 h 1.68 V -11.62 L 27.28,0.68 V -15.08 H 25.6 V -3.4 L 13.84,-15.72 Z"
           style="fill:#ffffff" />
        <path
           inkscape:connector-curvature="0"
           id="path4804"
           d="M 32.1,-15.08 H 30.42 V 0 h 5.84 V -1.56 H 32.1 Z"
           style="fill:#ffffff" />
      </g>
    </g>
  </g>
</svg>
